<?xml version="1.0" encoding="UTF-8" standalone="no"?>
<svg
   xmlns:dc="http://purl.org/dc/elements/1.1/"
   xmlns:cc="http://creativecommons.org/ns#"
   xmlns:rdf="http://www.w3.org/1999/02/22-rdf-syntax-ns#"
   xmlns:svg="http://www.w3.org/2000/svg"
   xmlns="http://www.w3.org/2000/svg"
   viewBox="0 0 248 76"
   height="76"
   width="248"
   xml:space="preserve"
   id="svg2"
   version="1.1"><metadata
     id="metadata8"><rdf:RDF><cc:Work
         rdf:about=""><dc:format>image/svg+xml</dc:format><dc:type
           rdf:resource="http://purl.org/dc/dcmitype/StillImage" /></cc:Work></rdf:RDF></metadata><defs
     id="defs6" /><g
     transform="matrix(1.3333333,0,0,-1.3333333,0,76)"
     id="g10"><g
       transform="translate(110.335,38.646)"
       id="g12"><path
         id="path14"
         style="fill:#242d3a;fill-opacity:1;fill-rule:nonzero;stroke:none"
         d="m 0,0 c -0.175,-0.526 -0.388,-0.978 -0.636,-1.355 -0.251,-0.379 -0.564,-0.717 -0.941,-1.017 -0.288,-0.23 -0.588,-0.424 -0.898,-0.579 -0.311,-0.158 -0.626,-0.276 -0.946,-0.358 -0.318,-0.082 -0.64,-0.123 -0.965,-0.123 -0.933,0 -1.614,0.317 -2.038,0.952 -0.146,0.229 -0.239,0.453 -0.278,0.672 -0.036,0.222 -0.034,0.481 0.009,0.774 0.043,0.295 0.11,0.596 0.203,0.907 0.092,0.308 0.24,0.766 0.441,1.372 0.261,0.786 0.47,1.374 0.628,1.765 0.158,0.389 0.349,0.743 0.578,1.064 0.229,0.318 0.526,0.618 0.897,0.896 0.847,0.635 1.738,0.952 2.671,0.952 0.573,0 1.049,-0.116 1.426,-0.351 C 0.53,5.338 0.795,5.013 0.943,4.597 1.088,4.179 1.118,3.705 1.028,3.169 H 0.043 c 0.07,0.586 -0.038,1.045 -0.322,1.376 -0.285,0.334 -0.712,0.5 -1.283,0.5 -0.304,0 -0.611,-0.056 -0.924,-0.168 C -2.796,4.767 -3.092,4.603 -3.37,4.388 -3.747,4.097 -4.041,3.753 -4.25,3.35 -4.459,2.949 -4.731,2.247 -5.064,1.245 -5.397,0.243 -5.592,-0.459 -5.651,-0.864 c -0.059,-0.403 0.004,-0.752 0.186,-1.047 0.272,-0.429 0.731,-0.644 1.375,-0.644 0.336,0 0.679,0.067 1.03,0.203 0.353,0.133 0.677,0.329 0.971,0.585 0.485,0.423 0.841,0.976 1.071,1.668 l 0.233,0.7 H -3.04 l 0.287,0.864 h 3.24 z M 16.769,-3.357 H 15.614 L 14.876,0.728 H 12.668 L 11.31,-3.357 h -0.985 l 3.06,9.201 h 3.531 c 0.532,0 0.97,-0.103 1.317,-0.308 C 18.578,5.33 18.802,5.032 18.901,4.642 19.003,4.255 18.966,3.802 18.796,3.29 18.576,2.628 18.211,2.083 17.7,1.652 17.19,1.221 16.614,0.946 15.968,0.823 Z m 1.038,6.634 c 0.182,0.547 0.155,0.965 -0.08,1.256 -0.237,0.29 -0.635,0.435 -1.193,0.435 H 14.078 L 12.955,1.592 h 2.456 c 0.354,0 0.691,0.063 1.01,0.185 0.321,0.125 0.601,0.313 0.843,0.567 0.239,0.252 0.42,0.562 0.543,0.933 z M 35.581,1.245 c -0.262,-0.786 -0.47,-1.375 -0.628,-1.764 -0.158,-0.39 -0.352,-0.748 -0.587,-1.073 -0.236,-0.325 -0.533,-0.623 -0.895,-0.888 -0.846,-0.635 -1.733,-0.952 -2.664,-0.952 -0.935,0 -1.614,0.317 -2.038,0.952 -0.146,0.229 -0.24,0.453 -0.279,0.672 -0.036,0.222 -0.034,0.481 0.01,0.774 0.042,0.295 0.11,0.596 0.202,0.907 0.092,0.308 0.24,0.766 0.442,1.372 0.261,0.786 0.47,1.374 0.627,1.765 0.158,0.389 0.349,0.743 0.578,1.064 0.229,0.318 0.527,0.618 0.898,0.896 0.847,0.635 1.736,0.952 2.671,0.952 0.931,0 1.607,-0.317 2.031,-0.952 C 36.135,4.705 36.234,4.408 36.253,4.082 36.272,3.757 36.228,3.399 36.127,3.01 36.025,2.619 35.842,2.031 35.581,1.245 Z m -0.985,0 c 0.196,0.588 0.335,1.028 0.417,1.312 0.083,0.286 0.142,0.543 0.174,0.769 0.034,0.224 0.034,0.42 0.004,0.588 -0.03,0.17 -0.094,0.328 -0.191,0.474 -0.137,0.211 -0.324,0.373 -0.564,0.487 -0.238,0.114 -0.508,0.17 -0.808,0.17 -0.301,0 -0.608,-0.056 -0.922,-0.168 C 32.396,4.767 32.1,4.603 31.822,4.388 31.445,4.097 31.152,3.753 30.943,3.35 30.734,2.949 30.462,2.247 30.129,1.245 29.797,0.248 29.602,-0.452 29.545,-0.853 c -0.059,-0.403 0.004,-0.752 0.186,-1.045 0.139,-0.207 0.326,-0.369 0.562,-0.483 0.237,-0.116 0.506,-0.174 0.807,-0.174 0.3,0 0.608,0.058 0.922,0.174 0.316,0.114 0.611,0.276 0.887,0.483 0.198,0.155 0.368,0.317 0.51,0.485 0.143,0.17 0.273,0.366 0.388,0.59 0.118,0.226 0.229,0.48 0.337,0.765 0.107,0.284 0.257,0.717 0.452,1.303 z m 18.23,-1.566 C 52.674,-0.78 52.455,-1.198 52.173,-1.573 51.89,-1.95 51.559,-2.277 51.18,-2.555 50.802,-2.833 50.385,-3.048 49.936,-3.201 49.484,-3.355 49.03,-3.432 48.571,-3.432 c -0.457,0 -0.854,0.075 -1.198,0.226 -0.343,0.153 -0.616,0.369 -0.818,0.649 -0.202,0.28 -0.317,0.607 -0.345,0.984 -0.028,0.375 0.033,0.793 0.186,1.252 l 2.05,6.165 h 0.985 l -2.024,-6.083 c -0.155,-0.468 -0.2,-0.875 -0.132,-1.222 0.068,-0.347 0.239,-0.616 0.515,-0.808 0.275,-0.191 0.631,-0.286 1.068,-0.286 0.442,0 0.865,0.095 1.27,0.286 0.404,0.192 0.758,0.466 1.06,0.819 0.303,0.353 0.53,0.756 0.681,1.211 l 2.023,6.083 h 0.985 z M 71.941,3.143 C 71.802,2.727 71.612,2.355 71.367,2.027 71.125,1.699 70.833,1.413 70.499,1.172 70.165,0.931 69.797,0.745 69.4,0.62 69,0.493 68.6,0.431 68.195,0.431 H 65.75 l -1.26,-3.788 h -0.984 l 3.06,9.201 h 3.43 c 0.56,0 1.019,-0.109 1.376,-0.331 0.355,-0.22 0.584,-0.537 0.685,-0.946 C 72.16,4.158 72.12,3.681 71.941,3.143 Z m -0.985,0 c 0.13,0.392 0.16,0.726 0.089,1.004 -0.071,0.278 -0.233,0.485 -0.486,0.618 -0.252,0.136 -0.568,0.203 -0.952,0.203 h -2.348 l -1.217,-3.66 h 2.348 c 0.388,0 0.751,0.068 1.091,0.209 0.341,0.138 0.64,0.346 0.897,0.624 0.256,0.278 0.448,0.612 0.578,1.002" /></g><g
       transform="translate(16.1,0.75521)"
       id="g16"><path
         id="path18"
         style="fill:#242d3a;fill-opacity:1;fill-rule:nonzero;stroke:none"
         d="m 0,0 h -15.789 l 6.5208,24.335 H -4.51 L -9.8952,4.2392 H 1.136 L 0,0" /></g><g
       transform="translate(39,9.1024)"
       id="g20"><path
         id="path22"
         style="fill:#242d3a;fill-opacity:1;fill-rule:nonzero;stroke:none"
         d="m 0,0 c -0.45,-1.6809 -1.244,-3.1737 -2.384,-4.4728 -1.141,-1.3048 -2.487,-2.3074 -4.038,-3.0141 -1.551,-0.7064 -3.161,-1.0598 -4.831,-1.0598 -1.669,0 -3.09,0.3534 -4.263,1.0598 -1.172,0.7067 -1.98,1.7093 -2.422,3.0141 -0.445,1.2991 -0.438,2.7919 0.013,4.4728 l 4.284,15.988 h 4.757 L -13.123,0.1653 c -0.37,-1.3788 -0.285,-2.467 0.257,-3.2707 0.543,-0.8033 1.461,-1.2021 2.749,-1.2021 1.305,0 2.443,0.3988 3.413,1.1908 0.977,0.7977 1.652,1.8918 2.025,3.282 L -0.44,15.988 H 4.284 L 0,0" /></g><g
       transform="translate(60.819,8.2478)"
       id="g24"><path
         id="path26"
         style="fill:#242d3a;fill-opacity:1;fill-rule:nonzero;stroke:none"
         d="m 0,0 c -0.723,-1.658 -1.652,-3.0597 -2.786,-4.2106 -1.142,-1.1565 -2.411,-2.0228 -3.821,-2.6039 -1.411,-0.587 -2.884,-0.8776 -4.417,-0.8776 -2.587,0 -4.532,0.8833 -5.852,2.6552 -0.549,0.7807 -0.867,1.6353 -0.956,2.5812 -0.084,0.9403 -0.034,1.9146 0.166,2.9345 0.194,1.0199 0.527,2.4162 1.005,4.1992 0.478,1.783 0.892,3.179 1.245,4.199 0.347,1.02 0.819,1.994 1.409,2.94 0.594,0.94 1.37,1.795 2.336,2.576 2.27,1.772 4.689,2.655 7.276,2.655 2.336,0 4.138,-0.655 5.398,-1.972 1.26,-1.315 1.762,-3.225 1.504,-5.72 h -4.826 c 0.026,1.054 -0.21,1.897 -0.715,2.519 -0.513,0.62 -1.329,0.934 -2.468,0.934 -1.288,0 -2.415,-0.422 -3.376,-1.265 -0.427,-0.382 -0.778,-0.798 -1.058,-1.248 -0.286,-0.45 -0.58,-1.123 -0.894,-2.017 -0.314,-0.894 -0.67,-2.097 -1.075,-3.607 -0.406,-1.515 -0.694,-2.718 -0.864,-3.6065 -0.175,-0.8889 -0.236,-1.561 -0.192,-2.0171 0.043,-0.4558 0.176,-0.8716 0.4,-1.2475 0.5,-0.8377 1.402,-1.2538 2.702,-1.2538 1.139,0 2.123,0.3135 2.968,0.9343 0.838,0.6214 1.526,1.4647 2.065,2.5186 L 0,0" /></g><g
       transform="translate(81.682,8.2478)"
       id="g28"><path
         id="path30"
         style="fill:#242d3a;fill-opacity:1;fill-rule:nonzero;stroke:none"
         d="m 0,0 c -0.723,-1.658 -1.651,-3.0597 -2.786,-4.2106 -1.142,-1.1565 -2.411,-2.0228 -3.82,-2.6039 -1.412,-0.587 -2.885,-0.8776 -4.418,-0.8776 -2.587,0 -4.532,0.8833 -5.852,2.6552 -0.549,0.7807 -0.867,1.6353 -0.955,2.5812 -0.085,0.9403 -0.035,1.9146 0.165,2.9345 0.194,1.0199 0.528,2.4162 1.005,4.1992 0.478,1.783 0.892,3.179 1.245,4.199 0.348,1.02 0.82,1.994 1.409,2.94 0.594,0.94 1.37,1.795 2.337,2.576 2.27,1.772 4.688,2.655 7.275,2.655 2.336,0 4.138,-0.655 5.398,-1.972 1.26,-1.315 1.762,-3.225 1.504,-5.72 h -4.826 c 0.026,1.054 -0.21,1.897 -0.715,2.519 -0.512,0.62 -1.329,0.934 -2.468,0.934 -1.288,0 -2.415,-0.422 -3.376,-1.265 -0.427,-0.382 -0.778,-0.798 -1.058,-1.248 -0.286,-0.45 -0.58,-1.123 -0.894,-2.017 -0.314,-0.894 -0.67,-2.097 -1.075,-3.607 -0.406,-1.515 -0.694,-2.718 -0.863,-3.6065 -0.176,-0.8889 -0.237,-1.561 -0.193,-2.0171 0.043,-0.4558 0.176,-0.8716 0.4,-1.2475 0.5,-0.8377 1.402,-1.2538 2.702,-1.2538 1.139,0 2.123,0.3135 2.968,0.9343 0.838,0.6214 1.526,1.4647 2.065,2.5186 L 0,0" /></g><g
       transform="translate(101.187,0.75521)"
       id="g32"><path
         id="path34"
         style="fill:#242d3a;fill-opacity:1;fill-rule:nonzero;stroke:none"
         d="m 0,0 h -4.758 l 2.728,10.182 h -8.227 L -12.986,0 h -4.757 l 6.52,24.335 h 4.758 L -9.13,14.387 h 8.227 l 2.666,9.948 H 6.521 L 0,0" /></g><g
       transform="translate(111.281,0.75521)"
       id="g36"><path
         id="path38"
         style="fill:#242d3a;fill-opacity:1;fill-rule:nonzero;stroke:none"
         d="M 0,0 H -4.758 L 1.763,24.335 H 6.521 L 0,0" /></g><g
       transform="translate(135.249,0.75521)"
       id="g40"><path
         id="path42"
         style="fill:#242d3a;fill-opacity:1;fill-rule:nonzero;stroke:none"
         d="M 0,0 H -4.239 L -9.871,14.94 -13.874,0 h -4.758 l 6.521,24.335 h 4.239 L -2.231,9.43 1.763,24.335 H 6.521 L 0,0" /></g><g
       transform="translate(145.343,0.75521)"
       id="g44"><path
         id="path46"
         style="fill:#242d3a;fill-opacity:1;fill-rule:nonzero;stroke:none"
         d="M 0,0 H -4.758 L 1.763,24.335 H 6.521 L 0,0" /></g><g
       transform="translate(167.089,0.70107)"
       id="g48"><path
         id="path50"
         style="fill:#242d3a;fill-opacity:1;fill-rule:nonzero;stroke:none"
         d="M 0,0 H -2.229 L -4.163,7.8851 H -8.426 L -10.538,0 h -1.901 l 4.76,17.762 h 6.816 c 1.027,0 1.884,-0.199 2.581,-0.594 C 2.41,16.768 2.88,16.194 3.119,15.442 3.363,14.693 3.349,13.82 3.084,12.83 2.742,11.553 2.107,10.501 1.173,9.669 0.243,8.8376 -0.835,8.3052 -2.068,8.068 Z m 1.177,12.805 c 0.283,1.056 0.179,1.863 -0.311,2.424 -0.494,0.562 -1.28,0.841 -2.358,0.841 H -6.233 L -7.979,9.553 h 4.741 c 0.682,0 1.326,0.121 1.926,0.357 0.605,0.242 1.122,0.603 1.557,1.094 0.43,0.487 0.74,1.086 0.932,1.801" /></g><g
       transform="translate(181.959,5.5877)"
       id="g52"><path
         id="path54"
         style="fill:#242d3a;fill-opacity:1;fill-rule:nonzero;stroke:none"
         d="M 0,0 C -0.274,-1.0233 -0.767,-1.9171 -1.477,-2.6742 -2.189,-3.435 -3.06,-4.0175 -4.092,-4.4249 -5.12,-4.8285 -6.256,-5.0321 -7.487,-5.0321 c -0.894,0 -1.675,0.0788 -2.34,0.237 -0.665,0.1579 -1.246,0.4076 -1.754,0.7484 -0.503,0.3413 -0.964,0.7945 -1.372,1.3518 l 1.652,1.3056 c 0.35,-0.4779 0.733,-0.8648 1.143,-1.1517 0.409,-0.2871 0.865,-0.4949 1.373,-0.6154 0.508,-0.1207 1.107,-0.1831 1.798,-0.1831 1.309,0 2.411,0.2911 3.312,0.8776 0.902,0.5862 1.487,1.3887 1.761,2.412 0.124,0.4618 0.165,0.894 0.126,1.2935 -0.039,0.3951 -0.168,0.7066 -0.381,0.9357 -0.205,0.2455 -0.445,0.4201 -0.722,0.532 C -3.17,2.8196 -3.629,2.9234 -4.26,3.0192 L -6.244,3.348 c -1.346,0.2203 -2.311,0.6693 -2.904,1.343 -0.688,0.803 -0.839,1.913 -0.46,3.327 0.263,0.982 0.725,1.855 1.384,2.62 0.657,0.761 1.476,1.352 2.453,1.768 0.975,0.411 2.042,0.619 3.193,0.619 1.124,0 2.052,-0.149 2.788,-0.445 0.736,-0.295 1.397,-0.794 1.983,-1.493 L 0.645,9.856 C 0.221,10.368 -0.284,10.751 -0.87,11 c -0.589,0.254 -1.329,0.379 -2.223,0.379 -0.77,0 -1.476,-0.138 -2.115,-0.408 C -5.842,10.697 -6.376,10.318 -6.804,9.823 -7.231,9.332 -7.536,8.754 -7.714,8.089 -7.958,7.178 -7.878,6.496 -7.472,6.043 -7.041,5.556 -6.325,5.232 -5.33,5.066 L -3.474,4.774 C -2.722,4.662 -2.12,4.504 -1.666,4.3044 -1.211,4.1091 -0.841,3.8469 -0.554,3.5184 0.22,2.6824 0.405,1.5097 0,0" /></g><g
       transform="translate(4.445,27.638)"
       id="g56"><path
         id="path58"
         style="fill:#0daa4f;fill-opacity:1;fill-rule:evenodd;stroke:none"
         d="m 0,0 36.791,-0.241 c 11.791,-0.077 23.839,1.622 32.508,4.395 23.319,8.258 45.522,25.039 45.522,25.039 0,0 -15.707,-12.139 -52.701,-21.144 C 26.057,-0.73 0,0 0,0" /></g><g
       transform="translate(64.352,27.461)"
       id="g60"><path
         id="path62"
         style="fill:#ea212c;fill-opacity:1;fill-rule:evenodd;stroke:none"
         d="M 0,0 120.802,0.057 C 91.321,2.073 38.629,3.056 18.349,5.31 13.63,3.631 8.034,0.819 0,0" /></g></g></svg>