<?xml version="1.0" encoding="UTF-8"?>
<svg xmlns="http://www.w3.org/2000/svg" viewBox="0 0 347.4625 27.3680" width="347.4625" height="27.3680" fill="none">
  <path transform="translate(-10.3655,-119.9000)" d="M 350.9310 134.9390 C 349.8860 134.9390 349.0390 134.0920 349.0390 133.0480 L 349.0390 133.0090 C 349.0390 131.9650 349.8860 131.1180 350.9310 131.1180 L 354.6510 131.1180 C 354.6510 131.1180 355.8810 132.6760 356.1840 134.9390 L 350.9310 134.9390 Z M 353.3370 139.1990 C 353.3370 139.6950 352.9350 140.0960 352.4390 140.0960 L 347.9190 140.0960 L 347.9190 141.6260 C 347.9190 143.1910 346.6460 144.4650 345.0810 144.4650 L 344.5680 144.4650 C 343.0030 144.4650 341.7300 143.1910 341.7300 141.6260 L 341.7300 140.0960 L 322.9600 140.0960 L 322.9600 140.4570 C 322.9600 142.6670 321.1620 144.4650 318.9530 144.4650 L 316.3320 144.4650 C 314.1220 144.4650 312.3240 142.6670 312.3240 140.4570 L 312.3240 140.0960 L 296.7640 140.0960 C 296.2690 140.0960 295.8670 139.6950 295.8670 139.1990 L 295.8670 139.1810 C 295.8670 138.6850 296.2690 138.2830 296.7640 138.2830 L 312.3240 138.2830 L 312.3240 133.5190 C 312.3240 131.3100 314.1220 129.5120 316.3320 129.5120 L 318.9530 129.5120 C 321.1620 129.5120 322.9600 131.3100 322.9600 133.5190 L 322.9600 138.2830 L 341.7300 138.2830 L 341.7300 132.3500 C 341.7300 130.7850 343.0030 129.5120 344.5680 129.5120 L 345.0810 129.5120 C 346.6460 129.5120 347.9190 130.7850 347.9190 132.3500 L 347.9190 138.2830 L 352.4390 138.2830 C 352.9350 138.2830 353.3370 138.6850 353.3370 139.1810 L 353.3370 139.1990 Z M 295.7130 133.0090 C 295.7130 131.9650 296.5600 131.1180 297.6050 131.1180 L 300.9510 131.1180 C 301.9960 131.1180 302.8430 131.9650 302.8430 133.0090 L 302.8430 133.0480 C 302.8430 134.0920 301.9960 134.9390 300.9510 134.9390 L 297.6050 134.9390 C 296.5600 134.9390 295.7130 134.0920 295.7130 133.0480 L 295.7130 133.0090 Z M 304.0960 133.0090 C 304.0960 131.9650 304.9430 131.1180 305.9880 131.1180 L 309.3340 131.1180 C 310.3790 131.1180 311.2260 131.9650 311.2260 133.0090 L 311.2260 133.0480 C 311.2260 134.0920 310.3790 134.9390 309.3340 134.9390 L 305.9880 134.9390 C 304.9430 134.9390 304.0960 134.0920 304.0960 133.0480 L 304.0960 133.0090 Z M 331.2210 133.0090 L 331.2210 133.0480 C 331.2210 134.0920 330.3750 134.9390 329.3300 134.9390 L 325.9830 134.9390 C 324.9390 134.9390 324.0920 134.0920 324.0920 133.0480 L 324.0920 133.0090 C 324.0920 131.9650 324.9390 131.1180 325.9830 131.1180 L 329.3300 131.1180 C 330.3750 131.1180 331.2210 131.9650 331.2210 133.0090 Z M 311.1510 125.1370 L 309.7980 125.1370 L 309.7980 123.4490 C 310.0800 123.3470 310.3040 123.1430 310.4410 122.8800 L 336.9190 122.8800 C 337.0550 123.1430 337.2800 123.3470 337.5620 123.4490 L 337.5620 125.1370 L 336.2450 125.1370 C 335.5010 125.1370 334.8980 125.7400 334.8980 126.4840 L 334.8980 126.4980 L 312.4980 126.4980 L 312.4980 126.4840 C 312.4980 125.7400 311.8950 125.1370 311.1510 125.1370 Z M 274.6980 125.1370 C 273.9540 125.1370 273.3510 125.7400 273.3510 126.4840 L 273.3510 126.4980 L 255.4780 126.4980 L 255.4780 126.4840 C 255.4780 125.7400 254.8750 125.1370 254.1310 125.1370 L 252.7780 125.1370 L 252.7780 123.4490 C 253.0600 123.3470 253.2840 123.1430 253.4210 122.8800 L 275.3720 122.8800 C 275.5080 123.1430 275.7330 123.3470 276.0150 123.4490 L 276.0150 125.1370 L 274.6980 125.1370 Z M 281.0620 131.3160 L 284.4090 131.3160 C 285.4530 131.3160 286.3000 132.1630 286.3000 133.2070 L 286.3000 133.2450 C 286.3000 134.2900 285.4530 135.1370 284.4090 135.1370 L 281.0620 135.1370 C 280.0180 135.1370 279.1710 134.2900 279.1710 133.2450 L 279.1710 133.2070 C 279.1710 132.1630 280.0180 131.3160 281.0620 131.3160 Z M 270.7880 133.2450 L 270.7880 133.2070 C 270.7880 132.1630 271.6350 131.3160 272.6790 131.3160 L 276.0260 131.3160 C 277.0710 131.3160 277.9170 132.1630 277.9170 133.2070 L 277.9170 133.2450 C 277.9170 134.2900 277.0710 135.1370 276.0260 135.1370 L 272.6790 135.1370 C 271.6350 135.1370 270.7880 134.2900 270.7880 133.2450 Z M 286.1140 139.3960 C 286.1140 139.8920 285.7120 140.2940 285.2160 140.2940 L 269.6560 140.2940 L 269.6560 140.6550 C 269.6560 142.8650 267.8580 144.6620 265.6480 144.6620 L 263.0280 144.6620 C 260.8180 144.6620 259.0200 142.8650 259.0200 140.6550 L 259.0200 140.2940 L 243.4600 140.2940 C 242.9650 140.2940 242.5630 139.8920 242.5630 139.3960 L 242.5630 139.3780 C 242.5630 138.8830 242.9650 138.4810 243.4600 138.4810 L 259.0200 138.4810 L 259.0200 133.7170 C 259.0200 131.5070 260.8180 129.7100 263.0280 129.7100 L 265.6480 129.7100 C 267.8580 129.7100 269.6560 131.5070 269.6560 133.7170 L 269.6560 138.4810 L 285.2160 138.4810 C 285.7120 138.4810 286.1140 138.8830 286.1140 139.3780 L 286.1140 139.3960 Z M 242.4090 133.2070 C 242.4090 132.1630 243.2560 131.3160 244.3010 131.3160 L 247.6470 131.3160 C 248.6920 131.3160 249.5390 132.1630 249.5390 133.2070 L 249.5390 133.2450 C 249.5390 134.2900 248.6920 135.1370 247.6470 135.1370 L 244.3010 135.1370 C 243.2560 135.1370 242.4090 134.2900 242.4090 133.2450 L 242.4090 133.2070 Z M 252.6840 131.3160 L 256.0300 131.3160 C 257.0750 131.3160 257.9220 132.1630 257.9220 133.2070 L 257.9220 133.2450 C 257.9220 134.2900 257.0750 135.1370 256.0300 135.1370 L 252.6840 135.1370 C 251.6390 135.1370 250.7920 134.2900 250.7920 133.2450 L 250.7920 133.2070 C 250.7920 132.1630 251.6390 131.3160 252.6840 131.3160 Z M 221.2000 125.1370 C 220.4560 125.1370 219.8530 125.7400 219.8530 126.4840 L 219.8530 126.4980 L 201.9800 126.4980 L 201.9800 126.4840 C 201.9800 125.7400 201.3770 125.1370 200.6330 125.1370 L 199.2800 125.1370 L 199.2800 123.4510 C 199.5660 123.3500 199.7940 123.1460 199.9320 122.8800 L 221.8830 122.8800 C 222.0180 123.1410 222.2390 123.3440 222.5170 123.4480 L 222.5170 125.1370 L 221.2000 125.1370 Z M 227.5650 131.3160 L 230.9110 131.3160 C 231.9560 131.3160 232.8030 132.1630 232.8030 133.2070 L 232.8030 133.2450 C 232.8030 134.2900 231.9560 135.1370 230.9110 135.1370 L 227.5650 135.1370 C 226.5200 135.1370 225.6730 134.2900 225.6730 133.2450 L 225.6730 133.2070 C 225.6730 132.1630 226.5200 131.3160 227.5650 131.3160 Z M 217.2900 133.2450 L 217.2900 133.2070 C 217.2900 132.1630 218.1370 131.3160 219.1820 131.3160 L 222.5280 131.3160 C 223.5730 131.3160 224.4200 132.1630 224.4200 133.2070 L 224.4200 133.2450 C 224.4200 134.2900 223.5730 135.1370 222.5280 135.1370 L 219.1820 135.1370 C 218.1370 135.1370 217.2900 134.2900 217.2900 133.2450 Z M 232.6160 139.3960 C 232.6160 139.8920 232.2140 140.2940 231.7180 140.2940 L 216.1580 140.2940 L 216.1580 140.6550 C 216.1580 142.8650 214.3610 144.6620 212.1510 144.6620 L 209.5300 144.6620 C 207.3200 144.6620 205.5230 142.8650 205.5230 140.6550 L 205.5230 140.2940 L 189.9630 140.2940 C 189.4670 140.2940 189.0650 139.8920 189.0650 139.3960 L 189.0650 139.3780 C 189.0650 138.8830 189.4670 138.4810 189.9630 138.4810 L 205.5230 138.4810 L 205.5230 133.7170 C 205.5230 131.5070 207.3200 129.7100 209.5300 129.7100 L 212.1510 129.7100 C 214.3610 129.7100 216.1580 131.5070 216.1580 133.7170 L 216.1580 138.4810 L 231.7180 138.4810 C 232.2140 138.4810 232.6160 138.8830 232.6160 139.3780 L 232.6160 139.3960 Z M 188.9120 133.2070 C 188.9120 132.1630 189.7580 131.3160 190.8030 131.3160 L 194.1500 131.3160 C 195.1940 131.3160 196.0410 132.1630 196.0410 133.2070 L 196.0410 133.2450 C 196.0410 134.2900 195.1940 135.1370 194.1500 135.1370 L 190.8030 135.1370 C 189.7580 135.1370 188.9120 134.2900 188.9120 133.2450 L 188.9120 133.2070 Z M 199.1860 131.3160 L 202.5320 131.3160 C 203.5770 131.3160 204.4240 132.1630 204.4240 133.2070 L 204.4240 133.2450 C 204.4240 134.2900 203.5770 135.1370 202.5320 135.1370 L 199.1860 135.1370 C 198.1410 135.1370 197.2940 134.2900 197.2940 133.2450 L 197.2940 133.2070 C 197.2940 132.1630 198.1410 131.3160 199.1860 131.3160 Z M 167.6810 125.1370 C 166.9370 125.1370 166.3340 125.7400 166.3340 126.4840 L 166.3340 126.4980 L 148.4610 126.4980 L 148.4610 126.4840 C 148.4610 125.7400 147.8580 125.1370 147.1140 125.1370 L 145.7620 125.1370 L 145.7620 123.4510 C 146.0470 123.3490 146.2740 123.1450 146.4120 122.8800 L 168.3630 122.8800 C 168.4990 123.1410 168.7200 123.3440 168.9980 123.4480 L 168.9980 125.1370 L 167.6810 125.1370 Z M 174.0460 131.3160 L 177.3920 131.3160 C 178.4370 131.3160 179.2840 132.1630 179.2840 133.2070 L 179.2840 133.2450 C 179.2840 134.2900 178.4370 135.1370 177.3920 135.1370 L 174.0460 135.1370 C 173.0010 135.1370 172.1540 134.2900 172.1540 133.2450 L 172.1540 133.2070 C 172.1540 132.1630 173.0010 131.3160 174.0460 131.3160 Z M 163.7710 133.2450 L 163.7710 133.2070 C 163.7710 132.1630 164.6180 131.3160 165.6630 131.3160 L 169.0090 131.3160 C 170.0540 131.3160 170.9010 132.1630 170.9010 133.2070 L 170.9010 133.2450 C 170.9010 134.2900 170.0540 135.1370 169.0090 135.1370 L 165.6630 135.1370 C 164.6180 135.1370 163.7710 134.2900 163.7710 133.2450 Z M 179.0970 139.3960 C 179.0970 139.8920 178.6950 140.2940 178.1990 140.2940 L 162.6390 140.2940 L 162.6390 140.6550 C 162.6390 142.8650 160.8420 144.6620 158.6320 144.6620 L 156.0110 144.6620 C 153.8020 144.6620 152.0040 142.8650 152.0040 140.6550 L 152.0040 140.2940 L 136.4440 140.2940 C 135.9480 140.2940 135.5460 139.8920 135.5460 139.3960 L 135.5460 139.3780 C 135.5460 138.8830 135.9480 138.4810 136.4440 138.4810 L 152.0040 138.4810 L 152.0040 133.7170 C 152.0040 131.5070 153.8020 129.7100 156.0110 129.7100 L 158.6320 129.7100 C 160.8420 129.7100 162.6390 131.5070 162.6390 133.7170 L 162.6390 138.4810 L 178.1990 138.4810 C 178.6950 138.4810 179.0970 138.8830 179.0970 139.3780 L 179.0970 139.3960 Z M 135.3930 133.2070 C 135.3930 132.1630 136.2400 131.3160 137.2840 131.3160 L 140.6310 131.3160 C 141.6750 131.3160 142.5220 132.1630 142.5220 133.2070 L 142.5220 133.2450 C 142.5220 134.2900 141.6750 135.1370 140.6310 135.1370 L 137.2840 135.1370 C 136.2400 135.1370 135.3930 134.2900 135.3930 133.2450 L 135.3930 133.2070 Z M 145.6670 131.3160 L 149.0140 131.3160 C 150.0580 131.3160 150.9050 132.1630 150.9050 133.2070 L 150.9050 133.2450 C 150.9050 134.2900 150.0580 135.1370 149.0140 135.1370 L 145.6670 135.1370 C 144.6230 135.1370 143.7760 134.2900 143.7760 133.2450 L 143.7760 133.2070 C 143.7760 132.1630 144.6230 131.3160 145.6670 131.3160 Z M 114.1900 125.1370 C 113.4460 125.1370 112.8430 125.7400 112.8430 126.4840 L 112.8430 126.4980 L 94.9703 126.4980 L 94.9703 126.4840 C 94.9703 125.7400 94.3672 125.1370 93.6232 125.1370 L 92.2705 125.1370 L 92.2705 123.4500 C 92.5528 123.3470 92.7778 123.1440 92.9149 122.8800 L 114.8650 122.8800 C 115.0020 123.1430 115.2260 123.3460 115.5070 123.4490 L 115.5070 125.1370 L 114.1900 125.1370 Z M 120.5550 131.3160 L 123.9010 131.3160 C 124.9460 131.3160 125.7930 132.1630 125.7930 133.2070 L 125.7930 133.2450 C 125.7930 134.2900 124.9460 135.1370 123.9010 135.1370 L 120.5550 135.1370 C 119.5100 135.1370 118.6630 134.2900 118.6630 133.2450 L 118.6630 133.2070 C 118.6630 132.1630 119.5100 131.3160 120.5550 131.3160 Z M 110.2800 133.2450 L 110.2800 133.2070 C 110.2800 132.1630 111.1270 131.3160 112.1720 131.3160 L 115.5180 131.3160 C 116.5630 131.3160 117.4100 132.1630 117.4100 133.2070 L 117.4100 133.2450 C 117.4100 134.2900 116.5630 135.1370 115.5180 135.1370 L 112.1720 135.1370 C 111.1270 135.1370 110.2800 134.2900 110.2800 133.2450 Z M 125.6060 139.3960 C 125.6060 139.8920 125.2040 140.2940 124.7080 140.2940 L 109.1480 140.2940 L 109.1480 140.6550 C 109.1480 142.8650 107.3510 144.6620 105.1410 144.6620 L 102.5200 144.6620 C 100.3100 144.6620 98.5128 142.8650 98.5128 140.6550 L 98.5128 140.2940 L 82.9528 140.2940 C 82.4570 140.2940 82.0550 139.8920 82.0550 139.3960 L 82.0550 139.3780 C 82.0550 138.8830 82.4570 138.4810 82.9528 138.4810 L 98.5128 138.4810 L 98.5128 133.7170 C 98.5128 131.5070 100.3100 129.7100 102.5200 129.7100 L 105.1410 129.7100 C 107.3510 129.7100 109.1480 131.5070 109.1480 133.7170 L 109.1480 138.4810 L 124.7080 138.4810 C 125.2040 138.4810 125.6060 138.8830 125.6060 139.3780 L 125.6060 139.3960 Z M 81.9017 133.2070 C 81.9017 132.1630 82.7486 131.3160 83.7933 131.3160 L 87.1398 131.3160 C 88.1844 131.3160 89.0313 132.1630 89.0313 133.2070 L 89.0313 133.2450 C 89.0313 134.2900 88.1844 135.1370 87.1398 135.1370 L 83.7933 135.1370 C 82.7486 135.1370 81.9017 134.2900 81.9017 133.2450 L 81.9017 133.2070 Z M 92.1761 131.3160 L 95.5226 131.3160 C 96.5673 131.3160 97.4142 132.1630 97.4142 133.2070 L 97.4142 133.2450 C 97.4142 134.2900 96.5673 135.1370 95.5226 135.1370 L 92.1761 135.1370 C 91.1315 135.1370 90.2847 134.2900 90.2847 133.2450 L 90.2847 133.2070 C 90.2847 132.1630 91.1315 131.3160 92.1761 131.3160 Z M 56.4228 125.1370 C 55.6788 125.1370 55.0757 125.7400 55.0757 126.4840 L 55.0757 126.4980 L 37.2031 126.4980 L 37.2031 126.4840 C 37.2031 125.7400 36.5999 125.1370 35.8560 125.1370 L 34.5032 125.1370 L 34.5032 123.4490 C 34.7850 123.3470 35.0093 123.1430 35.1462 122.8800 L 57.0967 122.8800 C 57.2336 123.1430 57.4579 123.3470 57.7397 123.4490 L 57.7397 125.1370 L 56.4228 125.1370 Z M 62.2061 131.1180 C 63.2507 131.1180 64.0976 131.9650 64.0976 133.0090 L 64.0976 133.0480 C 64.0976 134.0920 63.2507 134.9390 62.2061 134.9390 L 58.8596 134.9390 C 57.8149 134.9390 56.9681 134.0920 56.9681 133.0480 L 56.9681 133.0090 C 56.9681 131.9650 57.8149 131.1180 58.8596 131.1180 L 62.2061 131.1180 Z M 65.3509 133.0090 C 65.3509 131.9650 66.1978 131.1180 67.2424 131.1180 L 70.5889 131.1180 C 71.6336 131.1180 72.4805 131.9650 72.4805 133.0090 L 72.4805 133.0480 C 72.4805 134.0920 71.6336 134.9390 70.5889 134.9390 L 67.2424 134.9390 C 66.1978 134.9390 65.3509 134.0920 65.3509 133.0480 L 65.3509 133.0090 Z M 72.3273 139.1990 C 72.3273 139.6950 71.9253 140.0960 71.4294 140.0960 L 55.8695 140.0960 L 55.8695 140.4570 C 55.8695 142.6670 54.0718 144.4650 51.8619 144.4650 L 49.2413 144.4650 C 47.0316 144.4650 45.2338 142.6670 45.2338 140.4570 L 45.2338 140.0960 L 26.4637 140.0960 L 26.4637 141.6260 C 26.4637 143.1910 25.1904 144.4650 23.6257 144.4650 L 23.1129 144.4650 C 21.5482 144.4650 20.2749 143.1910 20.2749 141.6260 L 20.2749 140.0960 L 15.7548 140.0960 C 15.2590 140.0960 14.8570 139.6950 14.8570 139.1990 L 14.8570 139.1810 C 14.8570 138.6850 15.2590 138.2830 15.7548 138.2830 L 20.2749 138.2830 L 20.2749 132.3500 C 20.2749 130.7850 21.5482 129.5120 23.1129 129.5120 L 23.6257 129.5120 C 25.1904 129.5120 26.4637 130.7850 26.4637 132.3500 L 26.4637 138.2830 L 45.2338 138.2830 L 45.2338 133.5190 C 45.2338 131.3100 47.0316 129.5120 49.2413 129.5120 L 51.8619 129.5120 C 54.0718 129.5120 55.8695 131.3100 55.8695 133.5190 L 55.8695 138.2830 L 71.4294 138.2830 C 71.9253 138.2830 72.3273 138.6850 72.3273 139.1810 L 72.3273 139.1990 Z M 12.0096 134.9390 C 12.3131 132.6760 13.5431 131.1180 13.5431 131.1180 L 17.2630 131.1180 C 18.3077 131.1180 19.1545 131.9650 19.1545 133.0090 L 19.1545 133.0480 C 19.1545 134.0920 18.3077 134.9390 17.2630 134.9390 L 12.0096 134.9390 Z M 28.5895 133.0090 C 28.5895 131.9650 29.4363 131.1180 30.4810 131.1180 L 33.8275 131.1180 C 34.8721 131.1180 35.7190 131.9650 35.7190 133.0090 L 35.7190 133.0480 C 35.7190 134.0920 34.8721 134.9390 33.8275 134.9390 L 30.4810 134.9390 C 29.4363 134.9390 28.5895 134.0920 28.5895 133.0480 L 28.5895 133.0090 Z M 36.9724 133.0090 C 36.9724 131.9650 37.8192 131.1180 38.8639 131.1180 L 42.2104 131.1180 C 43.2551 131.1180 44.1019 131.9650 44.1019 133.0090 L 44.1019 133.0480 C 44.1019 134.0920 43.2551 134.9390 42.2104 134.9390 L 38.8639 134.9390 C 37.8192 134.9390 36.9724 134.0920 36.9724 133.0480 L 36.9724 133.0090 Z M 339.6040 133.0090 L 339.6040 133.0480 C 339.6040 134.0920 338.7580 134.9390 337.7130 134.9390 L 334.3660 134.9390 C 333.3220 134.9390 332.4750 134.0920 332.4750 133.0480 L 332.4750 133.0090 C 332.4750 131.9650 333.3220 131.1180 334.3660 131.1180 L 337.7130 131.1180 C 338.7580 131.1180 339.6040 131.9650 339.6040 133.0090 Z M 347.0420 126.4980 L 341.1280 126.4980 L 341.1280 126.4840 C 341.1280 125.7400 340.5250 125.1370 339.7810 125.1370 L 338.3920 125.1370 L 338.3920 123.4490 C 338.6740 123.3470 338.8980 123.1430 339.0350 122.8800 L 353.9020 122.8800 C 354.2690 122.8800 354.5670 122.5820 354.5670 122.2150 C 354.5670 121.8480 354.2690 121.5510 353.9020 121.5510 L 339.0350 121.5510 C 338.8360 121.1690 338.4490 120.9000 337.9890 120.9000 L 337.9650 120.9000 C 337.5050 120.9000 337.1170 121.1690 336.9190 121.5510 L 310.4410 121.5510 C 310.2430 121.1690 309.8550 120.9000 309.3950 120.9000 L 309.3710 120.9000 C 308.9110 120.9000 308.5230 121.1690 308.3250 121.5510 L 277.4880 121.5510 C 277.2890 121.1690 276.9020 120.9000 276.4420 120.9000 L 276.4180 120.9000 C 275.9580 120.9000 275.5700 121.1690 275.3720 121.5510 L 253.4210 121.5510 C 253.2220 121.1690 252.8350 120.9000 252.3750 120.9000 L 252.3510 120.9000 C 251.8910 120.9000 251.5030 121.1690 251.3050 121.5510 L 223.9990 121.5510 C 223.8000 121.1690 223.4130 120.9000 222.9530 120.9000 L 222.9290 120.9000 C 222.4690 120.9000 222.0810 121.1690 221.8830 121.5510 L 199.9320 121.5510 C 199.7330 121.1690 199.3460 120.9000 198.8860 120.9000 L 198.8620 120.9000 C 198.4010 120.9000 198.0140 121.1690 197.8150 121.5510 L 170.4790 121.5510 C 170.2810 121.1690 169.8930 120.9000 169.4330 120.9000 L 169.4090 120.9000 C 168.9490 120.9000 168.5620 121.1690 168.3630 121.5510 L 146.4120 121.5510 C 146.2140 121.1690 145.8260 120.9000 145.3660 120.9000 L 145.3420 120.9000 C 144.8820 120.9000 144.4950 121.1690 144.2960 121.5510 L 116.9820 121.5510 C 116.7830 121.1690 116.3960 120.9000 115.9360 120.9000 L 115.9120 120.9000 C 115.4510 120.9000 115.0640 121.1690 114.8650 121.5510 L 92.9147 121.5510 C 92.7161 121.1690 92.3287 120.9000 91.8685 120.9000 L 91.8444 120.9000 C 91.3843 120.9000 90.9969 121.1690 90.7982 121.5510 L 59.2133 121.5510 C 59.0146 121.1690 58.6273 120.9000 58.1671 120.9000 L 58.1430 120.9000 C 57.6829 120.9000 57.2955 121.1690 57.0968 121.5510 L 35.1461 121.5510 C 34.9474 121.1690 34.5601 120.9000 34.0999 120.9000 L 34.0759 120.9000 C 33.6157 120.9000 33.2283 121.1690 33.0297 121.5510 L 13.7330 121.5510 C 13.3660 121.5510 13.0685 121.8480 13.0685 122.2150 C 13.0685 122.5820 13.3660 122.8800 13.7330 122.8800 L 33.0295 122.8800 C 33.1664 123.1430 33.3907 123.3470 33.6725 123.4490 L 33.6725 125.1370 L 32.3198 125.1370 C 31.5759 125.1370 30.9727 125.7400 30.9727 126.4840 L 30.9727 126.4980 L 21.1522 126.4980 C 15.7472 126.4980 11.3655 130.8790 11.3655 136.2840 L 11.3655 136.4820 C 11.3655 141.8870 15.7472 146.2680 21.1522 146.2680 L 66.2912 146.2680 C 71.6962 146.2680 76.0778 141.8870 76.0778 136.4820 L 76.0778 136.2840 C 76.0778 130.8790 71.6962 126.4980 66.2912 126.4980 L 61.3060 126.4980 L 61.3060 126.4840 C 61.3060 125.7400 60.7029 125.1370 59.9589 125.1370 L 58.5704 125.1370 L 58.5704 123.4490 C 58.8522 123.3470 59.0765 123.1430 59.2134 122.8800 L 90.7981 122.8800 C 90.9348 123.1430 91.1586 123.3460 91.4398 123.4490 L 91.4398 125.1370 L 90.0870 125.1370 C 89.3431 125.1370 88.7400 125.7400 88.7400 126.4840 L 88.7400 126.4980 L 88.0834 126.4980 C 82.6784 126.4980 78.2968 130.8790 78.2968 136.2840 L 78.2968 136.4820 C 78.2968 141.8870 82.6784 146.2680 88.0834 146.2680 L 119.5960 146.2680 C 125.0010 146.2680 129.3820 141.8870 129.3820 136.4820 L 129.3820 136.2840 C 129.3820 130.8790 125.0010 126.4980 119.5960 126.4980 L 119.0730 126.4980 L 119.0730 126.4840 C 119.0730 125.7400 118.4700 125.1370 117.7260 125.1370 L 116.3380 125.1370 L 116.3380 123.4500 C 116.6200 123.3470 116.8450 123.1440 116.9820 122.8800 L 144.2960 122.8800 C 144.4310 123.1410 144.6520 123.3440 144.9310 123.4480 L 144.9310 125.1370 L 143.5780 125.1370 C 142.8340 125.1370 142.2310 125.7400 142.2310 126.4840 L 142.2310 126.4980 L 141.5740 126.4980 C 136.1690 126.4980 131.7880 130.8790 131.7880 136.2840 L 131.7880 136.4820 C 131.7880 141.8870 136.1690 146.2680 141.5740 146.2680 L 173.0870 146.2680 C 178.4920 146.2680 182.8730 141.8870 182.8730 136.4820 L 182.8730 136.2840 C 182.8730 130.8790 178.4920 126.4980 173.0870 126.4980 L 172.5640 126.4980 L 172.5640 126.4840 C 172.5640 125.7400 171.9610 125.1370 171.2170 125.1370 L 169.8290 125.1370 L 169.8290 123.4510 C 170.1140 123.3500 170.3410 123.1460 170.4800 122.8800 L 197.8150 122.8800 C 197.9510 123.1410 198.1720 123.3440 198.4500 123.4480 L 198.4500 125.1370 L 197.0970 125.1370 C 196.3530 125.1370 195.7500 125.7400 195.7500 126.4840 L 195.7500 126.4980 L 195.0930 126.4980 C 189.6880 126.4980 185.3070 130.8790 185.3070 136.2840 L 185.3070 136.4820 C 185.3070 141.8870 189.6880 146.2680 195.0930 146.2680 L 226.6060 146.2680 C 232.0110 146.2680 236.3920 141.8870 236.3920 136.4820 L 236.3920 136.2840 C 236.3920 130.8790 232.0110 126.4980 226.6060 126.4980 L 226.0830 126.4980 L 226.0830 126.4840 C 226.0830 125.7400 225.4800 125.1370 224.7360 125.1370 L 223.3470 125.1370 L 223.3470 123.4510 C 223.6330 123.3500 223.8610 123.1460 223.9990 122.8800 L 251.3040 122.8800 C 251.4410 123.1430 251.6660 123.3470 251.9470 123.4490 L 251.9470 125.1370 L 250.5950 125.1370 C 249.8510 125.1370 249.2480 125.7400 249.2480 126.4840 L 249.2480 126.4980 L 248.5910 126.4980 C 243.1860 126.4980 238.8040 130.8790 238.8040 136.2840 L 238.8040 136.4820 C 238.8040 141.8870 243.1860 146.2680 248.5910 146.2680 L 280.1030 146.2680 C 285.5080 146.2680 289.8900 141.8870 289.8900 136.4820 L 289.8900 136.2840 C 289.8900 130.8790 285.5080 126.4980 280.1030 126.4980 L 279.5810 126.4980 L 279.5810 126.4840 C 279.5810 125.7400 278.9780 125.1370 278.2340 125.1370 L 276.8450 125.1370 L 276.8450 123.4490 C 277.1270 123.3470 277.3510 123.1430 277.4880 122.8800 L 308.3250 122.8800 C 308.4620 123.1430 308.6860 123.3470 308.9680 123.4490 L 308.9680 125.1370 L 307.6150 125.1370 C 306.8710 125.1370 306.2680 125.7400 306.2680 126.4840 L 306.2680 126.4980 L 301.9030 126.4980 C 296.4980 126.4980 292.1160 130.8790 292.1160 136.2840 L 292.1160 136.4820 C 292.1160 141.8870 296.4980 146.2680 301.9030 146.2680 L 347.0420 146.2680 C 352.4470 146.2680 356.8280 141.8870 356.8280 136.4820 L 356.8280 136.2840 C 356.8280 130.8790 352.4470 126.4980 347.0420 126.4980 Z" fill="#242d3a"/>
  <path transform="translate(-10.3655,-119.9000)" d="M 346.2780 134.2200 C 346.2780 135.0150 345.6340 135.6590 344.8390 135.6590 L 344.8100 135.6590 C 344.0150 135.6590 343.3710 135.0150 343.3710 134.2200 L 343.3710 132.9720 C 343.3710 132.1780 344.0150 131.5330 344.8100 131.5330 L 344.8390 131.5330 C 345.6340 131.5330 346.2780 132.1780 346.2780 132.9720 L 346.2780 134.2200 Z M 345.0810 129.8440 L 344.5680 129.8440 C 343.1860 129.8440 342.0620 130.9680 342.0620 132.3500 L 342.0620 138.2830 L 347.5870 138.2830 L 347.5870 132.3500 C 347.5870 130.9680 346.4630 129.8440 345.0810 129.8440 Z" fill="#242d3a"/>
  <path transform="translate(-10.3655,-119.9000)" d="M 24.8230 134.2200 C 24.8230 135.0150 24.1786 135.6590 23.3839 135.6590 L 23.3548 135.6590 C 22.5599 135.6590 21.9156 135.0150 21.9156 134.2200 L 21.9156 132.9720 C 21.9156 132.1780 22.5599 131.5330 23.3548 131.5330 L 23.3839 131.5330 C 24.1786 131.5330 24.8230 132.1780 24.8230 132.9720 L 24.8230 134.2200 Z M 23.6257 129.8440 L 23.1129 129.8440 C 21.7313 129.8440 20.6072 130.9680 20.6072 132.3500 L 20.6072 138.2830 L 26.1314 138.2830 L 26.1314 132.3500 C 26.1314 130.9680 25.0073 129.8440 23.6257 129.8440 Z" fill="#242d3a"/>
  <path transform="translate(-10.3655,-119.9000)" d="M 321.9720 140.0260 C 321.9720 141.8830 320.4660 143.3890 318.6080 143.3890 L 318.5690 143.3890 C 318.2610 143.3890 318.0120 143.1400 318.0120 142.8320 L 318.0120 131.1440 C 318.0120 130.8370 318.2610 130.5880 318.5690 130.5880 L 318.6080 130.5880 C 320.4660 130.5880 321.9720 132.0930 321.9720 133.9510 L 321.9720 140.0260 Z M 317.2720 142.8320 C 317.2720 143.1400 317.0230 143.3890 316.7160 143.3890 L 316.6760 143.3890 C 314.8180 143.3890 313.3130 141.8830 313.3130 140.0260 L 313.3130 133.9510 C 313.3130 132.0930 314.8180 130.5880 316.6760 130.5880 L 316.7160 130.5880 C 317.0230 130.5880 317.2720 130.8370 317.2720 131.1440 L 317.2720 142.8320 Z M 318.9530 129.8440 L 316.3320 129.8440 C 314.3050 129.8440 312.6570 131.4930 312.6570 133.5190 L 312.6570 140.4570 C 312.6570 142.4840 314.3050 144.1330 316.3320 144.1330 L 318.9530 144.1330 C 320.9790 144.1330 322.6280 142.4840 322.6280 140.4570 L 322.6280 133.5190 C 322.6280 131.4930 320.9790 129.8440 318.9530 129.8440 Z" fill="#242d3a"/>
  <path transform="translate(-10.3655,-119.9000)" d="M 54.8811 140.0260 C 54.8811 141.8830 53.3753 143.3890 51.5178 143.3890 L 51.4781 143.3890 C 51.1707 143.3890 50.9214 143.1400 50.9214 142.8320 L 50.9214 131.1440 C 50.9214 130.8370 51.1707 130.5880 51.4781 130.5880 L 51.5178 130.5880 C 53.3753 130.5880 54.8811 132.0930 54.8811 133.9510 L 54.8811 140.0260 Z M 50.1819 142.8320 C 50.1819 143.1400 49.9326 143.3890 49.6251 143.3890 L 49.5856 143.3890 C 47.7280 143.3890 46.2222 141.8830 46.2222 140.0260 L 46.2222 133.9510 C 46.2222 132.0930 47.7280 130.5880 49.5856 130.5880 L 49.6251 130.5880 C 49.9326 130.5880 50.1819 130.8370 50.1819 131.1440 L 50.1819 142.8320 Z M 51.8619 129.8440 L 49.2413 129.8440 C 47.2145 129.8440 45.5661 131.4930 45.5661 133.5190 L 45.5661 140.4570 C 45.5661 142.4840 47.2145 144.1330 49.2413 144.1330 L 51.8619 144.1330 C 53.8887 144.1330 55.5372 142.4840 55.5372 140.4570 L 55.5372 133.5190 C 55.5372 131.4930 53.8887 129.8440 51.8619 129.8440 Z" fill="#242d3a"/>
  <path transform="translate(-10.3655,-119.9000)" d="M 215.0930 140.1260 C 215.0930 141.9510 213.6140 143.4300 211.7890 143.4300 L 211.7500 143.4300 C 211.4480 143.4300 211.2030 143.1850 211.2030 142.8830 L 211.2030 131.4030 C 211.2030 131.1010 211.4480 130.8560 211.7500 130.8560 L 211.7890 130.8560 C 213.6140 130.8560 215.0930 132.3350 215.0930 134.1590 L 215.0930 140.1260 Z M 210.4770 142.8830 C 210.4770 143.1850 210.2320 143.4300 209.9300 143.4300 L 209.8910 143.4300 C 208.0670 143.4300 206.5880 141.9510 206.5880 140.1260 L 206.5880 134.1590 C 206.5880 132.3350 208.0670 130.8560 209.8910 130.8560 L 209.9300 130.8560 C 210.2320 130.8560 210.4770 131.1010 210.4770 131.4030 L 210.4770 142.8830 Z M 212.1270 130.1260 L 209.5530 130.1260 C 207.5630 130.1260 205.9440 131.7450 205.9440 133.7350 L 205.9440 140.5500 C 205.9440 142.5400 207.5630 144.1600 209.5530 144.1600 L 212.1270 144.1600 C 214.1180 144.1600 215.7370 142.5400 215.7370 140.5500 L 215.7370 133.7350 C 215.7370 131.7450 214.1180 130.1260 212.1270 130.1260 Z" fill="#242d3a"/>
  <path transform="translate(-10.3655,-119.9000)" d="M 161.5740 140.1260 C 161.5740 141.9510 160.0950 143.4300 158.2710 143.4300 L 158.2320 143.4300 C 157.9300 143.4300 157.6850 143.1850 157.6850 142.8830 L 157.6850 131.4030 C 157.6850 131.1010 157.9300 130.8560 158.2320 130.8560 L 158.2710 130.8560 C 160.0950 130.8560 161.5740 132.3350 161.5740 134.1590 L 161.5740 140.1260 Z M 156.9580 142.8830 C 156.9580 143.1850 156.7140 143.4300 156.4120 143.4300 L 156.3730 143.4300 C 154.5480 143.4300 153.0690 141.9510 153.0690 140.1260 L 153.0690 134.1590 C 153.0690 132.3350 154.5480 130.8560 156.3730 130.8560 L 156.4120 130.8560 C 156.7140 130.8560 156.9580 131.1010 156.9580 131.4030 L 156.9580 142.8830 Z M 158.6090 130.1260 L 156.0350 130.1260 C 154.0440 130.1260 152.4250 131.7450 152.4250 133.7350 L 152.4250 140.5500 C 152.4250 142.5400 154.0440 144.1600 156.0350 144.1600 L 158.6090 144.1600 C 160.5990 144.1600 162.2190 142.5400 162.2190 140.5500 L 162.2190 133.7350 C 162.2190 131.7450 160.5990 130.1260 158.6090 130.1260 Z" fill="#242d3a"/>
  <path transform="translate(-10.3655,-119.9000)" d="M 108.0830 140.1260 C 108.0830 141.9510 106.6040 143.4300 104.7790 143.4300 L 104.7410 143.4300 C 104.4390 143.4300 104.1940 143.1850 104.1940 142.8830 L 104.1940 131.4030 C 104.1940 131.1010 104.4390 130.8560 104.7410 130.8560 L 104.7790 130.8560 C 106.6040 130.8560 108.0830 132.3350 108.0830 134.1590 L 108.0830 140.1260 Z M 103.4670 142.8830 C 103.4670 143.1850 103.2230 143.4300 102.9200 143.4300 L 102.8820 143.4300 C 101.0570 143.4300 99.5781 141.9510 99.5781 140.1260 L 99.5781 134.1590 C 99.5781 132.3350 101.0570 130.8560 102.8820 130.8560 L 102.9200 130.8560 C 103.2230 130.8560 103.4670 131.1010 103.4670 131.4030 L 103.4670 142.8830 Z M 105.1180 130.1260 L 102.5440 130.1260 C 100.5530 130.1260 98.9337 131.7450 98.9337 133.7350 L 98.9337 140.5500 C 98.9337 142.5400 100.5530 144.1600 102.5440 144.1600 L 105.1180 144.1600 C 107.1080 144.1600 108.7270 142.5400 108.7270 140.5500 L 108.7270 133.7350 C 108.7270 131.7450 107.1080 130.1260 105.1180 130.1260 Z" fill="#242d3a"/>
  <path transform="translate(-10.3655,-119.9000)" d="M 268.5910 140.1260 C 268.5910 141.9510 267.1120 143.4300 265.2870 143.4300 L 265.2480 143.4300 C 264.9460 143.4300 264.7010 143.1850 264.7010 142.8830 L 264.7010 131.4030 C 264.7010 131.1010 264.9460 130.8560 265.2480 130.8560 L 265.2870 130.8560 C 267.1120 130.8560 268.5910 132.3350 268.5910 134.1590 L 268.5910 140.1260 Z M 263.9750 142.8830 C 263.9750 143.1850 263.7300 143.4300 263.4280 143.4300 L 263.3890 143.4300 C 261.5650 143.4300 260.0860 141.9510 260.0860 140.1260 L 260.0860 134.1590 C 260.0860 132.3350 261.5650 130.8560 263.3890 130.8560 L 263.4280 130.8560 C 263.7300 130.8560 263.9750 131.1010 263.9750 131.4030 L 263.9750 142.8830 Z M 265.6250 130.1260 L 263.0510 130.1260 C 261.0600 130.1260 259.4410 131.7450 259.4410 133.7350 L 259.4410 140.5500 C 259.4410 142.5400 261.0600 144.1600 263.0510 144.1600 L 265.6250 144.1600 C 267.6160 144.1600 269.2350 142.5400 269.2350 140.5500 L 269.2350 133.7350 C 269.2350 131.7450 267.6160 130.1260 265.6250 130.1260 Z" fill="#242d3a"/>
  <path transform="translate(-10.3655,-119.9000)" d="M 342.0620 141.6260 C 342.0620 143.0080 343.1860 144.1330 344.5680 144.1330 L 345.0810 144.1330 C 346.4630 144.1330 347.5870 143.0080 347.5870 141.6260 L 347.5870 140.0960 L 342.0620 140.0960 L 342.0620 141.6260 Z" fill="#242d3a"/>
  <path transform="translate(-10.3655,-119.9000)" d="M 20.6072 141.6260 C 20.6072 143.0080 21.7313 144.1330 23.1129 144.1330 L 23.6257 144.1330 C 25.0073 144.1330 26.1314 143.0080 26.1314 141.6260 L 26.1314 140.0960 L 20.6072 140.0960 L 20.6072 141.6260 Z" fill="#242d3a"/>
</svg>
