<?xml version="1.0" encoding="UTF-8"?>
<svg xmlns="http://www.w3.org/2000/svg" viewBox="0 0 340.4565 24.8063" width="340.4565" height="24.8063" fill="none">
  <path transform="translate(-15.1515,-80.6127)" d="M 322.3670 97.8231 C 322.3670 98.0600 322.1750 98.2521 321.9380 98.2521 L 318.4160 98.2521 C 318.1790 98.2521 317.9870 98.0600 317.9870 97.8231 L 317.9870 85.7689 C 317.9870 85.5319 318.1790 85.3398 318.4160 85.3398 L 321.9380 85.3398 C 322.1750 85.3398 322.3670 85.5319 322.3670 85.7689 L 322.3670 97.8231 Z M 317.3770 97.8231 C 317.3770 98.0600 317.1850 98.2521 316.9480 98.2521 L 313.4250 98.2521 C 313.1880 98.2521 312.9960 98.0600 312.9960 97.8231 L 312.9960 85.7689 C 312.9960 85.5319 313.1880 85.3398 313.4250 85.3398 L 316.9480 85.3398 C 317.1850 85.3398 317.3770 85.5319 317.3770 85.7689 L 317.3770 97.8231 Z M 321.4450 83.7201 L 313.8550 83.7201 C 313.0790 83.7201 312.4480 84.3511 312.4480 85.1271 L 312.4480 99.8705 C 312.4480 100.6460 313.0790 101.2770 313.8550 101.2770 L 321.4450 101.2770 C 322.2210 101.2770 322.8520 100.6460 322.8520 99.8705 L 322.8520 85.1271 C 322.8520 84.3511 322.2210 83.7201 321.4450 83.7201 Z" fill="#242d3a"/>
  <path transform="translate(-15.1515,-80.6127)" d="M 57.7637 97.8231 C 57.7637 98.0600 57.5717 98.2521 57.3347 98.2521 L 53.8119 98.2521 C 53.5750 98.2521 53.3829 98.0600 53.3829 97.8231 L 53.3829 85.7689 C 53.3829 85.5319 53.5750 85.3398 53.8119 85.3398 L 57.3347 85.3398 C 57.5717 85.3398 57.7637 85.5319 57.7637 85.7689 L 57.7637 97.8231 Z M 52.7730 97.8231 C 52.7730 98.0600 52.5809 98.2521 52.3440 98.2521 L 48.8212 98.2521 C 48.5842 98.2521 48.3922 98.0600 48.3922 97.8231 L 48.3922 85.7689 C 48.3922 85.5319 48.5842 85.3398 48.8212 85.3398 L 52.3440 85.3398 C 52.5809 85.3398 52.7730 85.5319 52.7730 85.7689 L 52.7730 97.8231 Z M 56.9048 83.7201 L 49.3143 83.7201 C 48.5387 83.7201 47.9077 84.3511 47.9077 85.1271 L 47.9077 99.8705 C 47.9077 100.6460 48.5387 101.2770 49.3143 101.2770 L 56.9048 101.2770 C 57.6805 101.2770 58.3115 100.6460 58.3115 99.8705 L 58.3115 85.1271 C 58.3115 84.3511 57.6805 83.7201 56.9048 83.7201 Z" fill="#242d3a"/>
  <path transform="translate(-15.1515,-80.6127)" d="M 269.5750 97.8231 C 269.5750 98.0600 269.3830 98.2521 269.1460 98.2521 L 265.6230 98.2521 C 265.3870 98.2521 265.1940 98.0600 265.1940 97.8231 L 265.1940 85.7689 C 265.1940 85.5319 265.3870 85.3398 265.6230 85.3398 L 269.1460 85.3398 C 269.3830 85.3398 269.5750 85.5319 269.5750 85.7689 L 269.5750 97.8231 Z M 264.5850 97.8231 C 264.5850 98.0600 264.3930 98.2521 264.1560 98.2521 L 260.6330 98.2521 C 260.3960 98.2521 260.2040 98.0600 260.2040 97.8231 L 260.2040 85.7689 C 260.2040 85.5319 260.3960 85.3398 260.6330 85.3398 L 264.1560 85.3398 C 264.3930 85.3398 264.5850 85.5319 264.5850 85.7689 L 264.5850 97.8231 Z M 268.6530 83.7201 L 261.0620 83.7201 C 260.2870 83.7201 259.6560 84.3511 259.6560 85.1271 L 259.6560 99.8705 C 259.6560 100.6460 260.2870 101.2770 261.0620 101.2770 L 268.6530 101.2770 C 269.4290 101.2770 270.0600 100.6460 270.0600 99.8705 L 270.0600 85.1271 C 270.0600 84.3511 269.4290 83.7201 268.6530 83.7201 Z" fill="#242d3a"/>
  <path transform="translate(-15.1515,-80.6127)" d="M 216.7760 97.8231 C 216.7760 98.0600 216.5840 98.2521 216.3470 98.2521 L 212.8240 98.2521 C 212.5870 98.2521 212.3950 98.0600 212.3950 97.8231 L 212.3950 85.7689 C 212.3950 85.5319 212.5870 85.3398 212.8240 85.3398 L 216.3470 85.3398 C 216.5840 85.3398 216.7760 85.5319 216.7760 85.7689 L 216.7760 97.8231 Z M 211.7850 97.8231 C 211.7850 98.0600 211.5930 98.2521 211.3560 98.2521 L 207.8330 98.2521 C 207.5960 98.2521 207.4040 98.0600 207.4040 97.8231 L 207.4040 85.7689 C 207.4040 85.5319 207.5960 85.3398 207.8330 85.3398 L 211.3560 85.3398 C 211.5930 85.3398 211.7850 85.5319 211.7850 85.7689 L 211.7850 97.8231 Z M 215.8530 83.7201 L 208.2630 83.7201 C 207.4870 83.7201 206.8560 84.3511 206.8560 85.1271 L 206.8560 99.8705 C 206.8560 100.6460 207.4870 101.2770 208.2630 101.2770 L 215.8530 101.2770 C 216.6300 101.2770 217.2610 100.6460 217.2610 99.8705 L 217.2610 85.1271 C 217.2610 84.3511 216.6300 83.7201 215.8530 83.7201 Z" fill="#242d3a"/>
  <path transform="translate(-15.1515,-80.6127)" d="M 163.7780 97.8231 C 163.7780 98.0600 163.5860 98.2521 163.3490 98.2521 L 159.8260 98.2521 C 159.5890 98.2521 159.3970 98.0600 159.3970 97.8231 L 159.3970 85.7689 C 159.3970 85.5319 159.5890 85.3398 159.8260 85.3398 L 163.3490 85.3398 C 163.5860 85.3398 163.7780 85.5319 163.7780 85.7689 L 163.7780 97.8231 Z M 158.7870 97.8231 C 158.7870 98.0600 158.5950 98.2521 158.3580 98.2521 L 154.8350 98.2521 C 154.5980 98.2521 154.4060 98.0600 154.4060 97.8231 L 154.4060 85.7689 C 154.4060 85.5319 154.5980 85.3398 154.8350 85.3398 L 158.3580 85.3398 C 158.5950 85.3398 158.7870 85.5319 158.7870 85.7689 L 158.7870 97.8231 Z M 162.8550 83.7201 L 155.2650 83.7201 C 154.4890 83.7201 153.8580 84.3511 153.8580 85.1271 L 153.8580 99.8705 C 153.8580 100.6460 154.4890 101.2770 155.2650 101.2770 L 162.8550 101.2770 C 163.6320 101.2770 164.2630 100.6460 164.2630 99.8705 L 164.2630 85.1271 C 164.2630 84.3511 163.6320 83.7201 162.8550 83.7201 Z" fill="#242d3a"/>
  <path transform="translate(-15.1515,-80.6127)" d="M 110.7340 97.8231 C 110.7340 98.0600 110.5420 98.2521 110.3050 98.2521 L 106.7830 98.2521 C 106.5460 98.2521 106.3540 98.0600 106.3540 97.8231 L 106.3540 85.7689 C 106.3540 85.5319 106.5460 85.3398 106.7830 85.3398 L 110.3050 85.3398 C 110.5420 85.3398 110.7340 85.5319 110.7340 85.7689 L 110.7340 97.8231 Z M 105.7440 97.8231 C 105.7440 98.0600 105.5520 98.2521 105.3150 98.2521 L 101.7920 98.2521 C 101.5550 98.2521 101.3630 98.0600 101.3630 97.8231 L 101.3630 85.7689 C 101.3630 85.5319 101.5550 85.3398 101.7920 85.3398 L 105.3150 85.3398 C 105.5520 85.3398 105.7440 85.5319 105.7440 85.7689 L 105.7440 97.8231 Z M 109.8120 83.7201 L 102.2210 83.7201 C 101.4460 83.7201 100.8150 84.3511 100.8150 85.1271 L 100.8150 99.8705 C 100.8150 100.6460 101.4460 101.2770 102.2210 101.2770 L 109.8120 101.2770 C 110.5880 101.2770 111.2190 100.6460 111.2190 99.8705 L 111.2190 85.1271 C 111.2190 84.3511 110.5880 83.7201 109.8120 83.7201 Z" fill="#242d3a"/>
  <path transform="translate(-15.1515,-80.6127)" d="M 354.0640 91.3199 L 350.3960 91.3199 C 350.1250 91.3199 349.9050 91.1000 349.9050 90.8287 L 349.9050 85.8311 C 349.9050 85.5598 350.1250 85.3398 350.3960 85.3398 L 354.0640 85.3398 L 354.0640 91.3199 Z M 349.1810 99.6096 C 349.1810 100.0800 348.7980 100.4630 348.3260 100.4630 L 343.5160 100.4630 C 343.0460 100.4630 342.6630 100.0800 342.6630 99.6096 L 342.6630 85.9667 C 342.6630 85.4959 343.0460 85.1125 343.5160 85.1125 L 348.3260 85.1125 C 348.7980 85.1125 349.1810 85.4959 349.1810 85.9667 L 349.1810 99.6096 Z M 341.8310 90.8287 C 341.8310 91.1000 341.6110 91.3199 341.3400 91.3199 L 324.5820 91.3199 C 324.3100 91.3199 324.0910 91.1000 324.0910 90.8287 L 324.0910 85.8311 C 324.0910 85.5598 324.3100 85.3398 324.5820 85.3398 L 341.3400 85.3398 C 341.6110 85.3398 341.8310 85.5598 341.8310 85.8311 L 341.8310 90.8287 Z M 339.2360 96.5418 L 324.0910 96.5418 L 324.0910 94.8596 L 339.2360 94.8596 L 339.2360 96.5418 Z M 323.3060 99.8705 C 323.3060 100.8970 322.4710 101.7320 321.4450 101.7320 L 313.8550 101.7320 C 312.8290 101.7320 311.9940 100.8970 311.9940 99.8705 L 311.9940 85.1271 C 311.9940 84.1008 312.8290 83.2657 313.8550 83.2657 L 321.4450 83.2657 C 322.4710 83.2657 323.3060 84.1008 323.3060 85.1271 L 323.3060 99.8705 Z M 311.2240 90.8287 C 311.2240 91.1000 311.0040 91.3199 310.7330 91.3199 L 293.9750 91.3199 C 293.7030 91.3199 293.4840 91.1000 293.4840 90.8287 L 293.4840 85.8311 C 293.4840 85.5598 293.7030 85.3398 293.9750 85.3398 L 310.7330 85.3398 C 311.0040 85.3398 311.2240 85.5598 311.2240 85.8311 L 311.2240 90.8287 Z M 311.2240 96.5418 L 293.4840 96.5418 L 293.4840 94.8596 L 311.2240 94.8596 L 311.2240 96.5418 Z M 353.1750 81.6127 L 293.5400 81.6127 C 292.7480 81.6127 292.1070 82.2541 292.1070 83.0453 L 292.1070 102.3860 C 292.1070 103.1770 292.7480 103.8190 293.5400 103.8190 L 297.1190 103.8190 L 300.1180 100.8190 L 308.9160 100.8190 L 311.9160 103.8190 L 325.2300 103.8190 L 328.2300 100.8190 L 337.6920 100.8190 L 340.6920 103.8190 L 353.1750 103.8190 C 353.9670 103.8190 354.6080 103.1770 354.6080 102.3860 L 354.6080 83.0453 C 354.6080 82.2541 353.9670 81.6127 353.1750 81.6127 Z" fill="#242d3a"/>
  <path transform="translate(-15.1515,-80.6127)" d="M 77.2760 90.8287 C 77.2760 91.1000 77.0560 91.3199 76.7847 91.3199 L 60.0264 91.3199 C 59.7551 91.3199 59.5352 91.1000 59.5352 90.8287 L 59.5352 85.8311 C 59.5352 85.5598 59.7551 85.3398 60.0264 85.3398 L 76.7847 85.3398 C 77.0560 85.3398 77.2760 85.5598 77.2760 85.8311 L 77.2760 90.8287 Z M 77.2760 96.5418 L 59.5352 96.5418 L 59.5352 94.8596 L 77.2760 94.8596 L 77.2760 96.5418 Z M 58.7658 99.8705 C 58.7658 100.8970 57.9307 101.7320 56.9048 101.7320 L 49.3143 101.7320 C 48.2885 101.7320 47.4534 100.8970 47.4534 99.8705 L 47.4534 85.1271 C 47.4534 84.1008 48.2885 83.2657 49.3143 83.2657 L 56.9048 83.2657 C 57.9307 83.2657 58.7658 84.1008 58.7658 85.1271 L 58.7658 99.8705 Z M 46.6690 90.8287 C 46.6690 91.1000 46.4490 91.3199 46.1777 91.3199 L 29.4194 91.3199 C 29.1481 91.3199 28.9282 91.1000 28.9282 90.8287 L 28.9282 85.8311 C 28.9282 85.5598 29.1481 85.3398 29.4194 85.3398 L 46.1777 85.3398 C 46.4490 85.3398 46.6690 85.5598 46.6690 85.8311 L 46.6690 90.8287 Z M 46.6690 96.5418 L 31.5236 96.5418 L 31.5236 94.8596 L 46.6690 94.8596 L 46.6690 96.5418 Z M 28.0969 99.6096 C 28.0969 100.0800 27.7136 100.4630 27.2432 100.4630 L 22.4332 100.4630 C 21.9619 100.4630 21.5785 100.0800 21.5785 99.6096 L 21.5785 85.9667 C 21.5785 85.4959 21.9619 85.1125 22.4332 85.1125 L 27.2432 85.1125 C 27.7136 85.1125 28.0969 85.4959 28.0969 85.9667 L 28.0969 99.6096 Z M 20.8545 90.8287 C 20.8545 91.1000 20.6345 91.3199 20.3632 91.3199 L 16.6957 91.3199 L 16.6957 85.3398 L 20.3632 85.3398 C 20.6345 85.3398 20.8545 85.5598 20.8545 85.8311 L 20.8545 90.8287 Z M 77.2198 81.6127 L 17.5841 81.6127 C 16.7929 81.6127 16.1515 82.2541 16.1515 83.0453 L 16.1515 102.3860 C 16.1515 103.1770 16.7929 103.8190 17.5841 103.8190 L 30.0676 103.8190 L 33.0671 100.8190 L 42.5299 100.8190 L 45.5295 103.8190 L 58.8436 103.8190 L 61.8431 100.8190 L 70.6414 100.8190 L 73.6410 103.8190 L 77.2198 103.8190 C 78.0111 103.8190 78.6525 103.1770 78.6525 102.3860 L 78.6525 83.0453 C 78.6525 82.2541 78.0111 81.6127 77.2198 81.6127 Z" fill="#242d3a"/>
  <path transform="translate(-15.1515,-80.6127)" d="M 289.0390 90.8287 C 289.0390 91.1000 288.8190 91.3199 288.5480 91.3199 L 271.7900 91.3199 C 271.5180 91.3199 271.2980 91.1000 271.2980 90.8287 L 271.2980 85.8311 C 271.2980 85.5598 271.5180 85.3398 271.7900 85.3398 L 288.5480 85.3398 C 288.8190 85.3398 289.0390 85.5598 289.0390 85.8311 L 289.0390 90.8287 Z M 289.0390 96.5418 L 271.2980 96.5418 L 271.2980 94.8596 L 289.0390 94.8596 L 289.0390 96.5418 Z M 270.5150 99.8705 C 270.5150 100.8970 269.6800 101.7320 268.6530 101.7320 L 261.0620 101.7320 C 260.0360 101.7320 259.2010 100.8970 259.2010 99.8705 L 259.2010 85.1271 C 259.2010 84.1008 260.0360 83.2657 261.0620 83.2657 L 268.6530 83.2657 C 269.6800 83.2657 270.5150 84.1008 270.5150 85.1271 L 270.5150 99.8705 Z M 258.4320 90.8287 C 258.4320 91.1000 258.2120 91.3199 257.9410 91.3199 L 241.1830 91.3199 C 240.9110 91.3199 240.6910 91.1000 240.6910 90.8287 L 240.6910 85.8311 C 240.6910 85.5598 240.9110 85.3398 241.1830 85.3398 L 257.9410 85.3398 C 258.2120 85.3398 258.4320 85.5598 258.4320 85.8311 L 258.4320 90.8287 Z M 258.4320 96.5418 L 240.6910 96.5418 L 240.6910 94.8596 L 258.4320 94.8596 L 258.4320 96.5418 Z M 288.9680 81.6127 L 240.7480 81.6127 C 239.9560 81.6127 239.3150 82.2541 239.3150 83.0453 L 239.3150 102.3860 C 239.3150 103.1770 239.9560 103.8190 240.7480 103.8190 L 244.3260 103.8190 L 247.3260 100.8190 L 256.1240 100.8190 L 259.1240 103.8190 L 270.5540 103.8190 L 273.5530 100.8190 L 283.0160 100.8190 L 286.0160 103.8190 L 288.9680 103.8190 C 289.7590 103.8190 290.4010 103.1770 290.4010 102.3860 L 290.4010 83.0453 C 290.4010 82.2541 289.7590 81.6127 288.9680 81.6127 Z" fill="#242d3a"/>
  <path transform="translate(-15.1515,-80.6127)" d="M 236.2400 90.8287 C 236.2400 91.1000 236.0200 91.3199 235.7490 91.3199 L 218.9900 91.3199 C 218.7190 91.3199 218.4990 91.1000 218.4990 90.8287 L 218.4990 85.8311 C 218.4990 85.5598 218.7190 85.3398 218.9900 85.3398 L 235.7490 85.3398 C 236.0200 85.3398 236.2400 85.5598 236.2400 85.8311 L 236.2400 90.8287 Z M 236.2400 96.5418 L 218.4990 96.5418 L 218.4990 94.8596 L 236.2400 94.8596 L 236.2400 96.5418 Z M 217.7150 99.8705 C 217.7150 100.8970 216.8800 101.7320 215.8530 101.7320 L 208.2630 101.7320 C 207.2370 101.7320 206.4020 100.8970 206.4020 99.8705 L 206.4020 85.1271 C 206.4020 84.1008 207.2370 83.2657 208.2630 83.2657 L 215.8530 83.2657 C 216.8800 83.2657 217.7150 84.1008 217.7150 85.1271 L 217.7150 99.8705 Z M 205.6330 90.8287 C 205.6330 91.1000 205.4130 91.3199 205.1420 91.3199 L 188.3830 91.3199 C 188.1120 91.3199 187.8920 91.1000 187.8920 90.8287 L 187.8920 85.8311 C 187.8920 85.5598 188.1120 85.3398 188.3830 85.3398 L 205.1420 85.3398 C 205.4130 85.3398 205.6330 85.5598 205.6330 85.8311 L 205.6330 90.8287 Z M 205.6330 96.5418 L 187.8920 96.5418 L 187.8920 94.8596 L 205.6330 94.8596 L 205.6330 96.5418 Z M 236.1680 81.6127 L 187.9480 81.6127 C 187.1570 81.6127 186.5160 82.2541 186.5160 83.0453 L 186.5160 102.3860 C 186.5160 103.1770 187.1570 103.8190 187.9480 103.8190 L 191.5270 103.8190 L 194.5270 100.8190 L 203.3250 100.8190 L 206.3240 103.8190 L 217.7540 103.8190 L 220.7540 100.8190 L 230.2170 100.8190 L 233.2160 103.8190 L 236.1680 103.8190 C 236.9600 103.8190 237.6010 103.1770 237.6010 102.3860 L 237.6010 83.0453 C 237.6010 82.2541 236.9600 81.6127 236.1680 81.6127 Z" fill="#242d3a"/>
  <path transform="translate(-15.1515,-80.6127)" d="M 183.2420 90.8287 C 183.2420 91.1000 183.0220 91.3199 182.7500 91.3199 L 165.9920 91.3199 C 165.7210 91.3199 165.5010 91.1000 165.5010 90.8287 L 165.5010 85.8311 C 165.5010 85.5598 165.7210 85.3398 165.9920 85.3398 L 182.7500 85.3398 C 183.0220 85.3398 183.2420 85.5598 183.2420 85.8311 L 183.2420 90.8287 Z M 183.2420 96.5418 L 165.5010 96.5418 L 165.5010 94.8596 L 183.2420 94.8596 L 183.2420 96.5418 Z M 164.7170 99.8705 C 164.7170 100.8970 163.8820 101.7320 162.8550 101.7320 L 155.2650 101.7320 C 154.2390 101.7320 153.4040 100.8970 153.4040 99.8705 L 153.4040 85.1271 C 153.4040 84.1008 154.2390 83.2657 155.2650 83.2657 L 162.8550 83.2657 C 163.8820 83.2657 164.7170 84.1008 164.7170 85.1271 L 164.7170 99.8705 Z M 152.6350 90.8287 C 152.6350 91.1000 152.4150 91.3199 152.1430 91.3199 L 135.3850 91.3199 C 135.1140 91.3199 134.8940 91.1000 134.8940 90.8287 L 134.8940 85.8311 C 134.8940 85.5598 135.1140 85.3398 135.3850 85.3398 L 152.1430 85.3398 C 152.4150 85.3398 152.6350 85.5598 152.6350 85.8311 L 152.6350 90.8287 Z M 152.6350 96.5418 L 134.8940 96.5418 L 134.8940 94.8596 L 152.6350 94.8596 L 152.6350 96.5418 Z M 183.1700 81.6127 L 134.9500 81.6127 C 134.1590 81.6127 133.5170 82.2541 133.5170 83.0453 L 133.5170 102.3860 C 133.5170 103.1770 134.1590 103.8190 134.9500 103.8190 L 138.5290 103.8190 L 141.5280 100.8190 L 150.3270 100.8190 L 153.3260 103.8190 L 164.7560 103.8190 L 167.7560 100.8190 L 177.2190 100.8190 L 180.2180 103.8190 L 183.1700 103.8190 C 183.9610 103.8190 184.6030 103.1770 184.6030 102.3860 L 184.6030 83.0453 C 184.6030 82.2541 183.9610 81.6127 183.1700 81.6127 Z" fill="#242d3a"/>
  <path transform="translate(-15.1515,-80.6127)" d="M 130.1980 90.8287 C 130.1980 91.1000 129.9790 91.3199 129.7070 91.3199 L 112.9490 91.3199 C 112.6780 91.3199 112.4580 91.1000 112.4580 90.8287 L 112.4580 85.8311 C 112.4580 85.5598 112.6780 85.3398 112.9490 85.3398 L 129.7070 85.3398 C 129.9790 85.3398 130.1980 85.5598 130.1980 85.8311 L 130.1980 90.8287 Z M 130.1980 96.5418 L 112.4580 96.5418 L 112.4580 94.8596 L 130.1980 94.8596 L 130.1980 96.5418 Z M 111.6740 99.8705 C 111.6740 100.8970 110.8390 101.7320 109.8120 101.7320 L 102.2210 101.7320 C 101.1950 101.7320 100.3600 100.8970 100.3600 99.8705 L 100.3600 85.1271 C 100.3600 84.1008 101.1950 83.2657 102.2210 83.2657 L 109.8120 83.2657 C 110.8390 83.2657 111.6740 84.1008 111.6740 85.1271 L 111.6740 99.8705 Z M 99.5915 90.8287 C 99.5915 91.1000 99.3716 91.3199 99.1002 91.3199 L 82.3419 91.3199 C 82.0706 91.3199 81.8506 91.1000 81.8506 90.8287 L 81.8506 85.8311 C 81.8506 85.5598 82.0706 85.3398 82.3419 85.3398 L 99.1002 85.3398 C 99.3716 85.3398 99.5915 85.5598 99.5915 85.8311 L 99.5915 90.8287 Z M 99.5915 96.5418 L 81.8506 96.5418 L 81.8506 94.8596 L 99.5915 94.8596 L 99.5915 96.5418 Z M 130.1270 81.6127 L 81.9067 81.6127 C 81.1155 81.6127 80.4741 82.2541 80.4741 83.0453 L 80.4741 102.3860 C 80.4741 103.1770 81.1155 103.8190 81.9067 103.8190 L 85.4856 103.8190 L 88.4852 100.8190 L 97.2834 100.8190 L 100.2830 103.8190 L 111.7130 103.8190 L 114.7130 100.8190 L 124.1750 100.8190 L 127.1750 103.8190 L 130.1270 103.8190 C 130.9180 103.8190 131.5600 103.1770 131.5600 102.3860 L 131.5600 83.0453 C 131.5600 82.2541 130.9180 81.6127 130.1270 81.6127 Z" fill="#242d3a"/>
  <path transform="translate(-15.1515,-80.6127)" d="M 348.1270 90.7210 C 348.1270 91.1476 347.7810 91.4935 347.3550 91.4935 L 344.4940 91.4935 C 344.0670 91.4935 343.7210 91.1476 343.7210 90.7210 L 343.7210 87.8604 C 343.7210 87.4338 344.0670 87.0880 344.4940 87.0880 L 347.3550 87.0880 C 347.7810 87.0880 348.1270 87.4338 348.1270 87.8604 L 348.1270 90.7210 Z M 348.3260 85.5669 L 343.5160 85.5669 C 343.2960 85.5669 343.1170 85.7462 343.1170 85.9667 L 343.1170 99.6096 C 343.1170 99.8297 343.2960 100.0090 343.5160 100.0090 L 348.3260 100.0090 C 348.5470 100.0090 348.7270 99.8297 348.7270 99.6096 L 348.7270 85.9667 C 348.7270 85.7462 348.5470 85.5669 348.3260 85.5669 Z" fill="#242d3a"/>
  <path transform="translate(-15.1515,-80.6127)" d="M 27.0380 90.7210 C 27.0380 91.1476 26.6922 91.4935 26.2656 91.4935 L 23.4050 91.4935 C 22.9784 91.4935 22.6326 91.1476 22.6326 90.7210 L 22.6326 87.8604 C 22.6326 87.4338 22.9784 87.0880 23.4050 87.0880 L 26.2656 87.0880 C 26.6922 87.0880 27.0380 87.4338 27.0380 87.8604 L 27.0380 90.7210 Z M 27.2432 85.5669 L 22.4332 85.5669 C 22.2122 85.5669 22.0329 85.7462 22.0329 85.9667 L 22.0329 99.6096 C 22.0329 99.8297 22.2122 100.0090 22.4332 100.0090 L 27.2432 100.0090 C 27.4633 100.0090 27.6425 99.8297 27.6425 99.6096 L 27.6425 85.9667 C 27.6425 85.7462 27.4633 85.5669 27.2432 85.5669 Z" fill="#242d3a"/>
  <path transform="translate(-15.1515,-80.6127)" d="M 318.5100 94.4938 L 321.8440 92.7386 L 321.8440 92.0025 L 318.5100 93.7578 L 318.5100 94.4938 Z" fill="#242d3a"/>
  <path transform="translate(-15.1515,-80.6127)" d="M 48.9157 92.7386 L 52.2495 94.4938 L 52.2495 93.7578 L 48.9157 92.0025 L 48.9157 92.7386 Z" fill="#242d3a"/>
  <path transform="translate(-15.1515,-80.6127)" d="M 265.7420 94.4938 L 269.0760 92.7386 L 269.0760 92.0025 L 265.7420 93.7578 L 265.7420 94.4938 Z" fill="#242d3a"/>
  <path transform="translate(-15.1515,-80.6127)" d="M 212.9430 94.4938 L 216.2760 92.7386 L 216.2760 92.0025 L 212.9430 93.7578 L 212.9430 94.4938 Z" fill="#242d3a"/>
  <path transform="translate(-15.1515,-80.6127)" d="M 159.9450 94.4938 L 163.2780 92.7386 L 163.2780 92.0025 L 159.9450 93.7578 L 159.9450 94.4938 Z" fill="#242d3a"/>
  <path transform="translate(-15.1515,-80.6127)" d="M 106.9010 94.4938 L 110.2350 92.7386 L 110.2350 92.0025 L 106.9010 93.7578 L 106.9010 94.4938 Z" fill="#242d3a"/>
  <path transform="translate(-15.1515,-80.6127)" d="M 313.5500 92.7528 L 316.8830 94.5081 L 316.8830 93.7719 L 313.5500 92.0167 L 313.5500 92.7528 Z" fill="#242d3a"/>
  <path transform="translate(-15.1515,-80.6127)" d="M 53.8760 94.5081 L 57.2098 92.7528 L 57.2098 92.0167 L 53.8760 93.7719 L 53.8760 94.5081 Z" fill="#242d3a"/>
  <path transform="translate(-15.1515,-80.6127)" d="M 260.7110 92.7528 L 264.0450 94.5081 L 264.0450 93.7719 L 260.7110 92.0167 L 260.7110 92.7528 Z" fill="#242d3a"/>
  <path transform="translate(-15.1515,-80.6127)" d="M 207.9110 92.7528 L 211.2450 94.5081 L 211.2450 93.7719 L 207.9110 92.0167 L 207.9110 92.7528 Z" fill="#242d3a"/>
  <path transform="translate(-15.1515,-80.6127)" d="M 154.9130 92.7528 L 158.2470 94.5081 L 158.2470 93.7719 L 154.9130 92.0167 L 154.9130 92.7528 Z" fill="#242d3a"/>
  <path transform="translate(-15.1515,-80.6127)" d="M 101.8700 92.7528 L 105.2040 94.5081 L 105.2040 93.7719 L 101.8700 92.0167 L 101.8700 92.7528 Z" fill="#242d3a"/>
  <path transform="translate(-15.1515,-80.6127)" d="M 318.5100 95.7395 L 321.8440 93.9843 L 321.8440 93.2482 L 318.5100 95.0034 L 318.5100 95.7395 Z" fill="#242d3a"/>
  <path transform="translate(-15.1515,-80.6127)" d="M 48.9157 93.9843 L 52.2495 95.7395 L 52.2495 95.0034 L 48.9157 93.2482 L 48.9157 93.9843 Z" fill="#242d3a"/>
  <path transform="translate(-15.1515,-80.6127)" d="M 265.7420 95.7395 L 269.0760 93.9843 L 269.0760 93.2482 L 265.7420 95.0034 L 265.7420 95.7395 Z" fill="#242d3a"/>
  <path transform="translate(-15.1515,-80.6127)" d="M 212.9430 95.7395 L 216.2760 93.9843 L 216.2760 93.2482 L 212.9430 95.0034 L 212.9430 95.7395 Z" fill="#242d3a"/>
  <path transform="translate(-15.1515,-80.6127)" d="M 159.9450 95.7395 L 163.2780 93.9843 L 163.2780 93.2482 L 159.9450 95.0034 L 159.9450 95.7395 Z" fill="#242d3a"/>
  <path transform="translate(-15.1515,-80.6127)" d="M 106.9010 95.7395 L 110.2350 93.9843 L 110.2350 93.2482 L 106.9010 95.0034 L 106.9010 95.7395 Z" fill="#242d3a"/>
  <path transform="translate(-15.1515,-80.6127)" d="M 313.5500 93.9985 L 316.8830 95.7537 L 316.8830 95.0176 L 313.5500 93.2624 L 313.5500 93.9985 Z" fill="#242d3a"/>
  <path transform="translate(-15.1515,-80.6127)" d="M 53.8760 95.7537 L 57.2098 93.9985 L 57.2098 93.2624 L 53.8760 95.0176 L 53.8760 95.7537 Z" fill="#242d3a"/>
  <path transform="translate(-15.1515,-80.6127)" d="M 260.7110 93.9985 L 264.0450 95.7537 L 264.0450 95.0176 L 260.7110 93.2624 L 260.7110 93.9985 Z" fill="#242d3a"/>
  <path transform="translate(-15.1515,-80.6127)" d="M 207.9110 93.9985 L 211.2450 95.7537 L 211.2450 95.0176 L 207.9110 93.2624 L 207.9110 93.9985 Z" fill="#242d3a"/>
  <path transform="translate(-15.1515,-80.6127)" d="M 154.9130 93.9985 L 158.2470 95.7537 L 158.2470 95.0176 L 154.9130 93.2624 L 154.9130 93.9985 Z" fill="#242d3a"/>
  <path transform="translate(-15.1515,-80.6127)" d="M 101.8700 93.9985 L 105.2040 95.7537 L 105.2040 95.0176 L 101.8700 93.2624 L 101.8700 93.9985 Z" fill="#242d3a"/>
  <path transform="translate(-15.1515,-80.6127)" d="M 331.1880 101.7280 L 329.8600 101.7280 C 329.6990 101.9560 329.4460 102.1160 329.1450 102.1160 C 328.8890 102.1160 328.6630 102.0050 328.5000 101.8330 L 327.6370 102.6960 C 328.0210 103.0890 328.5540 103.3350 329.1450 103.3350 C 330.1340 103.3350 330.9600 102.6480 331.1880 101.7280 Z" fill="#242d3a"/>
  <path transform="translate(-15.1515,-80.6127)" d="M 336.8660 103.3350 C 337.4340 103.3350 337.9480 103.1070 338.3280 102.7400 L 337.4640 101.8760 C 337.3060 102.0220 337.0990 102.1160 336.8660 102.1160 C 336.5650 102.1160 336.3120 101.9560 336.1510 101.7280 L 334.8230 101.7280 C 335.0500 102.6480 335.8770 103.3350 336.8660 103.3350 Z" fill="#242d3a"/>
  <path transform="translate(-15.1515,-80.6127)" d="M 302.6730 101.7280 L 301.3460 101.7280 C 301.1850 101.9560 300.9320 102.1160 300.6310 102.1160 C 300.4800 102.1160 300.3440 102.0680 300.2190 102.0020 L 299.3400 102.8820 C 299.6980 103.1610 300.1420 103.3350 300.6300 103.3350 C 301.6200 103.3350 302.4460 102.6480 302.6730 101.7280 Z" fill="#242d3a"/>
  <path transform="translate(-15.1515,-80.6127)" d="M 308.3520 103.3350 C 308.8530 103.3350 309.3080 103.1520 309.6710 102.8590 L 308.7940 101.9820 C 308.6620 102.0590 308.5160 102.1160 308.3520 102.1160 C 308.0510 102.1160 307.7980 101.9560 307.6360 101.7280 L 306.3090 101.7280 C 306.5360 102.6480 307.3630 103.3350 308.3520 103.3350 Z" fill="#242d3a"/>
  <path transform="translate(-15.1515,-80.6127)" d="M 41.6149 103.3350 C 42.2056 103.3350 42.7389 103.0890 43.1223 102.6960 L 42.2592 101.8330 C 42.0967 102.0050 41.8701 102.1160 41.6147 102.1160 C 41.3135 102.1160 41.0604 101.9560 40.8991 101.7280 L 39.5719 101.7280 C 39.7991 102.6480 40.6256 103.3350 41.6149 103.3350 Z" fill="#242d3a"/>
  <path transform="translate(-15.1515,-80.6127)" d="M 35.9362 101.7280 L 34.6088 101.7280 C 34.4476 101.9560 34.1944 102.1160 33.8931 102.1160 C 33.6610 102.1160 33.4537 102.0220 33.2952 101.8760 L 32.4312 102.7400 C 32.8110 103.1070 33.3253 103.3350 33.8932 103.3350 C 34.8824 103.3350 35.7090 102.6480 35.9362 101.7280 Z" fill="#242d3a"/>
  <path transform="translate(-15.1515,-80.6127)" d="M 70.1290 103.3350 C 70.6172 103.3350 71.0615 103.1610 71.4195 102.8820 L 70.5400 102.0020 C 70.4155 102.0680 70.2799 102.1160 70.1289 102.1160 C 69.8278 102.1160 69.5745 101.9560 69.4133 101.7280 L 68.0861 101.7280 C 68.3132 102.6480 69.1398 103.3350 70.1290 103.3350 Z" fill="#242d3a"/>
  <path transform="translate(-15.1515,-80.6127)" d="M 64.4504 101.7280 L 63.1230 101.7280 C 62.9618 101.9560 62.7086 102.1160 62.4074 102.1160 C 62.2432 102.1160 62.0979 102.0590 61.9658 101.9820 L 61.0889 102.8590 C 61.4513 103.1520 61.9062 103.3350 62.4075 103.3350 C 63.3967 103.3350 64.2233 102.6480 64.4504 101.7280 Z" fill="#242d3a"/>
  <path transform="translate(-15.1515,-80.6127)" d="M 276.4850 101.7280 L 275.1580 101.7280 C 274.9970 101.9560 274.7440 102.1160 274.4430 102.1160 C 274.1940 102.1160 273.9700 102.0130 273.8080 101.8490 L 272.9470 102.7110 C 273.3290 103.0960 273.8580 103.3350 274.4420 103.3350 C 275.4320 103.3350 276.2580 102.6480 276.4850 101.7280 Z" fill="#242d3a"/>
  <path transform="translate(-15.1515,-80.6127)" d="M 282.1640 103.3350 C 282.7390 103.3350 283.2600 103.1020 283.6410 102.7280 L 282.7780 101.8660 C 282.6180 102.0190 282.4030 102.1160 282.1640 102.1160 C 281.8630 102.1160 281.6100 101.9560 281.4480 101.7280 L 280.1210 101.7280 C 280.3480 102.6480 281.1750 103.3350 282.1640 103.3350 Z" fill="#242d3a"/>
  <path transform="translate(-15.1515,-80.6127)" d="M 249.9140 101.7280 L 248.5870 101.7280 C 248.4250 101.9560 248.1720 102.1160 247.8710 102.1160 C 247.7120 102.1160 247.5700 102.0630 247.4410 101.9890 L 246.5630 102.8670 C 246.9240 103.1550 247.3750 103.3350 247.8710 103.3350 C 248.8600 103.3350 249.6870 102.6480 249.9140 101.7280 Z" fill="#242d3a"/>
  <path transform="translate(-15.1515,-80.6127)" d="M 255.5930 103.3350 C 256.0860 103.3350 256.5340 103.1580 256.8940 102.8730 L 256.0150 101.9950 C 255.8880 102.0650 255.7480 102.1160 255.5930 102.1160 C 255.2910 102.1160 255.0380 101.9560 254.8770 101.7280 L 253.5500 101.7280 C 253.7770 102.6480 254.6030 103.3350 255.5930 103.3350 Z" fill="#242d3a"/>
  <path transform="translate(-15.1515,-80.6127)" d="M 223.6860 101.7280 L 222.3590 101.7280 C 222.1970 101.9560 221.9440 102.1160 221.6430 102.1160 C 221.3940 102.1160 221.1710 102.0130 221.0090 101.8490 L 220.1470 102.7110 C 220.5300 103.0960 221.0590 103.3350 221.6430 103.3350 C 222.6320 103.3350 223.4590 102.6480 223.6860 101.7280 Z" fill="#242d3a"/>
  <path transform="translate(-15.1515,-80.6127)" d="M 229.3650 103.3350 C 229.9390 103.3350 230.4600 103.1020 230.8410 102.7280 L 229.9780 101.8660 C 229.8190 102.0190 229.6040 102.1160 229.3650 102.1160 C 229.0630 102.1160 228.8100 101.9560 228.6490 101.7280 L 227.3220 101.7280 C 227.5490 102.6480 228.3750 103.3350 229.3650 103.3350 Z" fill="#242d3a"/>
  <path transform="translate(-15.1515,-80.6127)" d="M 197.1140 101.7280 L 195.7870 101.7280 C 195.6260 101.9560 195.3730 102.1160 195.0720 102.1160 C 194.9120 102.1160 194.7710 102.0630 194.6410 101.9890 L 193.7630 102.8670 C 194.1240 103.1550 194.5750 103.3350 195.0710 103.3350 C 196.0610 103.3350 196.8870 102.6480 197.1140 101.7280 Z" fill="#242d3a"/>
  <path transform="translate(-15.1515,-80.6127)" d="M 202.7930 103.3350 C 203.2860 103.3350 203.7340 103.1580 204.0940 102.8730 L 203.2160 101.9950 C 203.0880 102.0650 202.9490 102.1160 202.7930 102.1160 C 202.4920 102.1160 202.2390 101.9560 202.0770 101.7280 L 200.7500 101.7280 C 200.9770 102.6480 201.8040 103.3350 202.7930 103.3350 Z" fill="#242d3a"/>
  <path transform="translate(-15.1515,-80.6127)" d="M 170.6880 101.7280 L 169.3610 101.7280 C 169.1990 101.9560 168.9460 102.1160 168.6450 102.1160 C 168.3960 102.1160 168.1720 102.0130 168.0110 101.8490 L 167.1490 102.7110 C 167.5320 103.0960 168.0610 103.3350 168.6450 103.3350 C 169.6340 103.3350 170.4610 102.6480 170.6880 101.7280 Z" fill="#242d3a"/>
  <path transform="translate(-15.1515,-80.6127)" d="M 176.3660 103.3350 C 176.9410 103.3350 177.4620 103.1020 177.8430 102.7280 L 176.9800 101.8660 C 176.8200 102.0190 176.6060 102.1160 176.3670 102.1160 C 176.0650 102.1160 175.8120 101.9560 175.6510 101.7280 L 174.3230 101.7280 C 174.5510 102.6480 175.3770 103.3350 176.3660 103.3350 Z" fill="#242d3a"/>
  <path transform="translate(-15.1515,-80.6127)" d="M 144.1160 101.7280 L 142.7890 101.7280 C 142.6280 101.9560 142.3750 102.1160 142.0730 102.1160 C 141.9140 102.1160 141.7730 102.0630 141.6430 101.9890 L 140.7650 102.8670 C 141.1260 103.1550 141.5770 103.3350 142.0730 103.3350 C 143.0630 103.3350 143.8890 102.6480 144.1160 101.7280 Z" fill="#242d3a"/>
  <path transform="translate(-15.1515,-80.6127)" d="M 149.7950 103.3350 C 150.2880 103.3350 150.7360 103.1580 151.0960 102.8730 L 150.2170 101.9950 C 150.0900 102.0650 149.9510 102.1160 149.7950 102.1160 C 149.4940 102.1160 149.2410 101.9560 149.0790 101.7280 L 147.7520 101.7280 C 147.9790 102.6480 148.8060 103.3350 149.7950 103.3350 Z" fill="#242d3a"/>
  <path transform="translate(-15.1515,-80.6127)" d="M 117.6450 101.7280 L 116.3170 101.7280 C 116.1560 101.9560 115.9030 102.1160 115.6020 102.1160 C 115.3530 102.1160 115.1290 102.0130 114.9680 101.8490 L 114.1060 102.7110 C 114.4880 103.0960 115.0170 103.3350 115.6020 103.3350 C 116.5910 103.3350 117.4170 102.6480 117.6450 101.7280 Z" fill="#242d3a"/>
  <path transform="translate(-15.1515,-80.6127)" d="M 123.3230 103.3350 C 123.8980 103.3350 124.4190 103.1020 124.8000 102.7280 L 123.9370 101.8660 C 123.7770 102.0190 123.5620 102.1160 123.3230 102.1160 C 123.0220 102.1160 122.7690 101.9560 122.6080 101.7280 L 121.2800 101.7280 C 121.5070 102.6480 122.3340 103.3350 123.3230 103.3350 Z" fill="#242d3a"/>
  <path transform="translate(-15.1515,-80.6127)" d="M 91.0730 101.7280 L 89.7458 101.7280 C 89.5846 101.9560 89.3314 102.1160 89.0302 102.1160 C 88.8709 102.1160 88.7293 102.0630 88.5999 101.9890 L 87.7220 102.8670 C 88.0828 103.1550 88.5336 103.3350 89.0301 103.3350 C 90.0193 103.3350 90.8459 102.6480 91.0730 101.7280 Z" fill="#242d3a"/>
  <path transform="translate(-15.1515,-80.6127)" d="M 96.7516 103.3350 C 97.2448 103.3350 97.6931 103.1580 98.0527 102.8730 L 97.1743 101.9950 C 97.0468 102.0650 96.9077 102.1160 96.7517 102.1160 C 96.4506 102.1160 96.1973 101.9560 96.0361 101.7280 L 94.7087 101.7280 C 94.9359 102.6480 95.7625 103.3350 96.7516 103.3350 Z" fill="#242d3a"/>
  <path transform="translate(-15.1515,-80.6127)" d="M 329.1450 103.6730 C 328.4610 103.6730 327.8430 103.3890 327.3980 102.9360 L 326.8700 103.4640 C 327.4490 104.0520 328.2540 104.4190 329.1450 104.4190 C 330.7370 104.4190 332.0460 103.2510 332.2880 101.7280 L 331.5400 101.7280 C 331.3070 102.8370 330.3220 103.6730 329.1450 103.6730 Z" fill="#242d3a"/>
  <path transform="translate(-15.1515,-80.6127)" d="M 336.8660 103.6730 C 335.6890 103.6730 334.7040 102.8370 334.4710 101.7280 L 333.7230 101.7280 C 333.9660 103.2510 335.2750 104.4190 336.8660 104.4190 C 337.7350 104.4190 338.5200 104.0700 339.0960 103.5080 L 338.5670 102.9790 C 338.1260 103.4070 337.5280 103.6730 336.8660 103.6730 Z" fill="#242d3a"/>
  <path transform="translate(-15.1515,-80.6127)" d="M 300.6300 103.6730 C 300.0490 103.6730 299.5210 103.4610 299.1010 103.1210 L 298.5730 103.6490 C 299.1300 104.1220 299.8420 104.4190 300.6310 104.4190 C 302.2220 104.4190 303.5310 103.2510 303.7740 101.7280 L 303.0260 101.7280 C 302.7930 102.8370 301.8080 103.6730 300.6300 103.6730 Z" fill="#242d3a"/>
  <path transform="translate(-15.1515,-80.6127)" d="M 308.3520 103.6730 C 307.1750 103.6730 306.1890 102.8370 305.9570 101.7280 L 305.2090 101.7280 C 305.4510 103.2510 306.7600 104.4190 308.3520 104.4190 C 309.1540 104.4190 309.8770 104.1130 310.4380 103.6260 L 309.9100 103.0980 C 309.4850 103.4510 308.9470 103.6730 308.3520 103.6730 Z" fill="#242d3a"/>
  <path transform="translate(-15.1515,-80.6127)" d="M 41.6149 103.6730 C 40.4373 103.6730 39.4521 102.8370 39.2194 101.7280 L 38.4713 101.7280 C 38.7139 103.2510 40.0229 104.4190 41.6147 104.4190 C 42.5059 104.4190 43.3101 104.0520 43.8895 103.4640 L 43.3614 102.9360 C 42.9167 103.3890 42.2989 103.6730 41.6149 103.6730 Z" fill="#242d3a"/>
  <path transform="translate(-15.1515,-80.6127)" d="M 33.8932 103.6730 C 33.2319 103.6730 32.6333 103.4070 32.1922 102.9790 L 31.6639 103.5080 C 32.2397 104.0700 33.0248 104.4190 33.8931 104.4190 C 35.4850 104.4190 36.7940 103.2510 37.0366 101.7280 L 36.2886 101.7280 C 36.0559 102.8370 35.0707 103.6730 33.8932 103.6730 Z" fill="#242d3a"/>
  <path transform="translate(-15.1515,-80.6127)" d="M 70.1290 103.6730 C 68.9515 103.6730 67.9664 102.8370 67.7336 101.7280 L 66.9855 101.7280 C 67.2281 103.2510 68.5372 104.4190 70.1289 104.4190 C 70.9172 104.4190 71.6294 104.1220 72.1865 103.6490 L 71.6584 103.1210 C 71.2380 103.4610 70.7104 103.6730 70.1290 103.6730 Z" fill="#242d3a"/>
  <path transform="translate(-15.1515,-80.6127)" d="M 62.4075 103.6730 C 61.8129 103.6730 61.2744 103.4510 60.8498 103.0980 L 60.3216 103.6260 C 60.8824 104.1130 61.6060 104.4190 62.4074 104.4190 C 63.9992 104.4190 65.3082 103.2510 65.5508 101.7280 L 64.8029 101.7280 C 64.5701 102.8370 63.5850 103.6730 62.4075 103.6730 Z" fill="#242d3a"/>
  <path transform="translate(-15.1515,-80.6127)" d="M 274.4420 103.6730 C 273.7650 103.6730 273.1510 103.3960 272.7080 102.9500 L 272.1790 103.4780 C 272.7580 104.0590 273.5580 104.4190 274.4430 104.4190 C 276.0340 104.4190 277.3430 103.2510 277.5860 101.7280 L 276.8380 101.7280 C 276.6050 102.8370 275.6200 103.6730 274.4420 103.6730 Z" fill="#242d3a"/>
  <path transform="translate(-15.1515,-80.6127)" d="M 282.1640 103.6730 C 280.9870 103.6730 280.0010 102.8370 279.7690 101.7280 L 279.0210 101.7280 C 279.2630 103.2510 280.5720 104.4190 282.1640 104.4190 C 283.0390 104.4190 283.8310 104.0650 284.4080 103.4950 L 283.8800 102.9670 C 283.4370 103.4030 282.8320 103.6730 282.1640 103.6730 Z" fill="#242d3a"/>
  <path transform="translate(-15.1515,-80.6127)" d="M 247.8710 103.6730 C 247.2810 103.6730 246.7470 103.4550 246.3240 103.1060 L 245.7960 103.6340 C 246.3550 104.1170 247.0740 104.4190 247.8710 104.4190 C 249.4630 104.4190 250.7720 103.2510 251.0140 101.7280 L 250.2660 101.7280 C 250.0340 102.8370 249.0480 103.6730 247.8710 103.6730 Z" fill="#242d3a"/>
  <path transform="translate(-15.1515,-80.6127)" d="M 255.5930 103.6730 C 254.4150 103.6730 253.4300 102.8370 253.1970 101.7280 L 252.4490 101.7280 C 252.6920 103.2510 254.0010 104.4190 255.5930 104.4190 C 256.3860 104.4190 257.1020 104.1190 257.6610 103.6400 L 257.1330 103.1120 C 256.7110 103.4570 256.1790 103.6730 255.5930 103.6730 Z" fill="#242d3a"/>
  <path transform="translate(-15.1515,-80.6127)" d="M 221.6430 103.6730 C 220.9650 103.6730 220.3520 103.3960 219.9080 102.9500 L 219.3800 103.4780 C 219.9580 104.0590 220.7580 104.4190 221.6430 104.4190 C 223.2350 104.4190 224.5440 103.2510 224.7860 101.7280 L 224.0380 101.7280 C 223.8060 102.8370 222.8200 103.6730 221.6430 103.6730 Z" fill="#242d3a"/>
  <path transform="translate(-15.1515,-80.6127)" d="M 229.3650 103.6730 C 228.1870 103.6730 227.2020 102.8370 226.9690 101.7280 L 226.2210 101.7280 C 226.4640 103.2510 227.7730 104.4190 229.3650 104.4190 C 230.2400 104.4190 231.0310 104.0650 231.6080 103.4950 L 231.0800 102.9670 C 230.6380 103.4030 230.0330 103.6730 229.3650 103.6730 Z" fill="#242d3a"/>
  <path transform="translate(-15.1515,-80.6127)" d="M 195.0710 103.6730 C 194.4820 103.6730 193.9470 103.4550 193.5240 103.1060 L 192.9960 103.6340 C 193.5560 104.1170 194.2750 104.4190 195.0720 104.4190 C 196.6630 104.4190 197.9720 103.2510 198.2150 101.7280 L 197.4670 101.7280 C 197.2340 102.8370 196.2490 103.6730 195.0710 103.6730 Z" fill="#242d3a"/>
  <path transform="translate(-15.1515,-80.6127)" d="M 202.7930 103.6730 C 201.6150 103.6730 200.6300 102.8370 200.3980 101.7280 L 199.6500 101.7280 C 199.8920 103.2510 201.2010 104.4190 202.7930 104.4190 C 203.5860 104.4190 204.3030 104.1190 204.8610 103.6400 L 204.3330 103.1120 C 203.9110 103.4570 203.3790 103.6730 202.7930 103.6730 Z" fill="#242d3a"/>
  <path transform="translate(-15.1515,-80.6127)" d="M 168.6450 103.6730 C 167.9670 103.6730 167.3540 103.3960 166.9100 102.9500 L 166.3820 103.4780 C 166.9600 104.0590 167.7600 104.4190 168.6450 104.4190 C 170.2370 104.4190 171.5460 103.2510 171.7880 101.7280 L 171.0400 101.7280 C 170.8070 102.8370 169.8220 103.6730 168.6450 103.6730 Z" fill="#242d3a"/>
  <path transform="translate(-15.1515,-80.6127)" d="M 176.3660 103.6730 C 175.1890 103.6730 174.2040 102.8370 173.9710 101.7280 L 173.2230 101.7280 C 173.4660 103.2510 174.7750 104.4190 176.3670 104.4190 C 177.2420 104.4190 178.0330 104.0650 178.6100 103.4950 L 178.0820 102.9670 C 177.6400 103.4030 177.0350 103.6730 176.3660 103.6730 Z" fill="#242d3a"/>
  <path transform="translate(-15.1515,-80.6127)" d="M 142.0730 103.6730 C 141.4840 103.6730 140.9490 103.4550 140.5260 103.1060 L 139.9980 103.6340 C 140.5570 104.1170 141.2770 104.4190 142.0730 104.4190 C 143.6650 104.4190 144.9740 103.2510 145.2170 101.7280 L 144.4690 101.7280 C 144.2360 102.8370 143.2510 103.6730 142.0730 103.6730 Z" fill="#242d3a"/>
  <path transform="translate(-15.1515,-80.6127)" d="M 149.7950 103.6730 C 148.6170 103.6730 147.6320 102.8370 147.3990 101.7280 L 146.6510 101.7280 C 146.8940 103.2510 148.2030 104.4190 149.7950 104.4190 C 150.5880 104.4190 151.3050 104.1190 151.8630 103.6400 L 151.3350 103.1120 C 150.9130 103.4570 150.3810 103.6730 149.7950 103.6730 Z" fill="#242d3a"/>
  <path transform="translate(-15.1515,-80.6127)" d="M 115.6020 103.6730 C 114.9240 103.6730 114.3100 103.3960 113.8670 102.9500 L 113.3390 103.4780 C 113.9170 104.0590 114.7170 104.4190 115.6020 104.4190 C 117.1930 104.4190 118.5030 103.2510 118.7450 101.7280 L 117.9970 101.7280 C 117.7640 102.8370 116.7790 103.6730 115.6020 103.6730 Z" fill="#242d3a"/>
  <path transform="translate(-15.1515,-80.6127)" d="M 123.3230 103.6730 C 122.1460 103.6730 121.1610 102.8370 120.9280 101.7280 L 120.1800 101.7280 C 120.4220 103.2510 121.7320 104.4190 123.3230 104.4190 C 124.1980 104.4190 124.9900 104.0650 125.5670 103.4950 L 125.0390 102.9670 C 124.5970 103.4030 123.9910 103.6730 123.3230 103.6730 Z" fill="#242d3a"/>
  <path transform="translate(-15.1515,-80.6127)" d="M 89.0301 103.6730 C 88.4404 103.6730 87.9060 103.4550 87.4829 103.1060 L 86.9548 103.6340 C 87.5142 104.1170 88.2336 104.4190 89.0302 104.4190 C 90.6219 104.4190 91.9310 103.2510 92.1736 101.7280 L 91.4255 101.7280 C 91.1927 102.8370 90.2076 103.6730 89.0301 103.6730 Z" fill="#242d3a"/>
  <path transform="translate(-15.1515,-80.6127)" d="M 96.7516 103.6730 C 95.5741 103.6730 94.5890 102.8370 94.3563 101.7280 L 93.6083 101.7280 C 93.8509 103.2510 95.1600 104.4190 96.7517 104.4190 C 97.5450 104.4190 98.2615 104.1190 98.8200 103.6400 L 98.2918 103.1120 C 97.8698 103.4570 97.3381 103.6730 96.7516 103.6730 Z" fill="#242d3a"/>
</svg>
