<?xml version="1.0" encoding="UTF-8"?>
<svg xmlns="http://www.w3.org/2000/svg" viewBox="0 0 340.2241 24.3670" width="340.2241" height="24.3670" fill="none">
  <path transform="translate(-14.5079,-42.5080)" d="M 284.9010 50.6691 C 284.9010 51.0957 284.5550 51.4415 284.1280 51.4415 L 281.2680 51.4415 C 280.8410 51.4415 280.4950 51.0957 280.4950 50.6691 L 280.4950 47.8085 C 280.4950 47.3819 280.8410 47.0360 281.2680 47.0360 L 284.1280 47.0360 C 284.5550 47.0360 284.9010 47.3819 284.9010 47.8085 L 284.9010 50.6691 Z M 285.1770 45.5151 L 280.2190 45.5151 C 279.4910 45.5151 278.8990 46.1071 278.8990 46.8348 L 278.8990 55.7133 L 286.4970 55.7133 L 286.4970 46.8348 C 286.4970 46.1071 285.9050 45.5151 285.1770 45.5151 Z" fill="#242d3a"/>
  <path transform="translate(-14.5079,-42.5080)" d="M 247.3050 50.6691 C 247.3050 51.0957 246.9590 51.4415 246.5330 51.4415 L 243.6720 51.4415 C 243.2450 51.4415 242.9000 51.0957 242.9000 50.6691 L 242.9000 47.8085 C 242.9000 47.3819 243.2450 47.0360 243.6720 47.0360 L 246.5330 47.0360 C 246.9590 47.0360 247.3050 47.3819 247.3050 47.8085 L 247.3050 50.6691 Z M 247.5820 45.5151 L 242.6230 45.5151 C 241.8960 45.5151 241.3040 46.1071 241.3040 46.8348 L 241.3040 55.7133 L 248.9010 55.7133 L 248.9010 46.8348 C 248.9010 46.1071 248.3090 45.5151 247.5820 45.5151 Z" fill="#242d3a"/>
  <path transform="translate(-14.5079,-42.5080)" d="M 232.0290 50.6691 C 232.0290 51.0957 231.6830 51.4415 231.2570 51.4415 L 228.3960 51.4415 C 227.9700 51.4415 227.6240 51.0957 227.6240 50.6691 L 227.6240 47.8085 C 227.6240 47.3819 227.9700 47.0360 228.3960 47.0360 L 231.2570 47.0360 C 231.6830 47.0360 232.0290 47.3819 232.0290 47.8085 L 232.0290 50.6691 Z M 232.3060 45.5151 L 227.3480 45.5151 C 226.6200 45.5151 226.0280 46.1071 226.0280 46.8348 L 226.0280 55.7133 L 233.6250 55.7133 L 233.6250 46.8348 C 233.6250 46.1071 233.0340 45.5151 232.3060 45.5151 Z" fill="#242d3a"/>
  <path transform="translate(-14.5079,-42.5080)" d="M 194.4340 50.6691 C 194.4340 51.0957 194.0880 51.4415 193.6610 51.4415 L 190.8000 51.4415 C 190.3740 51.4415 190.0280 51.0957 190.0280 50.6691 L 190.0280 47.8085 C 190.0280 47.3819 190.3740 47.0360 190.8000 47.0360 L 193.6610 47.0360 C 194.0880 47.0360 194.4340 47.3819 194.4340 47.8085 L 194.4340 50.6691 Z M 194.7100 45.5151 L 189.7520 45.5151 C 189.0240 45.5151 188.4320 46.1071 188.4320 46.8348 L 188.4320 55.7133 L 196.0300 55.7133 L 196.0300 46.8348 C 196.0300 46.1071 195.4380 45.5151 194.7100 45.5151 Z" fill="#242d3a"/>
  <path transform="translate(-14.5079,-42.5080)" d="M 179.0310 50.6691 C 179.0310 51.0957 178.6850 51.4415 178.2590 51.4415 L 175.3980 51.4415 C 174.9710 51.4415 174.6260 51.0957 174.6260 50.6691 L 174.6260 47.8085 C 174.6260 47.3819 174.9710 47.0360 175.3980 47.0360 L 178.2590 47.0360 C 178.6850 47.0360 179.0310 47.3819 179.0310 47.8085 L 179.0310 50.6691 Z M 179.3080 45.5151 L 174.3490 45.5151 C 173.6220 45.5151 173.0300 46.1071 173.0300 46.8348 L 173.0300 55.7133 L 180.6270 55.7133 L 180.6270 46.8348 C 180.6270 46.1071 180.0350 45.5151 179.3080 45.5151 Z" fill="#242d3a"/>
  <path transform="translate(-14.5079,-42.5080)" d="M 141.4350 50.6691 C 141.4350 51.0957 141.0900 51.4415 140.6630 51.4415 L 137.8020 51.4415 C 137.3760 51.4415 137.0300 51.0957 137.0300 50.6691 L 137.0300 47.8085 C 137.0300 47.3819 137.3760 47.0360 137.8020 47.0360 L 140.6630 47.0360 C 141.0900 47.0360 141.4350 47.3819 141.4350 47.8085 L 141.4350 50.6691 Z M 141.7120 45.5151 L 136.7540 45.5151 C 136.0260 45.5151 135.4340 46.1071 135.4340 46.8348 L 135.4340 55.7133 L 143.0320 55.7133 L 143.0320 46.8348 C 143.0320 46.1071 142.4400 45.5151 141.7120 45.5151 Z" fill="#242d3a"/>
  <path transform="translate(-14.5079,-42.5080)" d="M 125.9880 50.6691 C 125.9880 51.0957 125.6420 51.4415 125.2160 51.4415 L 122.3550 51.4415 C 121.9280 51.4415 121.5820 51.0957 121.5820 50.6691 L 121.5820 47.8085 C 121.5820 47.3819 121.9280 47.0360 122.3550 47.0360 L 125.2160 47.0360 C 125.6420 47.0360 125.9880 47.3819 125.9880 47.8085 L 125.9880 50.6691 Z M 126.2640 45.5151 L 121.3060 45.5151 C 120.5780 45.5151 119.9870 46.1071 119.9870 46.8348 L 119.9870 55.7133 L 127.5840 55.7133 L 127.5840 46.8348 C 127.5840 46.1071 126.9920 45.5151 126.2640 45.5151 Z" fill="#242d3a"/>
  <path transform="translate(-14.5079,-42.5080)" d="M 88.3922 50.6691 C 88.3922 51.0957 88.0463 51.4415 87.6198 51.4415 L 84.7591 51.4415 C 84.3325 51.4415 83.9867 51.0957 83.9867 50.6691 L 83.9867 47.8085 C 83.9867 47.3819 84.3325 47.0360 84.7591 47.0360 L 87.6198 47.0360 C 88.0463 47.0360 88.3922 47.3819 88.3922 47.8085 L 88.3922 50.6691 Z M 88.6689 45.5151 L 83.7106 45.5151 C 82.9829 45.5151 82.3910 46.1071 82.3910 46.8348 L 82.3910 55.7133 L 89.9885 55.7133 L 89.9885 46.8348 C 89.9885 46.1071 89.3966 45.5151 88.6689 45.5151 Z" fill="#242d3a"/>
  <path transform="translate(-14.5079,-42.5080)" d="M 299.5270 50.6691 C 299.5270 51.0957 299.1820 51.4415 298.7550 51.4415 L 295.8940 51.4415 C 295.4680 51.4415 295.1220 51.0957 295.1220 50.6691 L 295.1220 47.8085 C 295.1220 47.3819 295.4680 47.0360 295.8940 47.0360 L 298.7550 47.0360 C 299.1820 47.0360 299.5270 47.3819 299.5270 47.8085 L 299.5270 50.6691 Z M 299.8040 45.5151 L 294.8450 45.5151 C 294.1180 45.5151 293.5260 46.1071 293.5260 46.8348 L 293.5260 55.7133 L 301.1230 55.7133 L 301.1230 46.8348 C 301.1230 46.1071 300.5310 45.5151 299.8040 45.5151 Z" fill="#242d3a"/>
  <path transform="translate(-14.5079,-42.5080)" d="M 329.8940 50.6691 C 329.8940 51.0957 329.5480 51.4415 329.1220 51.4415 L 326.2610 51.4415 C 325.8340 51.4415 325.4890 51.0957 325.4890 50.6691 L 325.4890 47.8085 C 325.4890 47.3819 325.8340 47.0360 326.2610 47.0360 L 329.1220 47.0360 C 329.5480 47.0360 329.8940 47.3819 329.8940 47.8085 L 329.8940 50.6691 Z M 330.1710 45.5151 L 325.2120 45.5151 C 324.4850 45.5151 323.8930 46.1071 323.8930 46.8348 L 323.8930 55.7133 L 331.4900 55.7133 L 331.4900 46.8348 C 331.4900 46.1071 330.8980 45.5151 330.1710 45.5151 Z" fill="#242d3a"/>
  <path transform="translate(-14.5079,-42.5080)" d="M 74.1185 50.6691 C 74.1185 51.0957 73.7726 51.4415 73.3460 51.4415 L 70.4854 51.4415 C 70.0588 51.4415 69.7130 51.0957 69.7130 50.6691 L 69.7130 47.8085 C 69.7130 47.3819 70.0588 47.0360 70.4854 47.0360 L 73.3460 47.0360 C 73.7726 47.0360 74.1185 47.3819 74.1185 47.8085 L 74.1185 50.6691 Z M 74.3951 45.5151 L 69.4368 45.5151 C 68.7091 45.5151 68.1172 46.1071 68.1172 46.8348 L 68.1172 55.7133 L 75.7147 55.7133 L 75.7147 46.8348 C 75.7147 46.1071 75.1228 45.5151 74.3951 45.5151 Z" fill="#242d3a"/>
  <path transform="translate(-14.5079,-42.5080)" d="M 43.7517 50.6691 C 43.7517 51.0957 43.4059 51.4415 42.9792 51.4415 L 40.1187 51.4415 C 39.6920 51.4415 39.3462 51.0957 39.3462 50.6691 L 39.3462 47.8085 C 39.3462 47.3819 39.6920 47.0360 40.1187 47.0360 L 42.9792 47.0360 C 43.4059 47.0360 43.7517 47.3819 43.7517 47.8085 L 43.7517 50.6691 Z M 44.0280 45.5151 L 39.0697 45.5151 C 38.3420 45.5151 37.7500 46.1071 37.7500 46.8348 L 37.7500 55.7133 L 45.3476 55.7133 L 45.3476 46.8348 C 45.3476 46.1071 44.7557 45.5151 44.0280 45.5151 Z" fill="#242d3a"/>
  <path transform="translate(-14.5079,-42.5080)" d="M 288.2350 57.7474 L 286.9510 57.7474 L 286.9510 58.6376 C 286.9510 59.6160 286.1550 60.4116 285.1770 60.4116 L 280.2190 60.4116 C 279.2410 60.4116 278.4450 59.6160 278.4450 58.6376 L 278.4450 57.7474 L 249.3560 57.7474 L 249.3560 58.6376 C 249.3560 59.6160 248.5600 60.4116 247.5820 60.4116 L 242.6230 60.4116 C 241.6460 60.4116 240.8490 59.6160 240.8490 58.6376 L 240.8490 57.7474 L 239.7300 57.7474 L 239.7300 55.7133 L 240.8490 55.7133 L 240.8490 46.8348 C 240.8490 45.8564 241.6460 45.0607 242.6230 45.0607 L 247.5820 45.0607 C 248.5600 45.0607 249.3560 45.8564 249.3560 46.8348 L 249.3560 55.7133 L 278.4450 55.7133 L 278.4450 46.8348 C 278.4450 45.8564 279.2410 45.0607 280.2190 45.0607 L 285.1770 45.0607 C 286.1550 45.0607 286.9510 45.8564 286.9510 46.8348 L 286.9510 55.7133 L 288.2350 55.7133 L 288.2350 57.7474 Z M 252.3700 47.8085 C 252.3700 47.3819 252.7160 47.0360 253.1420 47.0360 L 256.0030 47.0360 C 256.4290 47.0360 256.7750 47.3819 256.7750 47.8085 L 256.7750 50.6691 C 256.7750 51.0957 256.4290 51.4415 256.0030 51.4415 L 253.1420 51.4415 C 252.7160 51.4415 252.3700 51.0957 252.3700 50.6691 L 252.3700 47.8085 Z M 258.7400 47.8085 C 258.7400 47.3819 259.0850 47.0360 259.5120 47.0360 L 262.3730 47.0360 C 262.7990 47.0360 263.1450 47.3819 263.1450 47.8085 L 263.1450 50.6691 C 263.1450 51.0957 262.7990 51.4415 262.3730 51.4415 L 259.5120 51.4415 C 259.0850 51.4415 258.7400 51.0957 258.7400 50.6691 L 258.7400 47.8085 Z M 264.8480 47.8085 C 264.8480 47.3819 265.1940 47.0360 265.6210 47.0360 L 268.4810 47.0360 C 268.9080 47.0360 269.2540 47.3819 269.2540 47.8085 L 269.2540 50.6691 C 269.2540 51.0957 268.9080 51.4415 268.4810 51.4415 L 265.6210 51.4415 C 265.1940 51.4415 264.8480 51.0957 264.8480 50.6691 L 264.8480 47.8085 Z M 271.0250 47.8085 C 271.0250 47.3819 271.3710 47.0360 271.7970 47.0360 L 274.6580 47.0360 C 275.0850 47.0360 275.4300 47.3819 275.4300 47.8085 L 275.4300 50.6691 C 275.4300 51.0957 275.0850 51.4415 274.6580 51.4415 L 271.7970 51.4415 C 271.3710 51.4415 271.0250 51.0957 271.0250 50.6691 L 271.0250 47.8085 Z M 288.1830 43.5080 L 239.8100 43.5080 C 239.0610 43.5080 238.4540 44.1152 238.4540 44.8641 L 238.4540 61.1782 C 238.4540 61.9272 239.0610 62.5344 239.8100 62.5344 L 288.1830 62.5344 C 288.9320 62.5344 289.5390 61.9272 289.5390 61.1782 L 289.5390 44.8641 C 289.5390 44.1152 288.9320 43.5080 288.1830 43.5080 Z" fill="#242d3a"/>
  <path transform="translate(-14.5079,-42.5080)" d="M 331.9450 57.7474 L 331.9450 58.6376 C 331.9450 59.6160 331.1490 60.4116 330.1710 60.4116 L 325.2120 60.4116 C 324.2340 60.4116 323.4380 59.6160 323.4380 58.6376 L 323.4380 57.7474 L 301.5780 57.7474 L 301.5780 58.6376 C 301.5780 59.6160 300.7810 60.4116 299.8040 60.4116 L 294.8450 60.4116 C 293.8670 60.4116 293.0710 59.6160 293.0710 58.6376 L 293.0710 57.7474 L 292.4380 57.7474 L 292.4380 55.7133 L 293.0710 55.7133 L 293.0710 46.8348 C 293.0710 45.8564 293.8670 45.0607 294.8450 45.0607 L 299.8040 45.0607 C 300.7810 45.0607 301.5780 45.8564 301.5780 46.8348 L 301.5780 55.7133 L 323.4380 55.7133 L 323.4380 46.8348 C 323.4380 45.8564 324.2340 45.0607 325.2120 45.0607 L 330.1710 45.0607 C 331.1490 45.0607 331.9450 45.8564 331.9450 46.8348 L 331.9450 55.7133 L 352.2840 55.7133 C 352.6250 56.6334 352.7200 57.7474 352.7200 57.7474 L 331.9450 57.7474 Z M 303.1940 47.8085 C 303.1940 47.3819 303.5400 47.0360 303.9670 47.0360 L 306.8270 47.0360 C 307.2540 47.0360 307.6000 47.3819 307.6000 47.8085 L 307.6000 50.6691 C 307.6000 51.0957 307.2540 51.4415 306.8270 51.4415 L 303.9670 51.4415 C 303.5400 51.4415 303.1940 51.0957 303.1940 50.6691 L 303.1940 47.8085 Z M 309.5640 47.8085 C 309.5640 47.3819 309.9100 47.0360 310.3360 47.0360 L 313.1970 47.0360 C 313.6230 47.0360 313.9690 47.3819 313.9690 47.8085 L 313.9690 50.6691 C 313.9690 51.0957 313.6230 51.4415 313.1970 51.4415 L 310.3360 51.4415 C 309.9100 51.4415 309.5640 51.0957 309.5640 50.6691 L 309.5640 47.8085 Z M 315.7740 47.8085 C 315.7740 47.3819 316.1200 47.0360 316.5470 47.0360 L 319.4070 47.0360 C 319.8340 47.0360 320.1800 47.3819 320.1800 47.8085 L 320.1800 50.6691 C 320.1800 51.0957 319.8340 51.4415 319.4070 51.4415 L 316.5470 51.4415 C 316.1200 51.4415 315.7740 51.0957 315.7740 50.6691 L 315.7740 47.8085 Z M 333.0090 46.9195 C 333.0090 46.0184 333.7390 45.2879 334.6400 45.2879 L 334.9990 45.2879 C 335.6660 45.2879 336.2650 45.6934 336.5130 46.3121 L 338.2980 50.7619 C 338.7280 51.8339 337.9390 53.0009 336.7840 53.0009 L 334.6400 53.0009 C 333.7390 53.0009 333.0090 52.2704 333.0090 51.3693 L 333.0090 46.9195 Z M 337.8870 45.2879 L 343.1330 45.2879 C 343.1330 45.2879 348.7260 47.4069 351.1290 53.0009 L 344.4600 53.0009 C 341.9500 53.0009 339.6820 51.5068 338.6910 49.2013 L 337.2730 45.9024 C 337.2730 45.5630 337.5480 45.2879 337.8870 45.2879 Z M 353.5460 59.3578 C 353.5460 50.6042 346.4500 43.5080 337.6970 43.5080 L 293.3720 43.5080 C 292.4830 43.5080 291.7620 44.2290 291.7620 45.1183 L 291.7620 60.9240 C 291.7620 61.8134 292.4830 62.5344 293.3720 62.5344 L 349.4780 62.5344 C 353.7320 62.5344 353.5460 59.3578 353.5460 59.3578 Z" fill="#242d3a"/>
  <path transform="translate(-14.5079,-42.5080)" d="M 235.3640 57.7474 L 234.0800 57.7474 L 234.0800 58.6376 C 234.0800 59.6160 233.2840 60.4116 232.3060 60.4116 L 227.3480 60.4116 C 226.3700 60.4116 225.5730 59.6160 225.5730 58.6376 L 225.5730 57.7474 L 196.4840 57.7474 L 196.4840 58.6376 C 196.4840 59.6160 195.6880 60.4116 194.7100 60.4116 L 189.7520 60.4116 C 188.7740 60.4116 187.9780 59.6160 187.9780 58.6376 L 187.9780 57.7474 L 186.8590 57.7474 L 186.8590 55.7133 L 187.9780 55.7133 L 187.9780 46.8348 C 187.9780 45.8564 188.7740 45.0607 189.7520 45.0607 L 194.7100 45.0607 C 195.6880 45.0607 196.4840 45.8564 196.4840 46.8348 L 196.4840 55.7133 L 225.5730 55.7133 L 225.5730 46.8348 C 225.5730 45.8564 226.3700 45.0607 227.3480 45.0607 L 232.3060 45.0607 C 233.2840 45.0607 234.0800 45.8564 234.0800 46.8348 L 234.0800 55.7133 L 235.3640 55.7133 L 235.3640 57.7474 Z M 199.4980 47.8085 C 199.4980 47.3819 199.8440 47.0360 200.2710 47.0360 L 203.1310 47.0360 C 203.5580 47.0360 203.9040 47.3819 203.9040 47.8085 L 203.9040 50.6691 C 203.9040 51.0957 203.5580 51.4415 203.1310 51.4415 L 200.2710 51.4415 C 199.8440 51.4415 199.4980 51.0957 199.4980 50.6691 L 199.4980 47.8085 Z M 205.8680 47.8085 C 205.8680 47.3819 206.2140 47.0360 206.6400 47.0360 L 209.5010 47.0360 C 209.9280 47.0360 210.2730 47.3819 210.2730 47.8085 L 210.2730 50.6691 C 210.2730 51.0957 209.9280 51.4415 209.5010 51.4415 L 206.6400 51.4415 C 206.2140 51.4415 205.8680 51.0957 205.8680 50.6691 L 205.8680 47.8085 Z M 211.9770 47.8085 C 211.9770 47.3819 212.3230 47.0360 212.7490 47.0360 L 215.6100 47.0360 C 216.0370 47.0360 216.3820 47.3819 216.3820 47.8085 L 216.3820 50.6691 C 216.3820 51.0957 216.0370 51.4415 215.6100 51.4415 L 212.7490 51.4415 C 212.3230 51.4415 211.9770 51.0957 211.9770 50.6691 L 211.9770 47.8085 Z M 218.1540 47.8085 C 218.1540 47.3819 218.4990 47.0360 218.9260 47.0360 L 221.7870 47.0360 C 222.2130 47.0360 222.5590 47.3819 222.5590 47.8085 L 222.5590 50.6691 C 222.5590 51.0957 222.2130 51.4415 221.7870 51.4415 L 218.9260 51.4415 C 218.4990 51.4415 218.1540 51.0957 218.1540 50.6691 L 218.1540 47.8085 Z M 235.3120 43.5080 L 186.9390 43.5080 C 186.1900 43.5080 185.5830 44.1152 185.5830 44.8641 L 185.5830 61.1782 C 185.5830 61.9272 186.1900 62.5344 186.9390 62.5344 L 235.3120 62.5344 C 236.0610 62.5344 236.6680 61.9272 236.6680 61.1782 L 236.6680 44.8641 C 236.6680 44.1152 236.0610 43.5080 235.3120 43.5080 Z" fill="#242d3a"/>
  <path transform="translate(-14.5079,-42.5080)" d="M 182.3660 57.7474 L 181.0820 57.7474 L 181.0820 58.6376 C 181.0820 59.6160 180.2860 60.4116 179.3080 60.4116 L 174.3490 60.4116 C 173.3710 60.4116 172.5750 59.6160 172.5750 58.6376 L 172.5750 57.7474 L 143.4860 57.7474 L 143.4860 58.6376 C 143.4860 59.6160 142.6900 60.4116 141.7120 60.4116 L 136.7540 60.4116 C 135.7760 60.4116 134.9800 59.6160 134.9800 58.6376 L 134.9800 57.7474 L 133.8610 57.7474 L 133.8610 55.7133 L 134.9800 55.7133 L 134.9800 46.8348 C 134.9800 45.8564 135.7760 45.0607 136.7540 45.0607 L 141.7120 45.0607 C 142.6900 45.0607 143.4860 45.8564 143.4860 46.8348 L 143.4860 55.7133 L 172.5750 55.7133 L 172.5750 46.8348 C 172.5750 45.8564 173.3710 45.0607 174.3490 45.0607 L 179.3080 45.0607 C 180.2860 45.0607 181.0820 45.8564 181.0820 46.8348 L 181.0820 55.7133 L 182.3660 55.7133 L 182.3660 57.7474 Z M 146.5000 47.8085 C 146.5000 47.3819 146.8460 47.0360 147.2730 47.0360 L 150.1330 47.0360 C 150.5600 47.0360 150.9060 47.3819 150.9060 47.8085 L 150.9060 50.6691 C 150.9060 51.0957 150.5600 51.4415 150.1330 51.4415 L 147.2730 51.4415 C 146.8460 51.4415 146.5000 51.0957 146.5000 50.6691 L 146.5000 47.8085 Z M 152.8700 47.8085 C 152.8700 47.3819 153.2160 47.0360 153.6420 47.0360 L 156.5030 47.0360 C 156.9300 47.0360 157.2750 47.3819 157.2750 47.8085 L 157.2750 50.6691 C 157.2750 51.0957 156.9300 51.4415 156.5030 51.4415 L 153.6420 51.4415 C 153.2160 51.4415 152.8700 51.0957 152.8700 50.6691 L 152.8700 47.8085 Z M 158.9790 47.8085 C 158.9790 47.3819 159.3250 47.0360 159.7510 47.0360 L 162.6120 47.0360 C 163.0380 47.0360 163.3840 47.3819 163.3840 47.8085 L 163.3840 50.6691 C 163.3840 51.0957 163.0380 51.4415 162.6120 51.4415 L 159.7510 51.4415 C 159.3250 51.4415 158.9790 51.0957 158.9790 50.6691 L 158.9790 47.8085 Z M 165.1550 47.8085 C 165.1550 47.3819 165.5010 47.0360 165.9280 47.0360 L 168.7880 47.0360 C 169.2150 47.0360 169.5610 47.3819 169.5610 47.8085 L 169.5610 50.6691 C 169.5610 51.0957 169.2150 51.4415 168.7880 51.4415 L 165.9280 51.4415 C 165.5010 51.4415 165.1550 51.0957 165.1550 50.6691 L 165.1550 47.8085 Z M 182.3140 43.5080 L 133.9400 43.5080 C 133.1910 43.5080 132.5840 44.1152 132.5840 44.8641 L 132.5840 61.1782 C 132.5840 61.9272 133.1910 62.5344 133.9400 62.5344 L 182.3140 62.5344 C 183.0630 62.5344 183.6700 61.9272 183.6700 61.1782 L 183.6700 44.8641 C 183.6700 44.1152 183.0630 43.5080 182.3140 43.5080 Z" fill="#242d3a"/>
  <path transform="translate(-14.5079,-42.5080)" d="M 129.3230 57.7474 L 128.0380 57.7474 L 128.0380 58.6376 C 128.0380 59.6160 127.2420 60.4116 126.2640 60.4116 L 121.3060 60.4116 C 120.3280 60.4116 119.5320 59.6160 119.5320 58.6376 L 119.5320 57.7474 L 90.4429 57.7474 L 90.4429 58.6376 C 90.4429 59.6160 89.6469 60.4116 88.6689 60.4116 L 83.7106 60.4116 C 82.7327 60.4116 81.9366 59.6160 81.9366 58.6376 L 81.9366 57.7474 L 80.8175 57.7474 L 80.8175 55.7133 L 81.9366 55.7133 L 81.9366 46.8348 C 81.9366 45.8564 82.7327 45.0607 83.7106 45.0607 L 88.6689 45.0607 C 89.6469 45.0607 90.4429 45.8564 90.4429 46.8348 L 90.4429 55.7133 L 119.5320 55.7133 L 119.5320 46.8348 C 119.5320 45.8564 120.3280 45.0607 121.3060 45.0607 L 126.2640 45.0607 C 127.2420 45.0607 128.0380 45.8564 128.0380 46.8348 L 128.0380 55.7133 L 129.3230 55.7133 L 129.3230 57.7474 Z M 93.4569 47.8085 C 93.4569 47.3819 93.8028 47.0360 94.2294 47.0360 L 97.0900 47.0360 C 97.5166 47.0360 97.8624 47.3819 97.8624 47.8085 L 97.8624 50.6691 C 97.8624 51.0957 97.5166 51.4415 97.0900 51.4415 L 94.2294 51.4415 C 93.8028 51.4415 93.4569 51.0957 93.4569 50.6691 L 93.4569 47.8085 Z M 99.8267 47.8085 C 99.8267 47.3819 100.1720 47.0360 100.5990 47.0360 L 103.4600 47.0360 C 103.8860 47.0360 104.2320 47.3819 104.2320 47.8085 L 104.2320 50.6691 C 104.2320 51.0957 103.8860 51.4415 103.4600 51.4415 L 100.5990 51.4415 C 100.1720 51.4415 99.8267 51.0957 99.8267 50.6691 L 99.8267 47.8085 Z M 105.9360 47.8085 C 105.9360 47.3819 106.2810 47.0360 106.7080 47.0360 L 109.5690 47.0360 C 109.9950 47.0360 110.3410 47.3819 110.3410 47.8085 L 110.3410 50.6691 C 110.3410 51.0957 109.9950 51.4415 109.5690 51.4415 L 106.7080 51.4415 C 106.2810 51.4415 105.9360 51.0957 105.9360 50.6691 L 105.9360 47.8085 Z M 112.1120 47.8085 C 112.1120 47.3819 112.4580 47.0360 112.8850 47.0360 L 115.7450 47.0360 C 116.1720 47.0360 116.5180 47.3819 116.5180 47.8085 L 116.5180 50.6691 C 116.5180 51.0957 116.1720 51.4415 115.7450 51.4415 L 112.8850 51.4415 C 112.4580 51.4415 112.1120 51.0957 112.1120 50.6691 L 112.1120 47.8085 Z M 129.2710 43.5080 L 80.8972 43.5080 C 80.1483 43.5080 79.5411 44.1152 79.5411 44.8641 L 79.5411 61.1782 C 79.5411 61.9272 80.1483 62.5344 80.8972 62.5344 L 129.2710 62.5344 C 130.0190 62.5344 130.6270 61.9272 130.6270 61.1782 L 130.6270 44.8641 C 130.6270 44.1152 130.0190 43.5080 129.2710 43.5080 Z" fill="#242d3a"/>
  <path transform="translate(-14.5079,-42.5080)" d="M 76.8019 57.7474 L 76.1691 57.7474 L 76.1691 58.6376 C 76.1691 59.6160 75.3730 60.4116 74.3951 60.4116 L 69.4368 60.4116 C 68.4589 60.4116 67.6628 59.6160 67.6628 58.6376 L 67.6628 57.7474 L 45.8019 57.7474 L 45.8019 58.6376 C 45.8019 59.6160 45.0059 60.4116 44.0280 60.4116 L 39.0697 60.4116 C 38.0917 60.4116 37.2957 59.6160 37.2957 58.6376 L 37.2957 57.7474 L 16.5208 57.7474 C 16.5208 57.7474 16.6154 56.6334 16.9562 55.7133 L 37.2957 55.7133 L 37.2957 46.8348 C 37.2957 45.8564 38.0917 45.0607 39.0697 45.0607 L 44.0280 45.0607 C 45.0059 45.0607 45.8019 45.8564 45.8019 46.8348 L 45.8019 55.7133 L 67.6628 55.7133 L 67.6628 46.8348 C 67.6628 45.8564 68.4589 45.0607 69.4368 45.0607 L 74.3951 45.0607 C 75.3730 45.0607 76.1691 45.8564 76.1691 46.8348 L 76.1691 55.7133 L 76.8019 55.7133 L 76.8019 57.7474 Z M 26.1072 45.2879 L 31.3531 45.2879 C 31.6925 45.2879 31.9676 45.5630 31.9676 45.9024 L 30.5496 49.2013 C 29.5586 51.5068 27.2900 53.0009 24.7805 53.0009 L 18.1111 53.0009 C 20.5139 47.4069 26.1072 45.2879 26.1072 45.2879 Z M 34.2415 45.2879 L 34.6000 45.2879 C 35.5011 45.2879 36.2316 46.0184 36.2316 46.9195 L 36.2316 51.3693 C 36.2316 52.2704 35.5011 53.0009 34.6000 53.0009 L 32.4566 53.0009 C 31.3016 53.0009 30.5123 51.8339 30.9423 50.7619 L 32.7271 46.3121 C 32.9753 45.6934 33.5748 45.2879 34.2415 45.2879 Z M 49.0605 47.8085 C 49.0605 47.3819 49.4064 47.0360 49.8331 47.0360 L 52.6936 47.0360 C 53.1202 47.0360 53.4661 47.3819 53.4661 47.8085 L 53.4661 50.6691 C 53.4661 51.0957 53.1202 51.4415 52.6936 51.4415 L 49.8331 51.4415 C 49.4064 51.4415 49.0605 51.0957 49.0605 50.6691 L 49.0605 47.8085 Z M 55.2711 47.8085 C 55.2711 47.3819 55.6169 47.0360 56.0435 47.0360 L 58.9041 47.0360 C 59.3307 47.0360 59.6765 47.3819 59.6765 47.8085 L 59.6765 50.6691 C 59.6765 51.0957 59.3307 51.4415 58.9041 51.4415 L 56.0435 51.4415 C 55.6169 51.4415 55.2711 51.0957 55.2711 50.6691 L 55.2711 47.8085 Z M 61.6407 47.8085 C 61.6407 47.3819 61.9866 47.0360 62.4133 47.0360 L 65.2738 47.0360 C 65.7004 47.0360 66.0463 47.3819 66.0463 47.8085 L 66.0463 50.6691 C 66.0463 51.0957 65.7004 51.4415 65.2738 51.4415 L 62.4133 51.4415 C 61.9866 51.4415 61.6407 51.0957 61.6407 50.6691 L 61.6407 47.8085 Z M 75.8683 43.5080 L 31.5438 43.5080 C 22.7902 43.5080 15.6940 50.6042 15.6940 59.3578 C 15.6940 59.3578 15.5079 62.5344 19.7624 62.5344 L 75.8683 62.5344 C 76.7578 62.5344 77.4787 61.8134 77.4787 60.9240 L 77.4787 45.1183 C 77.4787 44.2290 76.7578 43.5080 75.8683 43.5080 Z" fill="#242d3a"/>
  <path transform="translate(-14.5079,-42.5080)" d="M 278.8990 58.6376 C 278.8990 59.3653 279.4910 59.9572 280.2190 59.9572 L 285.1770 59.9572 C 285.9050 59.9572 286.4970 59.3653 286.4970 58.6376 L 286.4970 57.7474 L 278.8990 57.7474 L 278.8990 58.6376 Z" fill="#242d3a"/>
  <path transform="translate(-14.5079,-42.5080)" d="M 241.3040 58.6376 C 241.3040 59.3653 241.8960 59.9572 242.6230 59.9572 L 247.5820 59.9572 C 248.3090 59.9572 248.9010 59.3653 248.9010 58.6376 L 248.9010 57.7474 L 241.3040 57.7474 L 241.3040 58.6376 Z" fill="#242d3a"/>
  <path transform="translate(-14.5079,-42.5080)" d="M 226.0280 58.6376 C 226.0280 59.3653 226.6200 59.9572 227.3480 59.9572 L 232.3060 59.9572 C 233.0340 59.9572 233.6250 59.3653 233.6250 58.6376 L 233.6250 57.7474 L 226.0280 57.7474 L 226.0280 58.6376 Z" fill="#242d3a"/>
  <path transform="translate(-14.5079,-42.5080)" d="M 188.4320 58.6376 C 188.4320 59.3653 189.0240 59.9572 189.7520 59.9572 L 194.7100 59.9572 C 195.4380 59.9572 196.0300 59.3653 196.0300 58.6376 L 196.0300 57.7474 L 188.4320 57.7474 L 188.4320 58.6376 Z" fill="#242d3a"/>
  <path transform="translate(-14.5079,-42.5080)" d="M 173.0300 58.6376 C 173.0300 59.3653 173.6220 59.9572 174.3490 59.9572 L 179.3080 59.9572 C 180.0350 59.9572 180.6270 59.3653 180.6270 58.6376 L 180.6270 57.7474 L 173.0300 57.7474 L 173.0300 58.6376 Z" fill="#242d3a"/>
  <path transform="translate(-14.5079,-42.5080)" d="M 135.4340 58.6376 C 135.4340 59.3653 136.0260 59.9572 136.7540 59.9572 L 141.7120 59.9572 C 142.4400 59.9572 143.0320 59.3653 143.0320 58.6376 L 143.0320 57.7474 L 135.4340 57.7474 L 135.4340 58.6376 Z" fill="#242d3a"/>
  <path transform="translate(-14.5079,-42.5080)" d="M 119.9870 58.6376 C 119.9870 59.3653 120.5780 59.9572 121.3060 59.9572 L 126.2640 59.9572 C 126.9920 59.9572 127.5840 59.3653 127.5840 58.6376 L 127.5840 57.7474 L 119.9870 57.7474 L 119.9870 58.6376 Z" fill="#242d3a"/>
  <path transform="translate(-14.5079,-42.5080)" d="M 82.3910 58.6376 C 82.3910 59.3653 82.9829 59.9572 83.7106 59.9572 L 88.6689 59.9572 C 89.3966 59.9572 89.9885 59.3653 89.9885 58.6376 L 89.9885 57.7474 L 82.3910 57.7474 L 82.3910 58.6376 Z" fill="#242d3a"/>
  <path transform="translate(-14.5079,-42.5080)" d="M 293.5260 58.6376 C 293.5260 59.3653 294.1180 59.9572 294.8450 59.9572 L 299.8040 59.9572 C 300.5310 59.9572 301.1230 59.3653 301.1230 58.6376 L 301.1230 57.7474 L 293.5260 57.7474 L 293.5260 58.6376 Z" fill="#242d3a"/>
  <path transform="translate(-14.5079,-42.5080)" d="M 323.8930 58.6376 C 323.8930 59.3653 324.4850 59.9572 325.2120 59.9572 L 330.1710 59.9572 C 330.8980 59.9572 331.4900 59.3653 331.4900 58.6376 L 331.4900 57.7474 L 323.8930 57.7474 L 323.8930 58.6376 Z" fill="#242d3a"/>
  <path transform="translate(-14.5079,-42.5080)" d="M 68.1172 58.6376 C 68.1172 59.3653 68.7091 59.9572 69.4368 59.9572 L 74.3951 59.9572 C 75.1228 59.9572 75.7147 59.3653 75.7147 58.6376 L 75.7147 57.7474 L 68.1172 57.7474 L 68.1172 58.6376 Z" fill="#242d3a"/>
  <path transform="translate(-14.5079,-42.5080)" d="M 37.7500 58.6376 C 37.7500 59.3653 38.3420 59.9572 39.0697 59.9572 L 44.0280 59.9572 C 44.7557 59.9572 45.3476 59.3653 45.3476 58.6376 L 45.3476 57.7474 L 37.7500 57.7474 L 37.7500 58.6376 Z" fill="#242d3a"/>
  <path transform="translate(-14.5079,-42.5080)" d="M 279.7760 63.4432 C 279.7750 63.4647 279.7700 63.4849 279.7700 63.5067 C 279.7700 64.3693 280.4720 65.0713 281.3340 65.0713 C 282.1970 65.0713 282.8990 64.3693 282.8990 63.5067 C 282.8990 63.4849 282.8930 63.4647 282.8930 63.4432 L 281.9820 63.4432 C 281.9840 63.4651 281.9950 63.4842 281.9950 63.5068 C 281.9950 63.8715 281.6990 64.1673 281.3350 64.1673 C 280.9700 64.1673 280.6740 63.8715 280.6740 63.5068 C 280.6740 63.4842 280.6850 63.4651 280.6870 63.4432 L 279.7760 63.4432 Z" fill="#242d3a"/>
  <path transform="translate(-14.5079,-42.5080)" d="M 246.8040 63.4432 C 246.8030 63.4647 246.7980 63.4849 246.7980 63.5067 C 246.7980 64.3693 247.5000 65.0713 248.3620 65.0713 C 249.2250 65.0713 249.9270 64.3693 249.9270 63.5067 C 249.9270 63.4849 249.9210 63.4647 249.9200 63.4432 L 249.0100 63.4432 C 249.0120 63.4651 249.0230 63.4842 249.0230 63.5068 C 249.0230 63.8715 248.7270 64.1673 248.3620 64.1673 C 247.9970 64.1673 247.7020 63.8715 247.7020 63.5068 C 247.7020 63.4842 247.7120 63.4651 247.7150 63.4432 L 246.8040 63.4432 Z" fill="#242d3a"/>
  <path transform="translate(-14.5079,-42.5080)" d="M 252.5290 63.4432 C 252.5280 63.4647 252.5230 63.4849 252.5230 63.5067 C 252.5230 64.3693 253.2250 65.0713 254.0870 65.0713 C 254.9500 65.0713 255.6520 64.3693 255.6520 63.5067 C 255.6520 63.4849 255.6460 63.4647 255.6450 63.4432 L 254.7350 63.4432 C 254.7370 63.4651 254.7480 63.4842 254.7480 63.5068 C 254.7480 63.8715 254.4520 64.1673 254.0870 64.1673 C 253.7230 64.1673 253.4270 63.8715 253.4270 63.5068 C 253.4270 63.4842 253.4370 63.4651 253.4400 63.4432 L 252.5290 63.4432 Z" fill="#242d3a"/>
  <path transform="translate(-14.5079,-42.5080)" d="M 334.0350 63.4432 C 334.0340 63.4647 334.0280 63.4849 334.0280 63.5067 C 334.0280 64.3693 334.7300 65.0713 335.5930 65.0713 C 336.4550 65.0713 337.1570 64.3693 337.1570 63.5067 C 337.1570 63.4849 337.1520 63.4647 337.1510 63.4432 L 336.2410 63.4432 C 336.2430 63.4651 336.2530 63.4842 336.2530 63.5068 C 336.2530 63.8715 335.9580 64.1673 335.5930 64.1673 C 335.2280 64.1673 334.9320 63.8715 334.9320 63.5068 C 334.9320 63.4842 334.9430 63.4651 334.9450 63.4432 L 334.0350 63.4432 Z" fill="#242d3a"/>
  <path transform="translate(-14.5079,-42.5080)" d="M 339.7600 63.4432 C 339.7590 63.4647 339.7530 63.4849 339.7530 63.5067 C 339.7530 64.3693 340.4550 65.0713 341.3180 65.0713 C 342.1800 65.0713 342.8820 64.3693 342.8820 63.5067 C 342.8820 63.4849 342.8770 63.4647 342.8760 63.4432 L 341.9660 63.4432 C 341.9680 63.4651 341.9780 63.4842 341.9780 63.5068 C 341.9780 63.8715 341.6830 64.1673 341.3180 64.1673 C 340.9530 64.1673 340.6570 63.8715 340.6570 63.5068 C 340.6570 63.4842 340.6680 63.4651 340.6700 63.4432 L 339.7600 63.4432 Z" fill="#242d3a"/>
  <path transform="translate(-14.5079,-42.5080)" d="M 302.1350 63.4432 C 302.1350 63.4647 302.1290 63.4849 302.1290 63.5067 C 302.1290 64.3693 302.8310 65.0713 303.6940 65.0713 C 304.5560 65.0713 305.2580 64.3693 305.2580 63.5067 C 305.2580 63.4849 305.2530 63.4647 305.2520 63.4432 L 304.3410 63.4432 C 304.3440 63.4651 304.3540 63.4842 304.3540 63.5068 C 304.3540 63.8715 304.0580 64.1673 303.6940 64.1673 C 303.3290 64.1673 303.0330 63.8715 303.0330 63.5068 C 303.0330 63.4842 303.0440 63.4651 303.0460 63.4432 L 302.1350 63.4432 Z" fill="#242d3a"/>
  <path transform="translate(-14.5079,-42.5080)" d="M 307.8600 63.4432 C 307.8600 63.4647 307.8540 63.4849 307.8540 63.5067 C 307.8540 64.3693 308.5560 65.0713 309.4190 65.0713 C 310.2810 65.0713 310.9830 64.3693 310.9830 63.5067 C 310.9830 63.4849 310.9780 63.4647 310.9770 63.4432 L 310.0660 63.4432 C 310.0690 63.4651 310.0790 63.4842 310.0790 63.5068 C 310.0790 63.8715 309.7830 64.1673 309.4190 64.1673 C 309.0540 64.1673 308.7580 63.8715 308.7580 63.5068 C 308.7580 63.4842 308.7690 63.4651 308.7710 63.4432 L 307.8600 63.4432 Z" fill="#242d3a"/>
  <path transform="translate(-14.5079,-42.5080)" d="M 221.1800 63.4432 C 221.1790 63.4647 221.1730 63.4849 221.1730 63.5067 C 221.1730 64.3693 221.8750 65.0713 222.7380 65.0713 C 223.6010 65.0713 224.3030 64.3693 224.3030 63.5067 C 224.3030 63.4849 224.2970 63.4647 224.2960 63.4432 L 223.3860 63.4432 C 223.3880 63.4651 223.3990 63.4842 223.3990 63.5068 C 223.3990 63.8715 223.1030 64.1673 222.7380 64.1673 C 222.3730 64.1673 222.0780 63.8715 222.0780 63.5068 C 222.0780 63.4842 222.0880 63.4651 222.0900 63.4432 L 221.1800 63.4432 Z" fill="#242d3a"/>
  <path transform="translate(-14.5079,-42.5080)" d="M 226.9050 63.4432 C 226.9040 63.4647 226.8980 63.4849 226.8980 63.5067 C 226.8980 64.3693 227.6000 65.0713 228.4630 65.0713 C 229.3260 65.0713 230.0280 64.3693 230.0280 63.5067 C 230.0280 63.4849 230.0220 63.4647 230.0210 63.4432 L 229.1110 63.4432 C 229.1130 63.4651 229.1240 63.4842 229.1240 63.5068 C 229.1240 63.8715 228.8280 64.1673 228.4630 64.1673 C 228.0980 64.1673 227.8030 63.8715 227.8030 63.5068 C 227.8030 63.4842 227.8130 63.4651 227.8150 63.4432 L 226.9050 63.4432 Z" fill="#242d3a"/>
  <path transform="translate(-14.5079,-42.5080)" d="M 193.9330 63.4432 C 193.9320 63.4647 193.9260 63.4849 193.9260 63.5067 C 193.9260 64.3693 194.6280 65.0713 195.4910 65.0713 C 196.3530 65.0713 197.0550 64.3693 197.0550 63.5067 C 197.0550 63.4849 197.0500 63.4647 197.0490 63.4432 L 196.1380 63.4432 C 196.1410 63.4651 196.1510 63.4842 196.1510 63.5068 C 196.1510 63.8715 195.8560 64.1673 195.4910 64.1673 C 195.1260 64.1673 194.8300 63.8715 194.8300 63.5068 C 194.8300 63.4842 194.8410 63.4651 194.8430 63.4432 L 193.9330 63.4432 Z" fill="#242d3a"/>
  <path transform="translate(-14.5079,-42.5080)" d="M 199.6580 63.4432 C 199.6570 63.4647 199.6510 63.4849 199.6510 63.5067 C 199.6510 64.3693 200.3530 65.0713 201.2160 65.0713 C 202.0780 65.0713 202.7800 64.3693 202.7800 63.5067 C 202.7800 63.4849 202.7750 63.4647 202.7740 63.4432 L 201.8640 63.4432 C 201.8660 63.4651 201.8760 63.4842 201.8760 63.5068 C 201.8760 63.8715 201.5810 64.1673 201.2160 64.1673 C 200.8510 64.1673 200.5550 63.8715 200.5550 63.5068 C 200.5550 63.4842 200.5660 63.4651 200.5680 63.4432 L 199.6580 63.4432 Z" fill="#242d3a"/>
  <path transform="translate(-14.5079,-42.5080)" d="M 168.1820 63.4432 C 168.1810 63.4647 168.1750 63.4849 168.1750 63.5067 C 168.1750 64.3693 168.8770 65.0713 169.7400 65.0713 C 170.6020 65.0713 171.3040 64.3693 171.3040 63.5067 C 171.3040 63.4849 171.2990 63.4647 171.2980 63.4432 L 170.3880 63.4432 C 170.3900 63.4651 170.4000 63.4842 170.4000 63.5068 C 170.4000 63.8715 170.1050 64.1673 169.7400 64.1673 C 169.3750 64.1673 169.0790 63.8715 169.0790 63.5068 C 169.0790 63.4842 169.0900 63.4651 169.0920 63.4432 L 168.1820 63.4432 Z" fill="#242d3a"/>
  <path transform="translate(-14.5079,-42.5080)" d="M 173.9070 63.4432 C 173.9060 63.4647 173.9000 63.4849 173.9000 63.5067 C 173.9000 64.3693 174.6020 65.0713 175.4650 65.0713 C 176.3270 65.0713 177.0290 64.3693 177.0290 63.5067 C 177.0290 63.4849 177.0240 63.4647 177.0230 63.4432 L 176.1130 63.4432 C 176.1150 63.4651 176.1250 63.4842 176.1250 63.5068 C 176.1250 63.8715 175.8300 64.1673 175.4650 64.1673 C 175.1000 64.1673 174.8040 63.8715 174.8040 63.5068 C 174.8040 63.4842 174.8150 63.4651 174.8170 63.4432 L 173.9070 63.4432 Z" fill="#242d3a"/>
  <path transform="translate(-14.5079,-42.5080)" d="M 140.9340 63.4432 C 140.9340 63.4647 140.9280 63.4849 140.9280 63.5067 C 140.9280 64.3693 141.6300 65.0713 142.4930 65.0713 C 143.3550 65.0713 144.0570 64.3693 144.0570 63.5067 C 144.0570 63.4849 144.0520 63.4647 144.0510 63.4432 L 143.1400 63.4432 C 143.1430 63.4651 143.1530 63.4842 143.1530 63.5068 C 143.1530 63.8715 142.8570 64.1673 142.4930 64.1673 C 142.1280 64.1673 141.8320 63.8715 141.8320 63.5068 C 141.8320 63.4842 141.8430 63.4651 141.8450 63.4432 L 140.9340 63.4432 Z" fill="#242d3a"/>
  <path transform="translate(-14.5079,-42.5080)" d="M 146.6590 63.4432 C 146.6590 63.4647 146.6530 63.4849 146.6530 63.5067 C 146.6530 64.3693 147.3550 65.0713 148.2180 65.0713 C 149.0800 65.0713 149.7820 64.3693 149.7820 63.5067 C 149.7820 63.4849 149.7770 63.4647 149.7760 63.4432 L 148.8650 63.4432 C 148.8680 63.4651 148.8780 63.4842 148.8780 63.5068 C 148.8780 63.8715 148.5830 64.1673 148.2180 64.1673 C 147.8530 64.1673 147.5570 63.8715 147.5570 63.5068 C 147.5570 63.4842 147.5680 63.4651 147.5700 63.4432 L 146.6590 63.4432 Z" fill="#242d3a"/>
  <path transform="translate(-14.5079,-42.5080)" d="M 115.1380 63.4432 C 115.1380 63.4647 115.1320 63.4849 115.1320 63.5067 C 115.1320 64.3693 115.8340 65.0713 116.6970 65.0713 C 117.5590 65.0713 118.2610 64.3693 118.2610 63.5067 C 118.2610 63.4849 118.2560 63.4647 118.2550 63.4432 L 117.3440 63.4432 C 117.3470 63.4651 117.3570 63.4842 117.3570 63.5068 C 117.3570 63.8715 117.0620 64.1673 116.6970 64.1673 C 116.3320 64.1673 116.0360 63.8715 116.0360 63.5068 C 116.0360 63.4842 116.0470 63.4651 116.0490 63.4432 L 115.1380 63.4432 Z" fill="#242d3a"/>
  <path transform="translate(-14.5079,-42.5080)" d="M 120.8640 63.4432 C 120.8630 63.4647 120.8570 63.4849 120.8570 63.5067 C 120.8570 64.3693 121.5590 65.0713 122.4220 65.0713 C 123.2840 65.0713 123.9860 64.3693 123.9860 63.5067 C 123.9860 63.4849 123.9810 63.4647 123.9800 63.4432 L 123.0690 63.4432 C 123.0720 63.4651 123.0820 63.4842 123.0820 63.5068 C 123.0820 63.8715 122.7860 64.1673 122.4220 64.1673 C 122.0570 64.1673 121.7610 63.8715 121.7610 63.5068 C 121.7610 63.4842 121.7720 63.4651 121.7740 63.4432 L 120.8640 63.4432 Z" fill="#242d3a"/>
  <path transform="translate(-14.5079,-42.5080)" d="M 87.8912 63.4432 C 87.8903 63.4647 87.8848 63.4849 87.8848 63.5067 C 87.8848 64.3693 88.5867 65.0713 89.4493 65.0713 C 90.3120 65.0713 91.0139 64.3693 91.0139 63.5067 C 91.0139 63.4849 91.0084 63.4647 91.0075 63.4432 L 90.0972 63.4432 C 90.0994 63.4651 90.1100 63.4842 90.1100 63.5068 C 90.1100 63.8715 89.8143 64.1673 89.4495 64.1673 C 89.0846 64.1673 88.7889 63.8715 88.7889 63.5068 C 88.7889 63.4842 88.7995 63.4651 88.8017 63.4432 L 87.8912 63.4432 Z" fill="#242d3a"/>
  <path transform="translate(-14.5079,-42.5080)" d="M 93.6163 63.4432 C 93.6154 63.4647 93.6098 63.4849 93.6098 63.5067 C 93.6098 64.3693 94.3118 65.0713 95.1744 65.0713 C 96.0370 65.0713 96.7390 64.3693 96.7390 63.5067 C 96.7390 63.4849 96.7334 63.4647 96.7325 63.4432 L 95.8222 63.4432 C 95.8244 63.4651 95.8350 63.4842 95.8350 63.5068 C 95.8350 63.8715 95.5393 64.1673 95.1745 64.1673 C 94.8097 64.1673 94.5139 63.8715 94.5139 63.5068 C 94.5139 63.4842 94.5245 63.4651 94.5267 63.4432 L 93.6163 63.4432 Z" fill="#242d3a"/>
  <path transform="translate(-14.5079,-42.5080)" d="M 32.0894 63.4432 C 32.0885 63.4647 32.0829 63.4849 32.0829 63.5067 C 32.0829 64.3693 32.7850 65.0713 33.6476 65.0713 C 34.5102 65.0713 35.2122 64.3693 35.2122 63.5067 C 35.2122 63.4849 35.2066 63.4647 35.2057 63.4432 L 34.2952 63.4432 C 34.2975 63.4651 34.3080 63.4842 34.3080 63.5068 C 34.3080 63.8715 34.0123 64.1673 33.6475 64.1673 C 33.2827 64.1673 32.9869 63.8715 32.9869 63.5068 C 32.9869 63.4842 32.9976 63.4651 32.9998 63.4432 L 32.0894 63.4432 Z" fill="#242d3a"/>
  <path transform="translate(-14.5079,-42.5080)" d="M 26.3644 63.4432 C 26.3635 63.4647 26.3580 63.4849 26.3580 63.5067 C 26.3580 64.3693 27.0599 65.0713 27.9225 65.0713 C 28.7852 65.0713 29.4871 64.3693 29.4871 63.5067 C 29.4871 63.4849 29.4816 63.4647 29.4807 63.4432 L 28.5703 63.4432 C 28.5724 63.4651 28.5831 63.4842 28.5831 63.5068 C 28.5831 63.8715 28.2873 64.1673 27.9225 64.1673 C 27.5577 64.1673 27.2620 63.8715 27.2620 63.5068 C 27.2620 63.4842 27.2725 63.4651 27.2748 63.4432 L 26.3644 63.4432 Z" fill="#242d3a"/>
  <path transform="translate(-14.5079,-42.5080)" d="M 63.9886 63.4432 C 63.9878 63.4647 63.9822 63.4849 63.9822 63.5067 C 63.9822 64.3693 64.6841 65.0713 65.5468 65.0713 C 66.4094 65.0713 67.1114 64.3693 67.1114 63.5067 C 67.1114 63.4849 67.1058 63.4647 67.1049 63.4432 L 66.1945 63.4432 C 66.1967 63.4651 66.2073 63.4842 66.2073 63.5068 C 66.2073 63.8715 65.9115 64.1673 65.5467 64.1673 C 65.1819 64.1673 64.8862 63.8715 64.8862 63.5068 C 64.8862 63.4842 64.8967 63.4651 64.8990 63.4432 L 63.9886 63.4432 Z" fill="#242d3a"/>
  <path transform="translate(-14.5079,-42.5080)" d="M 58.2636 63.4432 C 58.2627 63.4647 58.2571 63.4849 58.2571 63.5067 C 58.2571 64.3693 58.9592 65.0713 59.8218 65.0713 C 60.6844 65.0713 61.3864 64.3693 61.3864 63.5067 C 61.3864 63.4849 61.3808 63.4647 61.3799 63.4432 L 60.4694 63.4432 C 60.4717 63.4651 60.4822 63.4842 60.4822 63.5068 C 60.4822 63.8715 60.1865 64.1673 59.8217 64.1673 C 59.4569 64.1673 59.1611 63.8715 59.1611 63.5068 C 59.1611 63.4842 59.1718 63.4651 59.1740 63.4432 L 58.2636 63.4432 Z" fill="#242d3a"/>
  <path transform="translate(-14.5079,-42.5080)" d="M 277.4180 63.4432 C 277.4190 63.4648 277.4250 63.4849 277.4250 63.5067 C 277.4250 64.5076 276.6100 65.3220 275.6090 65.3220 C 274.6080 65.3220 273.7940 64.5076 273.7940 63.5067 C 273.7940 63.4849 273.8000 63.4648 273.8010 63.4432 L 273.2480 63.4432 C 273.2470 63.4648 273.2410 63.4849 273.2410 63.5068 C 273.2410 64.8147 274.3020 65.8750 275.6090 65.8750 C 276.9170 65.8750 277.9780 64.8147 277.9780 63.5068 C 277.9780 63.4849 277.9720 63.4648 277.9710 63.4432 L 277.4180 63.4432 Z" fill="#242d3a"/>
  <path transform="translate(-14.5079,-42.5080)" d="M 283.1430 63.4432 C 283.1440 63.4648 283.1500 63.4849 283.1500 63.5067 C 283.1500 64.5076 282.3350 65.3220 281.3340 65.3220 C 280.3340 65.3220 279.5190 64.5076 279.5190 63.5067 C 279.5190 63.4849 279.5250 63.4648 279.5260 63.4432 L 278.9730 63.4432 C 278.9720 63.4648 278.9660 63.4849 278.9660 63.5068 C 278.9660 64.8147 280.0270 65.8750 281.3350 65.8750 C 282.6430 65.8750 283.7030 64.8147 283.7030 63.5068 C 283.7030 63.4849 283.6970 63.4648 283.6960 63.4432 L 283.1430 63.4432 Z" fill="#242d3a"/>
  <path transform="translate(-14.5079,-42.5080)" d="M 250.1710 63.4432 C 250.1720 63.4648 250.1770 63.4849 250.1770 63.5067 C 250.1770 64.5076 249.3630 65.3220 248.3620 65.3220 C 247.3610 65.3220 246.5470 64.5076 246.5470 63.5067 C 246.5470 63.4849 246.5530 63.4648 246.5530 63.4432 L 246.0000 63.4432 C 246.0000 63.4648 245.9940 63.4849 245.9940 63.5068 C 245.9940 64.8147 247.0540 65.8750 248.3620 65.8750 C 249.6700 65.8750 250.7300 64.8147 250.7300 63.5068 C 250.7300 63.4849 250.7250 63.4648 250.7240 63.4432 L 250.1710 63.4432 Z" fill="#242d3a"/>
  <path transform="translate(-14.5079,-42.5080)" d="M 255.8960 63.4432 C 255.8970 63.4648 255.9030 63.4849 255.9030 63.5067 C 255.9030 64.5076 255.0880 65.3220 254.0870 65.3220 C 253.0860 65.3220 252.2720 64.5076 252.2720 63.5067 C 252.2720 63.4849 252.2780 63.4648 252.2780 63.4432 L 251.7250 63.4432 C 251.7250 63.4648 251.7190 63.4849 251.7190 63.5068 C 251.7190 64.8147 252.7790 65.8750 254.0870 65.8750 C 255.3950 65.8750 256.4560 64.8147 256.4560 63.5068 C 256.4560 63.4849 256.4500 63.4648 256.4490 63.4432 L 255.8960 63.4432 Z" fill="#242d3a"/>
  <path transform="translate(-14.5079,-42.5080)" d="M 337.4020 63.4432 C 337.4020 63.4648 337.4080 63.4849 337.4080 63.5067 C 337.4080 64.5076 336.5940 65.3220 335.5930 65.3220 C 334.5920 65.3220 333.7770 64.5076 333.7770 63.5067 C 333.7770 63.4849 333.7830 63.4648 333.7840 63.4432 L 333.2310 63.4432 C 333.2300 63.4648 333.2250 63.4849 333.2250 63.5068 C 333.2250 64.8147 334.2850 65.8750 335.5930 65.8750 C 336.9010 65.8750 337.9610 64.8147 337.9610 63.5068 C 337.9610 63.4849 337.9550 63.4648 337.9550 63.4432 L 337.4020 63.4432 Z" fill="#242d3a"/>
  <path transform="translate(-14.5079,-42.5080)" d="M 343.1270 63.4432 C 343.1270 63.4648 343.1330 63.4849 343.1330 63.5067 C 343.1330 64.5076 342.3190 65.3220 341.3180 65.3220 C 340.3170 65.3220 339.5030 64.5076 339.5030 63.5067 C 339.5030 63.4849 339.5080 63.4648 339.5090 63.4432 L 338.9560 63.4432 C 338.9550 63.4648 338.9500 63.4849 338.9500 63.5068 C 338.9500 64.8147 340.0100 65.8750 341.3180 65.8750 C 342.6260 65.8750 343.6860 64.8147 343.6860 63.5068 C 343.6860 63.4849 343.6800 63.4648 343.6800 63.4432 L 343.1270 63.4432 Z" fill="#242d3a"/>
  <path transform="translate(-14.5079,-42.5080)" d="M 305.5020 63.4432 C 305.5030 63.4648 305.5090 63.4849 305.5090 63.5067 C 305.5090 64.5076 304.6950 65.3220 303.6940 65.3220 C 302.6930 65.3220 301.8780 64.5076 301.8780 63.5067 C 301.8780 63.4849 301.8840 63.4648 301.8850 63.4432 L 301.3320 63.4432 C 301.3310 63.4648 301.3250 63.4849 301.3250 63.5068 C 301.3250 64.8147 302.3860 65.8750 303.6940 65.8750 C 305.0020 65.8750 306.0620 64.8147 306.0620 63.5068 C 306.0620 63.4849 306.0560 63.4648 306.0560 63.4432 L 305.5020 63.4432 Z" fill="#242d3a"/>
  <path transform="translate(-14.5079,-42.5080)" d="M 311.2270 63.4432 C 311.2280 63.4648 311.2340 63.4849 311.2340 63.5067 C 311.2340 64.5076 310.4200 65.3220 309.4190 65.3220 C 308.4180 65.3220 307.6030 64.5076 307.6030 63.5067 C 307.6030 63.4849 307.6090 63.4648 307.6100 63.4432 L 307.0570 63.4432 C 307.0560 63.4648 307.0500 63.4849 307.0500 63.5068 C 307.0500 64.8147 308.1110 65.8750 309.4190 65.8750 C 310.7270 65.8750 311.7870 64.8147 311.7870 63.5068 C 311.7870 63.4849 311.7810 63.4648 311.7810 63.4432 L 311.2270 63.4432 Z" fill="#242d3a"/>
  <path transform="translate(-14.5079,-42.5080)" d="M 224.5470 63.4432 C 224.5480 63.4648 224.5530 63.4849 224.5530 63.5067 C 224.5530 64.5076 223.7390 65.3220 222.7380 65.3220 C 221.7370 65.3220 220.9230 64.5076 220.9230 63.5067 C 220.9230 63.4849 220.9280 63.4648 220.9290 63.4432 L 220.3760 63.4432 C 220.3760 63.4648 220.3700 63.4849 220.3700 63.5068 C 220.3700 64.8147 221.4300 65.8750 222.7380 65.8750 C 224.0460 65.8750 225.1060 64.8147 225.1060 63.5068 C 225.1060 63.4849 225.1010 63.4648 225.1000 63.4432 L 224.5470 63.4432 Z" fill="#242d3a"/>
  <path transform="translate(-14.5079,-42.5080)" d="M 230.2720 63.4432 C 230.2730 63.4648 230.2780 63.4849 230.2780 63.5067 C 230.2780 64.5076 229.4640 65.3220 228.4630 65.3220 C 227.4620 65.3220 226.6480 64.5076 226.6480 63.5067 C 226.6480 63.4849 226.6530 63.4648 226.6540 63.4432 L 226.1010 63.4432 C 226.1010 63.4648 226.0950 63.4849 226.0950 63.5068 C 226.0950 64.8147 227.1550 65.8750 228.4630 65.8750 C 229.7710 65.8750 230.8310 64.8147 230.8310 63.5068 C 230.8310 63.4849 230.8260 63.4648 230.8250 63.4432 L 230.2720 63.4432 Z" fill="#242d3a"/>
  <path transform="translate(-14.5079,-42.5080)" d="M 197.3000 63.4432 C 197.3000 63.4648 197.3060 63.4849 197.3060 63.5067 C 197.3060 64.5076 196.4920 65.3220 195.4910 65.3220 C 194.4900 65.3220 193.6750 64.5076 193.6750 63.5067 C 193.6750 63.4849 193.6810 63.4648 193.6820 63.4432 L 193.1290 63.4432 C 193.1280 63.4648 193.1230 63.4849 193.1230 63.5068 C 193.1230 64.8147 194.1830 65.8750 195.4910 65.8750 C 196.7990 65.8750 197.8590 64.8147 197.8590 63.5068 C 197.8590 63.4849 197.8530 63.4648 197.8530 63.4432 L 197.3000 63.4432 Z" fill="#242d3a"/>
  <path transform="translate(-14.5079,-42.5080)" d="M 203.0250 63.4432 C 203.0250 63.4648 203.0310 63.4849 203.0310 63.5067 C 203.0310 64.5076 202.2170 65.3220 201.2160 65.3220 C 200.2150 65.3220 199.4000 64.5076 199.4000 63.5067 C 199.4000 63.4849 199.4060 63.4648 199.4070 63.4432 L 198.8540 63.4432 C 198.8530 63.4648 198.8480 63.4849 198.8480 63.5068 C 198.8480 64.8147 199.9080 65.8750 201.2160 65.8750 C 202.5240 65.8750 203.5840 64.8147 203.5840 63.5068 C 203.5840 63.4849 203.5780 63.4648 203.5780 63.4432 L 203.0250 63.4432 Z" fill="#242d3a"/>
  <path transform="translate(-14.5079,-42.5080)" d="M 171.5490 63.4432 C 171.5490 63.4648 171.5550 63.4849 171.5550 63.5067 C 171.5550 64.5076 170.7410 65.3220 169.7400 65.3220 C 168.7390 65.3220 167.9240 64.5076 167.9240 63.5067 C 167.9240 63.4849 167.9300 63.4648 167.9310 63.4432 L 167.3780 63.4432 C 167.3770 63.4648 167.3720 63.4849 167.3720 63.5068 C 167.3720 64.8147 168.4320 65.8750 169.7400 65.8750 C 171.0480 65.8750 172.1080 64.8147 172.1080 63.5068 C 172.1080 63.4849 172.1020 63.4648 172.1020 63.4432 L 171.5490 63.4432 Z" fill="#242d3a"/>
  <path transform="translate(-14.5079,-42.5080)" d="M 177.2740 63.4432 C 177.2750 63.4648 177.2800 63.4849 177.2800 63.5067 C 177.2800 64.5076 176.4660 65.3220 175.4650 65.3220 C 174.4640 65.3220 173.6500 64.5076 173.6500 63.5067 C 173.6500 63.4849 173.6550 63.4648 173.6560 63.4432 L 173.1030 63.4432 C 173.1020 63.4648 173.0970 63.4849 173.0970 63.5068 C 173.0970 64.8147 174.1570 65.8750 175.4650 65.8750 C 176.7730 65.8750 177.8330 64.8147 177.8330 63.5068 C 177.8330 63.4849 177.8270 63.4648 177.8270 63.4432 L 177.2740 63.4432 Z" fill="#242d3a"/>
  <path transform="translate(-14.5079,-42.5080)" d="M 144.3010 63.4432 C 144.3020 63.4648 144.3080 63.4849 144.3080 63.5067 C 144.3080 64.5076 143.4940 65.3220 142.4930 65.3220 C 141.4920 65.3220 140.6770 64.5076 140.6770 63.5067 C 140.6770 63.4849 140.6830 63.4648 140.6840 63.4432 L 140.1310 63.4432 C 140.1300 63.4648 140.1240 63.4849 140.1240 63.5068 C 140.1240 64.8147 141.1850 65.8750 142.4930 65.8750 C 143.8010 65.8750 144.8610 64.8147 144.8610 63.5068 C 144.8610 63.4849 144.8550 63.4648 144.8540 63.4432 L 144.3010 63.4432 Z" fill="#242d3a"/>
  <path transform="translate(-14.5079,-42.5080)" d="M 150.0270 63.4432 C 150.0270 63.4648 150.0330 63.4849 150.0330 63.5067 C 150.0330 64.5076 149.2190 65.3220 148.2180 65.3220 C 147.2170 65.3220 146.4020 64.5076 146.4020 63.5067 C 146.4020 63.4849 146.4080 63.4648 146.4090 63.4432 L 145.8560 63.4432 C 145.8550 63.4648 145.8490 63.4849 145.8490 63.5068 C 145.8490 64.8147 146.9100 65.8750 148.2180 65.8750 C 149.5260 65.8750 150.5860 64.8147 150.5860 63.5068 C 150.5860 63.4849 150.5800 63.4648 150.5800 63.4432 L 150.0270 63.4432 Z" fill="#242d3a"/>
  <path transform="translate(-14.5079,-42.5080)" d="M 118.5050 63.4432 C 118.5060 63.4648 118.5120 63.4849 118.5120 63.5067 C 118.5120 64.5076 117.6980 65.3220 116.6970 65.3220 C 115.6960 65.3220 114.8810 64.5076 114.8810 63.5067 C 114.8810 63.4849 114.8870 63.4648 114.8880 63.4432 L 114.3350 63.4432 C 114.3340 63.4648 114.3280 63.4849 114.3280 63.5068 C 114.3280 64.8147 115.3890 65.8750 116.6970 65.8750 C 118.0050 65.8750 119.0650 64.8147 119.0650 63.5068 C 119.0650 63.4849 119.0590 63.4648 119.0590 63.4432 L 118.5050 63.4432 Z" fill="#242d3a"/>
  <path transform="translate(-14.5079,-42.5080)" d="M 124.2310 63.4432 C 124.2310 63.4648 124.2370 63.4849 124.2370 63.5067 C 124.2370 64.5076 123.4230 65.3220 122.4220 65.3220 C 121.4210 65.3220 120.6060 64.5076 120.6060 63.5067 C 120.6060 63.4849 120.6120 63.4648 120.6130 63.4432 L 120.0600 63.4432 C 120.0590 63.4648 120.0530 63.4849 120.0530 63.5068 C 120.0530 64.8147 121.1140 65.8750 122.4220 65.8750 C 123.7300 65.8750 124.7900 64.8147 124.7900 63.5068 C 124.7900 63.4849 124.7840 63.4648 124.7840 63.4432 L 124.2310 63.4432 Z" fill="#242d3a"/>
  <path transform="translate(-14.5079,-42.5080)" d="M 91.2582 63.4432 C 91.2590 63.4648 91.2646 63.4849 91.2646 63.5067 C 91.2646 64.5076 90.4503 65.3220 89.4493 65.3220 C 88.4484 65.3220 87.6340 64.5076 87.6340 63.5067 C 87.6340 63.4849 87.6397 63.4648 87.6405 63.4432 L 87.0876 63.4432 C 87.0870 63.4648 87.0812 63.4849 87.0812 63.5068 C 87.0812 64.8147 88.1415 65.8750 89.4495 65.8750 C 90.7574 65.8750 91.8176 64.8147 91.8176 63.5068 C 91.8176 63.4849 91.8119 63.4648 91.8113 63.4432 L 91.2582 63.4432 Z" fill="#242d3a"/>
  <path transform="translate(-14.5079,-42.5080)" d="M 96.9833 63.4432 C 96.9841 63.4648 96.9897 63.4849 96.9897 63.5067 C 96.9897 64.5076 96.1753 65.3220 95.1744 65.3220 C 94.1735 65.3220 93.3591 64.5076 93.3591 63.5067 C 93.3591 63.4849 93.3647 63.4648 93.3655 63.4432 L 92.8126 63.4432 C 92.8120 63.4648 92.8062 63.4849 92.8062 63.5068 C 92.8062 64.8147 93.8665 65.8750 95.1745 65.8750 C 96.4824 65.8750 97.5427 64.8147 97.5427 63.5068 C 97.5427 63.4849 97.5369 63.4648 97.5363 63.4432 L 96.9833 63.4432 Z" fill="#242d3a"/>
  <path transform="translate(-14.5079,-42.5080)" d="M 35.4564 63.4432 C 35.4572 63.4648 35.4629 63.4849 35.4629 63.5067 C 35.4629 64.5076 34.6485 65.3220 33.6476 65.3220 C 32.6466 65.3220 31.8323 64.5076 31.8323 63.5067 C 31.8323 63.4849 31.8380 63.4648 31.8387 63.4432 L 31.2856 63.4432 C 31.2850 63.4648 31.2793 63.4849 31.2793 63.5068 C 31.2793 64.8147 32.3395 65.8750 33.6475 65.8750 C 34.9554 65.8750 36.0157 64.8147 36.0157 63.5068 C 36.0157 63.4849 36.0100 63.4648 36.0094 63.4432 L 35.4564 63.4432 Z" fill="#242d3a"/>
  <path transform="translate(-14.5079,-42.5080)" d="M 29.7314 63.4432 C 29.7322 63.4648 29.7379 63.4849 29.7379 63.5067 C 29.7379 64.5076 28.9235 65.3220 27.9225 65.3220 C 26.9216 65.3220 26.1072 64.5076 26.1072 63.5067 C 26.1072 63.4849 26.1129 63.4648 26.1137 63.4432 L 25.5606 63.4432 C 25.5600 63.4648 25.5543 63.4849 25.5543 63.5068 C 25.5543 64.8147 26.6146 65.8750 27.9225 65.8750 C 29.2305 65.8750 30.2908 64.8147 30.2908 63.5068 C 30.2908 63.4849 30.2850 63.4648 30.2844 63.4432 L 29.7314 63.4432 Z" fill="#242d3a"/>
  <path transform="translate(-14.5079,-42.5080)" d="M 67.3557 63.4432 C 67.3564 63.4648 67.3621 63.4849 67.3621 63.5067 C 67.3621 64.5076 66.5477 65.3220 65.5468 65.3220 C 64.5458 65.3220 63.7314 64.5076 63.7314 63.5067 C 63.7314 63.4849 63.7371 63.4648 63.7379 63.4432 L 63.1848 63.4432 C 63.1842 63.4648 63.1785 63.4849 63.1785 63.5068 C 63.1785 64.8147 64.2388 65.8750 65.5467 65.8750 C 66.8547 65.8750 67.9150 64.8147 67.9150 63.5068 C 67.9150 63.4849 67.9092 63.4648 67.9086 63.4432 L 67.3557 63.4432 Z" fill="#242d3a"/>
  <path transform="translate(-14.5079,-42.5080)" d="M 61.6306 63.4432 C 61.6314 63.4648 61.6371 63.4849 61.6371 63.5067 C 61.6371 64.5076 60.8227 65.3220 59.8218 65.3220 C 58.8208 65.3220 58.0065 64.5076 58.0065 63.5067 C 58.0065 63.4849 58.0121 63.4648 58.0129 63.4432 L 57.4598 63.4432 C 57.4592 63.4648 57.4534 63.4849 57.4534 63.5068 C 57.4534 64.8147 58.5137 65.8750 59.8217 65.8750 C 61.1296 65.8750 62.1899 64.8147 62.1899 63.5068 C 62.1899 63.4849 62.1842 63.4648 62.1836 63.4432 L 61.6306 63.4432 Z" fill="#242d3a"/>
</svg>
