<svg xmlns="http://www.w3.org/2000/svg" viewBox="0 0 900 620" font-family="Arial, sans-serif">
  <rect x="0" y="0" width="900" height="620" fill="#ffffff"/>
  <line x1="0" y1="0" x2="0" y2="620" stroke="#dbe3ee" stroke-width="1"/><line x1="20" y1="0" x2="20" y2="620" stroke="#dbe3ee" stroke-width="1"/><line x1="40" y1="0" x2="40" y2="620" stroke="#dbe3ee" stroke-width="1"/><line x1="60" y1="0" x2="60" y2="620" stroke="#dbe3ee" stroke-width="1"/><line x1="80" y1="0" x2="80" y2="620" stroke="#dbe3ee" stroke-width="1"/><line x1="100" y1="0" x2="100" y2="620" stroke="#dbe3ee" stroke-width="1"/><line x1="120" y1="0" x2="120" y2="620" stroke="#dbe3ee" stroke-width="1"/><line x1="140" y1="0" x2="140" y2="620" stroke="#dbe3ee" stroke-width="1"/><line x1="160" y1="0" x2="160" y2="620" stroke="#dbe3ee" stroke-width="1"/><line x1="180" y1="0" x2="180" y2="620" stroke="#dbe3ee" stroke-width="1"/><line x1="200" y1="0" x2="200" y2="620" stroke="#dbe3ee" stroke-width="1"/><line x1="220" y1="0" x2="220" y2="620" stroke="#dbe3ee" stroke-width="1"/><line x1="240" y1="0" x2="240" y2="620" stroke="#dbe3ee" stroke-width="1"/><line x1="260" y1="0" x2="260" y2="620" stroke="#dbe3ee" stroke-width="1"/><line x1="280" y1="0" x2="280" y2="620" stroke="#dbe3ee" stroke-width="1"/><line x1="300" y1="0" x2="300" y2="620" stroke="#dbe3ee" stroke-width="1"/><line x1="320" y1="0" x2="320" y2="620" stroke="#dbe3ee" stroke-width="1"/><line x1="340" y1="0" x2="340" y2="620" stroke="#dbe3ee" stroke-width="1"/><line x1="360" y1="0" x2="360" y2="620" stroke="#dbe3ee" stroke-width="1"/><line x1="380" y1="0" x2="380" y2="620" stroke="#dbe3ee" stroke-width="1"/><line x1="400" y1="0" x2="400" y2="620" stroke="#dbe3ee" stroke-width="1"/><line x1="420" y1="0" x2="420" y2="620" stroke="#dbe3ee" stroke-width="1"/><line x1="440" y1="0" x2="440" y2="620" stroke="#dbe3ee" stroke-width="1"/><line x1="460" y1="0" x2="460" y2="620" stroke="#dbe3ee" stroke-width="1"/><line x1="480" y1="0" x2="480" y2="620" stroke="#dbe3ee" stroke-width="1"/><line x1="500" y1="0" x2="500" y2="620" stroke="#dbe3ee" stroke-width="1"/><line x1="520" y1="0" x2="520" y2="620" stroke="#dbe3ee" stroke-width="1"/><line x1="540" y1="0" x2="540" y2="620" stroke="#dbe3ee" stroke-width="1"/><line x1="560" y1="0" x2="560" y2="620" stroke="#dbe3ee" stroke-width="1"/><line x1="580" y1="0" x2="580" y2="620" stroke="#dbe3ee" stroke-width="1"/><line x1="600" y1="0" x2="600" y2="620" stroke="#dbe3ee" stroke-width="1"/><line x1="620" y1="0" x2="620" y2="620" stroke="#dbe3ee" stroke-width="1"/><line x1="640" y1="0" x2="640" y2="620" stroke="#dbe3ee" stroke-width="1"/><line x1="660" y1="0" x2="660" y2="620" stroke="#dbe3ee" stroke-width="1"/><line x1="680" y1="0" x2="680" y2="620" stroke="#dbe3ee" stroke-width="1"/><line x1="700" y1="0" x2="700" y2="620" stroke="#dbe3ee" stroke-width="1"/><line x1="720" y1="0" x2="720" y2="620" stroke="#dbe3ee" stroke-width="1"/><line x1="740" y1="0" x2="740" y2="620" stroke="#dbe3ee" stroke-width="1"/><line x1="760" y1="0" x2="760" y2="620" stroke="#dbe3ee" stroke-width="1"/><line x1="780" y1="0" x2="780" y2="620" stroke="#dbe3ee" stroke-width="1"/><line x1="800" y1="0" x2="800" y2="620" stroke="#dbe3ee" stroke-width="1"/><line x1="820" y1="0" x2="820" y2="620" stroke="#dbe3ee" stroke-width="1"/><line x1="840" y1="0" x2="840" y2="620" stroke="#dbe3ee" stroke-width="1"/><line x1="860" y1="0" x2="860" y2="620" stroke="#dbe3ee" stroke-width="1"/><line x1="880" y1="0" x2="880" y2="620" stroke="#dbe3ee" stroke-width="1"/><line x1="0" y1="0" x2="900" y2="0" stroke="#dbe3ee" stroke-width="1"/><line x1="0" y1="20" x2="900" y2="20" stroke="#dbe3ee" stroke-width="1"/><line x1="0" y1="40" x2="900" y2="40" stroke="#dbe3ee" stroke-width="1"/><line x1="0" y1="60" x2="900" y2="60" stroke="#dbe3ee" stroke-width="1"/><line x1="0" y1="80" x2="900" y2="80" stroke="#dbe3ee" stroke-width="1"/><line x1="0" y1="100" x2="900" y2="100" stroke="#dbe3ee" stroke-width="1"/><line x1="0" y1="120" x2="900" y2="120" stroke="#dbe3ee" stroke-width="1"/><line x1="0" y1="140" x2="900" y2="140" stroke="#dbe3ee" stroke-width="1"/><line x1="0" y1="160" x2="900" y2="160" stroke="#dbe3ee" stroke-width="1"/><line x1="0" y1="180" x2="900" y2="180" stroke="#dbe3ee" stroke-width="1"/><line x1="0" y1="200" x2="900" y2="200" stroke="#dbe3ee" stroke-width="1"/><line x1="0" y1="220" x2="900" y2="220" stroke="#dbe3ee" stroke-width="1"/><line x1="0" y1="240" x2="900" y2="240" stroke="#dbe3ee" stroke-width="1"/><line x1="0" y1="260" x2="900" y2="260" stroke="#dbe3ee" stroke-width="1"/><line x1="0" y1="280" x2="900" y2="280" stroke="#dbe3ee" stroke-width="1"/><line x1="0" y1="300" x2="900" y2="300" stroke="#dbe3ee" stroke-width="1"/><line x1="0" y1="320" x2="900" y2="320" stroke="#dbe3ee" stroke-width="1"/><line x1="0" y1="340" x2="900" y2="340" stroke="#dbe3ee" stroke-width="1"/><line x1="0" y1="360" x2="900" y2="360" stroke="#dbe3ee" stroke-width="1"/><line x1="0" y1="380" x2="900" y2="380" stroke="#dbe3ee" stroke-width="1"/><line x1="0" y1="400" x2="900" y2="400" stroke="#dbe3ee" stroke-width="1"/><line x1="0" y1="420" x2="900" y2="420" stroke="#dbe3ee" stroke-width="1"/><line x1="0" y1="440" x2="900" y2="440" stroke="#dbe3ee" stroke-width="1"/><line x1="0" y1="460" x2="900" y2="460" stroke="#dbe3ee" stroke-width="1"/><line x1="0" y1="480" x2="900" y2="480" stroke="#dbe3ee" stroke-width="1"/><line x1="0" y1="500" x2="900" y2="500" stroke="#dbe3ee" stroke-width="1"/><line x1="0" y1="520" x2="900" y2="520" stroke="#dbe3ee" stroke-width="1"/><line x1="0" y1="540" x2="900" y2="540" stroke="#dbe3ee" stroke-width="1"/><line x1="0" y1="560" x2="900" y2="560" stroke="#dbe3ee" stroke-width="1"/><line x1="0" y1="580" x2="900" y2="580" stroke="#dbe3ee" stroke-width="1"/><line x1="0" y1="600" x2="900" y2="600" stroke="#dbe3ee" stroke-width="1"/>
  <rect x="10" y="10" width="880" height="600" fill="none" stroke="#182C4C" stroke-width="3"/>

  <text x="30" y="45" font-size="20" font-weight="bold" fill="#182C4C">SCHEMA ELETTRICO — S-2255</text>
  <text x="30" y="68" font-size="14" fill="#334155">Scheda encoder comparatore velocità</text>

  <rect x="300" y="90" width="300" height="340" fill="#eef2f8" stroke="#182C4C" stroke-width="2.5" rx="6"/>
  <text x="450.0" y="252.0" font-size="15" font-weight="bold" fill="#182C4C" text-anchor="middle">S-2255</text>
  <text x="450.0" y="274.0" font-size="11" fill="#334155" text-anchor="middle">unità sotto test</text>

  <line x1="210" y1="158.0" x2="300" y2="158.0" stroke="#334155" stroke-width="2"/>
<circle cx="210" cy="158.0" r="4" fill="#E3312B"/>
<text x="204" y="162.0" font-size="13" font-family="Consolas,monospace" fill="#334155" text-anchor="end">ALIM +24VCC</text>
<line x1="210" y1="226.0" x2="300" y2="226.0" stroke="#334155" stroke-width="2"/>
<circle cx="210" cy="226.0" r="4" fill="#E3312B"/>
<text x="204" y="230.0" font-size="13" font-family="Consolas,monospace" fill="#334155" text-anchor="end">GND</text>
<line x1="210" y1="294.0" x2="300" y2="294.0" stroke="#334155" stroke-width="2"/>
<circle cx="210" cy="294.0" r="4" fill="#E3312B"/>
<text x="204" y="298.0" font-size="13" font-family="Consolas,monospace" fill="#334155" text-anchor="end">ENCODER A</text>
<line x1="210" y1="362.0" x2="300" y2="362.0" stroke="#334155" stroke-width="2"/>
<circle cx="210" cy="362.0" r="4" fill="#E3312B"/>
<text x="204" y="366.0" font-size="13" font-family="Consolas,monospace" fill="#334155" text-anchor="end">ENCODER B</text>
  <line x1="600" y1="158.0" x2="690" y2="158.0" stroke="#334155" stroke-width="2"/>
<circle cx="600" cy="158.0" r="4" fill="#E3312B"/>
<text x="696" y="162.0" font-size="13" font-family="Consolas,monospace" fill="#334155" text-anchor="start">ENCODER Z (INDEX)</text>
<line x1="600" y1="226.0" x2="690" y2="226.0" stroke="#334155" stroke-width="2"/>
<circle cx="600" cy="226.0" r="4" fill="#E3312B"/>
<text x="696" y="230.0" font-size="13" font-family="Consolas,monospace" fill="#334155" text-anchor="start">OUT FREQUENZA</text>
<line x1="600" y1="294.0" x2="690" y2="294.0" stroke="#334155" stroke-width="2"/>
<circle cx="600" cy="294.0" r="4" fill="#E3312B"/>
<text x="696" y="298.0" font-size="13" font-family="Consolas,monospace" fill="#334155" text-anchor="start">OUT DIREZIONE</text>
<line x1="600" y1="362.0" x2="690" y2="362.0" stroke="#334155" stroke-width="2"/>
<circle cx="600" cy="362.0" r="4" fill="#E3312B"/>
<text x="696" y="366.0" font-size="13" font-family="Consolas,monospace" fill="#334155" text-anchor="start">SCHERMO</text>

  <rect x="570" y="530" width="300" height="70" fill="#ffffff" stroke="#182C4C" stroke-width="1.5"/>
  <text x="580" y="552" font-size="11" fill="#334155">Attrezzatura: S-2255</text>
  <text x="580" y="568" font-size="11" fill="#334155">Documento: schema fittizio dimostrativo</text>
  <text x="580" y="584" font-size="11" fill="#334155">Rev. 01 — generato per il sistema di monitoraggio</text>
  <text x="580" y="600" font-size="11" fill="#E3312B" font-weight="bold">NON è uno schema reale — solo dimostrativo</text>
</svg>